<svg width="48" height="48" viewBox="0 0 48 48" fill="none" xmlns="http://www.w3.org/2000/svg">
<rect width="48" height="48" rx="20" fill="#FF8B35"/>
<g clip-path="url(#clip0_295_1181)">
<path d="M29.6662 34H18.3341C15.5781 34 13.3359 31.7577 13.3359 29.0017V22.5854C13.3359 19.8289 15.5785 17.5863 18.335 17.5863H29.6663C32.4228 17.5863 34.6654 19.8289 34.6654 22.5854V29.0009C34.6653 31.7574 32.4227 34 29.6662 34ZM18.335 19.2527C16.4973 19.2527 15.0023 20.7477 15.0023 22.5854V29.0017C15.0023 30.8389 16.4969 32.3336 18.3341 32.3336H29.6662C31.5039 32.3336 32.999 30.8385 32.999 29.0008V22.5853C32.999 20.7477 31.5039 19.2526 29.6662 19.2526H18.335V19.2527ZM25.9169 30.6672H19.2515C17.8732 30.6672 16.7519 29.5459 16.7519 28.1677V23.4186C16.7519 22.0403 17.8732 20.919 19.2515 20.919H25.9169C27.2952 20.919 28.4165 22.0403 28.4165 23.4186V28.1677C28.4165 29.5459 27.2952 30.6672 25.9169 30.6672ZM19.2515 22.5854C18.7921 22.5854 18.4183 22.9591 18.4183 23.4186V28.1677C18.4183 28.6271 18.7921 29.0009 19.2515 29.0009H25.9169C26.3763 29.0009 26.7501 28.6271 26.7501 28.1677V23.4186C26.7501 22.9591 26.3763 22.5854 25.9169 22.5854H19.2515ZM30.7077 23.9185C30.1325 23.9185 29.6662 23.4522 29.6662 22.877C29.7211 21.4955 31.6945 21.4959 31.7492 22.877C31.7492 23.4522 31.2829 23.9185 30.7077 23.9185ZM30.7077 27.2512C31.2829 27.2512 31.7492 26.7849 31.7492 26.2097C31.6943 24.8282 29.7209 24.8286 29.6662 26.2097C29.6662 26.7849 30.1325 27.2512 30.7077 27.2512ZM25.7796 16.0203C25.781 16.0189 25.7825 16.0174 25.7839 16.0159L27.6778 14.0876C28.0002 13.7593 27.9955 13.2318 27.6671 12.9093C27.3389 12.5868 26.8113 12.5917 26.4889 12.92L24.5977 14.8457C24.2894 15.1658 23.7384 15.165 23.431 14.8438L21.5078 12.9154C20.6959 12.1638 19.5787 13.2792 20.3279 14.0921L22.251 16.0203C22.722 16.4929 23.3488 16.7532 24.0153 16.7532C24.6819 16.7531 25.3085 16.4929 25.7796 16.0203Z" fill="white"/>
</g>
<defs>
<clipPath id="clip0_295_1181">
<rect width="21.3333" height="21.3333" fill="white" transform="translate(13.334 12.6666)"/>
</clipPath>
</defs>
</svg>
