<svg width="72" height="72" viewBox="0 0 72 72" fill="none" xmlns="http://www.w3.org/2000/svg">
<rect width="72" height="72" rx="20" fill="#FF8B35"/>
<path d="M44.4993 51H27.5012C23.3672 51 20.0039 47.6367 20.0039 43.5026V33.8781C20.0039 29.7434 23.3678 26.3795 27.5025 26.3795H44.4994C48.6341 26.3795 51.998 29.7434 51.998 33.8781V43.5014C51.998 47.6362 48.6341 51 44.4993 51ZM27.5025 28.8791C24.746 28.8791 22.5034 31.1216 22.5034 33.8781V43.5026C22.5034 46.2584 24.7454 48.5004 27.5012 48.5004H44.4993C47.2558 48.5004 49.4984 46.2578 49.4984 43.5013V33.8781C49.4984 31.1216 47.2558 28.879 44.4993 28.879H27.5025V28.8791ZM38.8754 46.0009H28.8772C26.8098 46.0009 25.1279 44.319 25.1279 42.2516V35.1279C25.1279 33.0605 26.8098 31.3786 28.8772 31.3786H38.8754C40.9427 31.3786 42.6247 33.0605 42.6247 35.1279V42.2516C42.6247 44.319 40.9427 46.0009 38.8754 46.0009ZM28.8772 33.8781C28.1881 33.8781 27.6274 34.4388 27.6274 35.1279V42.2516C27.6274 42.9407 28.1881 43.5014 28.8772 43.5014H38.8754C39.5645 43.5014 40.1251 42.9407 40.1251 42.2516V35.1279C40.1251 34.4388 39.5645 33.8781 38.8754 33.8781H28.8772ZM46.0616 35.8778C45.1988 35.8778 44.4993 35.1783 44.4993 34.3156C44.5816 32.2433 47.5418 32.2439 47.6238 34.3156C47.6238 35.1784 46.9243 35.8778 46.0616 35.8778ZM46.0616 40.8769C46.9243 40.8769 47.6238 40.1774 47.6238 39.3146C47.5415 37.2424 44.5813 37.243 44.4993 39.3146C44.4993 40.1775 45.1988 40.8769 46.0616 40.8769ZM38.6694 24.0306C38.6715 24.0284 38.6737 24.0261 38.6759 24.0239L41.5167 21.1314C42.0003 20.6389 41.9932 19.8477 41.5007 19.3641C41.0083 18.8803 40.2169 18.8876 39.7333 19.38L36.8965 22.2686C36.4341 22.7487 35.6075 22.7476 35.1465 22.2657L32.2617 19.3731C31.0439 18.2457 29.3681 19.9188 30.4919 21.1382L33.3765 24.0306C34.0831 24.7394 35.0233 25.1299 36.0229 25.1298C37.0228 25.1297 37.9627 24.7394 38.6694 24.0306Z" fill="white"/>
</svg>
