<svg width="48" height="48" viewBox="0 0 48 48" fill="none" xmlns="http://www.w3.org/2000/svg">
<rect width="48" height="48" rx="20" fill="#FF8B35"/>
<g clip-path="url(#clip0_295_1171)">
<path d="M14.1671 34.666C14.0597 34.666 13.9515 34.6452 13.8483 34.6025C13.537 34.4735 13.334 34.1697 13.334 33.8327L13.3344 24.1011C13.2686 14.5728 24.8637 9.72836 31.5811 16.4815C38.2272 23.2249 33.4289 34.6743 23.95 34.666C22.271 34.666 20.6681 34.2894 19.186 33.5467C17.7698 32.8369 16.0552 33.1231 14.9194 34.2589L14.7564 34.4219C14.597 34.5813 14.3839 34.666 14.1671 34.666ZM17.553 31.4934C18.3621 31.4934 19.1762 31.6777 19.9327 32.0568C21.1832 32.6836 22.5386 33.0008 23.9594 32.9995C31.9245 33.0112 36.0063 23.2816 30.397 17.6541C24.7072 11.9601 14.9596 16.0385 15.0009 24.089C15.0009 24.0917 15.0009 24.0944 15.0009 24.0971L15.0006 32.1407C15.7901 31.7137 16.6685 31.4934 17.553 31.4934ZM21.4998 24.0005C21.4998 24.5757 21.0334 25.042 20.4582 25.042C19.0766 24.9871 19.077 23.0136 20.4582 22.9589C21.0334 22.9589 21.4998 23.4252 21.4998 24.0005ZM24.0411 22.9589C23.4659 22.9589 22.9996 23.4252 22.9996 24.0005C23.0545 25.3821 25.028 25.3817 25.0827 24.0005C25.0827 23.4252 24.6164 22.9589 24.0411 22.9589ZM27.6241 22.9589C27.0489 22.9589 26.5825 23.4252 26.5825 24.0005C26.6374 25.3821 28.611 25.3817 28.6656 24.0005C28.6656 23.4252 28.1993 22.9589 27.6241 22.9589Z" fill="white"/>
</g>
<defs>
<clipPath id="clip0_295_1171">
<rect width="21.3333" height="21.3333" fill="white" transform="translate(13.334 13.3334)"/>
</clipPath>
</defs>
</svg>
