<svg width="72" height="72" viewBox="0 0 72 72" fill="none" xmlns="http://www.w3.org/2000/svg">
<rect width="72" height="72" rx="20" fill="#FF8B35"/>
<g clip-path="url(#clip0_277_564)">
<path d="M21.2496 51.9983C21.0886 51.9983 20.9262 51.9671 20.7715 51.9031C20.3045 51.7096 20 51.2538 20 50.7483L20.0007 36.1509C19.9019 21.8586 37.2946 14.5919 47.3707 24.7216C57.3399 34.8367 50.1423 52.0108 35.9241 51.9983C33.4055 51.9983 31.0012 51.4334 28.778 50.3193C26.6537 49.2547 24.0818 49.684 22.3781 51.3877L22.1336 51.6322C21.8945 51.8713 21.5748 51.9983 21.2496 51.9983ZM26.3285 47.2395C27.5422 47.2395 28.7633 47.5158 29.898 48.0845C31.7738 49.0247 33.807 49.5005 35.9382 49.4985C47.8858 49.5161 54.0084 34.9217 45.5944 26.4804C37.0598 17.9395 22.4385 24.057 22.5004 36.1329C22.5004 36.1369 22.5004 36.1409 22.5004 36.1449L22.4999 48.2104C23.6842 47.5699 25.0018 47.2395 26.3285 47.2395ZM32.2487 36C32.2487 36.8629 31.5492 37.5623 30.6863 37.5623C28.6139 37.48 28.6145 34.5197 30.6863 34.4377C31.5492 34.4377 32.2487 35.1372 32.2487 36ZM36.0607 34.4377C35.1979 34.4377 34.4984 35.1372 34.4984 36C34.5807 38.0724 37.5411 38.0718 37.6231 36C37.6231 35.1372 36.9236 34.4377 36.0607 34.4377ZM41.4352 34.4377C40.5723 34.4377 39.8728 35.1372 39.8728 36C39.9551 38.0724 42.9155 38.0718 42.9975 36C42.9975 35.1372 42.298 34.4377 41.4352 34.4377Z" fill="white"/>
</g>
<defs>
<clipPath id="clip0_277_564">
<rect width="32" height="32" fill="white" transform="translate(20 20)"/>
</clipPath>
</defs>
</svg>
