<svg width="72" height="72" viewBox="0 0 72 72" fill="none" xmlns="http://www.w3.org/2000/svg">
<rect width="72" height="72" rx="20" fill="#FF8B35"/>
<path d="M44.5 49.25H27.5C23.3645 49.25 20 45.8855 20 41.75V31.5C20 27.3645 23.3645 24 27.5 24H44.5C48.6355 24 52 27.3645 52 31.5V41.75C52 45.8855 48.6355 49.25 44.5 49.25ZM27.5 26.5C24.743 26.5 22.5 28.743 22.5 31.5V41.75C22.5 44.507 24.743 46.75 27.5 46.75H44.5C47.257 46.75 49.5 44.507 49.5 41.75V31.5C49.5 28.743 47.257 26.5 44.5 26.5H27.5ZM40.5804 38.8379L46.7588 34.1184C47.3074 33.6993 47.4124 32.9149 46.9934 32.3663C46.5743 31.8176 45.7899 31.7126 45.2412 32.1317L39.0636 36.8506C37.2798 38.2112 34.7886 38.2122 33.0036 36.8541L27.0173 32.2006C26.4722 31.7769 25.6868 31.8753 25.2632 32.4204C24.8395 32.9654 24.9379 33.7507 25.4829 34.1744L31.4739 38.8314C31.4769 38.8338 31.4799 38.8361 31.483 38.8384C32.822 39.8597 34.4264 40.3703 36.0311 40.3703C37.6359 40.3703 39.2409 39.8594 40.5804 38.8379Z" fill="white"/>
</svg>
