<svg width="48" height="48" viewBox="0 0 48 48" fill="none" xmlns="http://www.w3.org/2000/svg">
<rect width="48" height="48" rx="20" fill="#FF8B35"/>
<path d="M29.6673 32.8333H18.334C15.577 32.8333 13.334 30.5903 13.334 27.8333V21C13.334 18.243 15.577 16 18.334 16H29.6673C32.4243 16 34.6673 18.243 34.6673 21V27.8333C34.6673 30.5903 32.4243 32.8333 29.6673 32.8333ZM18.334 17.6667C16.496 17.6667 15.0007 19.162 15.0007 21V27.8333C15.0007 29.6713 16.496 31.1667 18.334 31.1667H29.6673C31.5053 31.1667 33.0007 29.6713 33.0007 27.8333V21C33.0007 19.162 31.5053 17.6667 29.6673 17.6667H18.334ZM27.0542 25.8919L31.1732 22.7456C31.5389 22.4662 31.6089 21.9433 31.3296 21.5775C31.0502 21.2118 30.5272 21.1417 30.1615 21.4211L26.043 24.5671C24.8538 25.4741 23.193 25.4748 22.003 24.5694L18.0122 21.4671C17.6488 21.1846 17.1252 21.2502 16.8428 21.6136C16.5603 21.977 16.6259 22.5005 16.9893 22.783L20.9832 25.8876C20.9852 25.8892 20.9873 25.8908 20.9893 25.8923C21.882 26.5731 22.9516 26.9135 24.0214 26.9135C25.0912 26.9135 26.1613 26.5729 27.0542 25.8919Z" fill="white"/>
</svg>
