<svg width="48" height="48" viewBox="0 0 48 48" fill="none" xmlns="http://www.w3.org/2000/svg">
<rect width="48" height="48" rx="20" fill="#FF8B35"/>
<path d="M29.6673 34.6667H18.334C15.577 34.6667 13.334 32.4237 13.334 29.6667V18.3334C13.334 15.5764 15.577 13.3334 18.334 13.3334H29.6673C32.4243 13.3334 34.6673 15.5764 34.6673 18.3334V29.6667C34.6673 32.4237 32.4243 34.6667 29.6673 34.6667ZM18.334 15C16.496 15 15.0007 16.4954 15.0007 18.3334V29.6667C15.0007 31.5047 16.496 33 18.334 33H29.6673C31.5053 33 33.0007 31.5047 33.0007 29.6667V18.3334C33.0007 16.4954 31.5053 15 29.6673 15H18.334ZM19.0423 28C18.8235 28 18.6109 27.9138 18.453 27.756C18.256 27.559 18.1705 27.2766 18.2251 27.0034L18.697 24.6424C18.931 23.4716 19.501 22.4065 20.3453 21.5622L24.3498 17.5576C25.4821 16.3777 27.5192 16.3777 28.6514 17.5577C29.8314 18.6898 29.8313 20.7271 28.6514 21.8592L24.6469 25.8637C23.8025 26.708 22.7374 27.278 21.5666 27.512L19.2056 27.9839C19.1513 27.9948 19.0966 28 19.0423 28ZM26.5007 18.3334C26.1334 18.3334 25.7881 18.4764 25.5284 18.7361L21.5239 22.7407C20.913 23.3515 20.5007 24.122 20.3314 24.969L20.1045 26.1045L21.24 25.8776C22.087 25.7083 22.8576 25.296 23.4684 24.6852L27.4729 20.6806C28.0064 20.1688 28.0063 19.2479 27.4729 18.7361C27.4729 18.7361 27.4729 18.7361 27.4729 18.7361C27.2132 18.4764 26.8679 18.3334 26.5007 18.3334ZM31.1673 30.5C31.1673 30.0398 30.7942 29.6667 30.334 29.6667H17.6673C16.5617 29.7107 16.5625 31.2897 17.6673 31.3334H30.334C30.7942 31.3334 31.1673 30.9603 31.1673 30.5Z" fill="white"/>
</svg>
