<svg width="48" height="48" viewBox="0 0 48 48" fill="none" xmlns="http://www.w3.org/2000/svg">
<rect width="48" height="48" rx="20" fill="#FF8B35"/>
<g clip-path="url(#clip0_295_1185)">
<path d="M24.0006 15.9585C21.3586 15.9585 19.2091 18.108 19.2091 20.75V25.9583C19.2091 28.3162 20.9211 30.2817 23.1673 30.6773V32.3762C22.267 32.4635 21.3677 32.6926 20.4733 33.0633C20.0482 33.2395 19.8464 33.727 20.0226 34.1521C20.1988 34.5773 20.6862 34.7791 21.1114 34.6029C23.0557 33.7971 24.9458 33.7971 26.8898 34.6029C27.3044 34.7779 27.8025 34.5817 27.9787 34.1522C28.1549 33.727 27.9531 33.2395 27.528 33.0633C26.6336 32.6926 25.7344 32.4635 24.834 32.3762V30.6773C27.0802 30.2818 28.7923 28.3162 28.7923 25.9583V20.7501C28.7922 18.108 26.6427 15.9585 24.0006 15.9585ZM27.1256 25.9583C26.9534 30.1049 21.0463 30.1017 20.8757 25.9583V20.75C21.0479 16.6034 26.955 16.6066 27.1256 20.75V25.9583ZM32.1255 20.7599C32.0818 21.8645 30.503 21.8657 30.4588 20.7599C30.4588 18.2762 29.0074 15.9839 26.7612 14.92C26.3452 14.723 26.1678 14.2261 26.3648 13.8102C26.5618 13.3943 27.0587 13.2168 27.4746 13.4138C30.2717 14.7093 32.1558 17.6703 32.1255 20.7599ZM17.5425 20.7599C17.4996 21.8634 15.9202 21.8666 15.8758 20.7599C15.8455 17.6703 17.7296 14.7093 20.5267 13.4138C20.9425 13.2168 21.4395 13.3942 21.6365 13.8102C21.8335 14.2261 21.6561 14.723 21.2401 14.92C18.9939 15.9839 17.5425 18.2762 17.5425 20.7599ZM25.0423 25.6666H22.959C21.8534 25.6226 21.8542 24.0436 22.959 24H25.0423C26.1479 24.044 26.1471 25.623 25.0423 25.6666ZM14.9384 17.0464C15.2863 16.1986 15.7518 15.4039 16.322 14.6844C16.6078 14.3237 16.5471 13.7996 16.1864 13.5137C15.8258 13.2279 15.3016 13.2886 15.0158 13.6493C14.3486 14.4913 13.8038 15.4214 13.3966 16.4138C13.2219 16.8395 13.4254 17.3263 13.8512 17.501C13.9547 17.5435 14.0618 17.5636 14.1672 17.5636C14.4952 17.5636 14.8062 17.3687 14.9384 17.0464ZM34.1501 17.501C34.5759 17.3263 34.7794 16.8395 34.6047 16.4138C34.1975 15.4214 33.6527 14.4913 32.9855 13.6494C32.6997 13.2886 32.1756 13.2279 31.8149 13.5138C31.4542 13.7996 31.3934 14.3237 31.6793 14.6844C32.2494 15.404 32.7149 16.1987 33.0629 17.0465C33.1951 17.3687 33.5061 17.5637 33.8341 17.5637C33.9394 17.5636 34.0466 17.5435 34.1501 17.501Z" fill="white"/>
</g>
<defs>
<clipPath id="clip0_295_1185">
<rect width="21.3333" height="21.3333" fill="white" transform="translate(13.334 13.3334)"/>
</clipPath>
</defs>
</svg>
