<svg width="72" height="72" viewBox="0 0 72 72" fill="none" xmlns="http://www.w3.org/2000/svg">
<rect width="72" height="72" rx="20" fill="#FF8B35"/>
<g clip-path="url(#clip0_277_578)">
<path d="M36 23.9376C32.0369 23.9376 28.8126 27.1619 28.8126 31.125V38.9373C28.8126 42.4742 31.3807 45.4226 34.75 46.0159V48.5642C33.3995 48.6952 32.0506 49.0388 30.709 49.5948C30.0713 49.8591 29.7686 50.5904 30.0329 51.2281C30.2972 51.8659 31.0284 52.1686 31.6662 51.9043C34.5825 50.6956 37.4177 50.6956 40.3338 51.9043C40.9556 52.1667 41.7028 51.8724 41.9671 51.2282C42.2314 50.5905 41.9287 49.8592 41.2911 49.5949C39.9495 49.0388 38.6006 48.6952 37.25 48.5642V46.0159C40.6194 45.4226 43.1874 42.4743 43.1874 38.9374V31.1251C43.1873 27.1619 39.9631 23.9376 36 23.9376ZM40.6874 38.9373C40.4292 45.1573 31.5685 45.1525 31.3126 38.9373V31.125C31.5708 24.905 40.4315 24.9098 40.6874 31.125V38.9373ZM48.1872 31.1397C48.1217 32.7967 45.7535 32.7985 45.6873 31.1397C45.6873 27.4143 43.5101 23.9758 40.1408 22.3799C39.5169 22.0844 39.2507 21.3391 39.5462 20.7152C39.8417 20.0913 40.587 19.8251 41.2109 20.1206C45.4066 22.0639 48.2327 26.5053 48.1872 31.1397ZM26.3127 31.1397C26.2484 32.7951 23.8793 32.7998 23.8128 31.1397C23.7673 26.5054 26.5934 22.0639 30.7891 20.1206C31.4128 19.8251 32.1583 20.0913 32.4538 20.7152C32.7493 21.3391 32.4831 22.0844 31.8592 22.3799C28.4898 23.9758 26.3127 27.4143 26.3127 31.1397ZM37.5625 38.4998H34.4375C32.7791 38.4338 32.7803 36.0653 34.4375 35.9999H37.5625C39.2209 36.0659 39.2196 38.4345 37.5625 38.4998ZM22.4067 25.5696C22.9285 24.2979 23.6268 23.1058 24.4821 22.0265C24.9108 21.4854 24.8197 20.6993 24.2787 20.2705C23.7377 19.8418 22.9515 19.9329 22.5227 20.4739C21.5219 21.7369 20.7047 23.132 20.0939 24.6206C19.8318 25.2592 20.1371 25.9894 20.7758 26.2515C20.9311 26.3152 21.0918 26.3454 21.2498 26.3454C21.7418 26.3454 22.2084 26.053 22.4067 25.5696ZM51.2242 26.2515C51.8628 25.9894 52.1681 25.2592 51.906 24.6206C51.2952 23.1321 50.4781 21.7369 49.4773 20.474C49.0485 19.9329 48.2624 19.8418 47.7213 20.2706C47.1803 20.6993 47.0892 21.4855 47.5179 22.0266C48.3732 23.1059 49.0714 24.2979 49.5933 25.5697C49.7917 26.053 50.2581 26.3455 50.7502 26.3455C50.9082 26.3454 51.0689 26.3152 51.2242 26.2515Z" fill="white"/>
</g>
<defs>
<clipPath id="clip0_277_578">
<rect width="32" height="32" fill="white" transform="translate(20 20)"/>
</clipPath>
</defs>
</svg>
