<svg width="53" height="32" viewBox="0 0 53 32" fill="none" xmlns="http://www.w3.org/2000/svg">
<path d="M45 0H7.66667C3.98477 0 1 2.98477 1 6.66667V25.3333C1 29.0152 3.98477 32 7.66667 32H45C48.6819 32 51.6667 29.0152 51.6667 25.3333V6.66667C51.6667 2.98477 48.6819 0 45 0Z" fill="#016FD0"/>
<g clip-path="url(#clip0_1897_917)">
<path d="M14.375 22.9946V16.9501H20.6919L21.3696 17.8453L22.0697 16.9501H44.9984V22.5777C44.9984 22.5777 44.3987 22.9886 43.7052 22.9946H31.0092L30.2451 22.0418V22.9946H27.7411V21.3681C27.7411 21.3681 27.3991 21.5951 26.6596 21.5951H25.8073V22.9946H22.0161L21.3394 22.0803L20.6522 22.9946H14.375Z" fill="white"/>
<path d="M7 12.3944L8.42448 9.02979H10.888L11.6964 10.9145V9.02979H14.7587L15.2399 10.392L15.7065 9.02979H29.4532V9.71463C29.4532 9.71463 30.1759 9.02979 31.3635 9.02979L35.8238 9.04558L36.6182 10.9057V9.02979H39.181L39.8863 10.0982V9.02979H42.4725V15.0743H39.8863L39.2104 14.0023V15.0743H35.4452L35.0665 14.1214H34.0543L33.6818 15.0743H31.1284C30.1065 15.0743 29.4532 14.4034 29.4532 14.4034V15.0743H25.6032L24.8391 14.1214V15.0743H10.523L10.1446 14.1214H9.13564L8.75993 15.0743H7V12.3944Z" fill="white"/>
<path d="M8.92912 9.77493L7.00781 14.3008H8.25868L8.61319 13.3945H10.6741L11.0268 14.3008H12.3052L10.3857 9.77493H8.92912ZM9.63997 10.8282L10.2682 12.4119H9.00994L9.63997 10.8282Z" fill="#016FD0"/>
<path d="M12.4375 14.3001V9.77417L14.2151 9.78086L15.2489 12.6989L16.2581 9.77417H18.0214V14.3001H16.9046V10.9652L15.7208 14.3001H14.7414L13.5543 10.9652V14.3001H12.4375Z" fill="#016FD0"/>
<path d="M18.7852 14.3001V9.77417H22.4294V10.7865H19.9137V11.5607H22.3706V12.5135H19.9137V13.3175H22.4294V14.3001H18.7852Z" fill="#016FD0"/>
<path d="M23.0781 9.77493V14.3008H24.1949V12.693H24.6651L26.0042 14.3008H27.3689L25.8995 12.6334C26.5025 12.5818 27.1246 12.0574 27.1246 11.2433C27.1246 10.2908 26.3868 9.77493 25.5633 9.77493H23.0781ZM24.1949 10.7873H25.4715C25.7777 10.7873 26.0005 11.03 26.0005 11.2637C26.0005 11.5644 25.7119 11.7401 25.488 11.7401H24.1949V10.7873Z" fill="#016FD0"/>
<path d="M28.7184 14.3001H27.5781V9.77417H28.7184V14.3001Z" fill="#016FD0"/>
<path d="M31.4218 14.3001H31.1757C29.9848 14.3001 29.2617 13.3495 29.2617 12.0557C29.2617 10.73 29.9767 9.77417 31.4806 9.77417H32.7149V10.8461H31.4355C30.825 10.8461 30.3932 11.3288 30.3932 12.0669C30.3932 12.9434 30.8869 13.3115 31.5981 13.3115H31.892L31.4218 14.3001Z" fill="#016FD0"/>
<path d="M33.851 9.77493L31.9297 14.3008H33.1806L33.5351 13.3945H35.596L35.9486 14.3008H37.2271L35.3076 9.77493H33.851ZM34.5618 10.8282L35.19 12.4119H33.9318L34.5618 10.8282Z" fill="#016FD0"/>
<path d="M37.3594 14.3001V9.77417H38.7792L40.5922 12.6178V9.77417H41.7089V14.3001H40.335L38.4762 11.3821V14.3001H37.3594Z" fill="#016FD0"/>
<path d="M15.1406 22.2204V17.6945H18.7849V18.7069H16.2692V19.4811H18.7261V20.4339H16.2692V21.2378H18.7849V22.2204H15.1406Z" fill="#016FD0"/>
<path d="M32.9961 22.2204V17.6945H36.6403V18.7069H34.1246V19.4811H36.5698V20.4339H34.1246V21.2378H36.6403V22.2204H32.9961Z" fill="#016FD0"/>
<path d="M18.9251 22.2204L20.6994 19.9854L18.8828 17.6945H20.2898L21.3717 19.1107L22.4573 17.6945H23.8091L22.0164 19.9575L23.794 22.2204H22.3873L21.3368 20.8265L20.3119 22.2204H18.9251Z" fill="#016FD0"/>
<path d="M23.9258 17.6953V22.2212H25.072V20.792H26.2475C27.2422 20.792 27.9962 20.2573 27.9962 19.2176C27.9962 18.3562 27.4048 17.6953 26.3926 17.6953H23.9258ZM25.072 18.7188H26.31C26.6313 18.7188 26.861 18.9184 26.861 19.2399C26.861 19.542 26.6325 19.761 26.3063 19.761H25.072V18.7188Z" fill="#016FD0"/>
<path d="M28.4844 17.6945V22.2204H29.6012V20.6125H30.0714L31.4104 22.2204H32.7752L31.3057 20.553C31.9088 20.5014 32.5309 19.977 32.5309 19.1628C32.5309 18.2104 31.793 17.6945 30.9696 17.6945H28.4844ZM29.6012 18.7069H30.8777C31.184 18.7069 31.4067 18.9496 31.4067 19.1833C31.4067 19.484 31.1181 19.6597 30.8943 19.6597H29.6012V18.7069Z" fill="#016FD0"/>
<path d="M37.1574 22.2204V21.2378H39.3925C39.7232 21.2378 39.8664 21.0568 39.8664 20.8582C39.8664 20.6679 39.7236 20.4756 39.3925 20.4756H38.3825C37.5046 20.4756 37.0156 19.9337 37.0156 19.12C37.0156 18.3943 37.4634 17.6945 38.7679 17.6945H40.9427L40.4725 18.7128H38.5916C38.2321 18.7128 38.1214 18.904 38.1214 19.0865C38.1214 19.2742 38.2582 19.4811 38.5328 19.4811H39.5908C40.5695 19.4811 40.9942 20.0435 40.9942 20.78C40.9942 21.5719 40.521 22.2204 39.5376 22.2204H37.1574Z" fill="#016FD0"/>
<path d="M41.259 22.2204V21.2378H43.494C43.8247 21.2378 43.9679 21.0568 43.9679 20.8582C43.9679 20.6679 43.8252 20.4756 43.494 20.4756H42.484C41.6061 20.4756 41.1172 19.9337 41.1172 19.12C41.1172 18.3943 41.5649 17.6945 42.8695 17.6945H45.0443L44.5741 18.7128H42.6932C42.3336 18.7128 42.223 18.904 42.223 19.0865C42.223 19.2742 42.3597 19.4811 42.6344 19.4811H43.6924C44.6711 19.4811 45.0957 20.0435 45.0957 20.78C45.0957 21.5719 44.6225 22.2204 43.6391 22.2204H41.259Z" fill="#016FD0"/>
</g>
<defs>
<clipPath id="clip0_1897_917">
<rect width="38" height="14" fill="white" transform="translate(7 9)"/>
</clipPath>
</defs>
</svg>
