<svg width="80" height="32" viewBox="0 0 80 32" fill="none" xmlns="http://www.w3.org/2000/svg">
<g clip-path="url(#clip0_246:2947)">
<path d="M44.0465 6.8847C36.8614 6.8847 31.4258 12.4759 31.4258 19.4023C31.4258 26.7042 37.0905 31.9199 44.0465 31.9199C51.0025 31.9199 56.6464 26.7042 56.6464 19.4023C56.6464 12.4759 51.2316 6.8847 44.0465 6.8847ZM44.0465 13.4982C47.1496 13.4773 49.6904 16.1268 49.6904 19.4023C49.6904 22.6569 47.1496 25.3064 44.0465 25.3064C40.9434 25.3064 38.4026 22.6569 38.4026 19.4023C38.4026 16.1268 40.9434 13.4982 44.0465 13.4982Z" fill="black"/>
<path d="M80.001 27.5379C80.001 29.9579 78.0433 31.919 75.6274 31.919C73.2116 31.919 71.2539 29.9579 71.2539 27.5379C71.2539 25.1178 73.2116 23.1567 75.6274 23.1567C78.0433 23.1567 80.001 25.1178 80.001 27.5379Z" fill="black"/>
<path d="M67.2672 31.0854H60.3945V6.10352e-05H67.2672V31.0854Z" fill="black"/>
<path fill-rule="evenodd" clip-rule="evenodd" d="M0 31.0858L12.4958 0.000457764H18.9519L31.2394 31.0858H22.4924L21.0345 26.7046H10.2049L8.74704 31.0858H0ZM18.9519 20.2372H12.4958L15.7238 9.80589L18.9519 20.2372Z" fill="black"/>
</g>
<defs>
<clipPath id="clip0_246:2947">
<rect width="80" height="32" fill="white"/>
</clipPath>
</defs>
</svg>
