<svg width="53" height="32" viewBox="0 0 53 32" fill="none" xmlns="http://www.w3.org/2000/svg">
<path d="M45.3333 0.666626H8C4.68629 0.666626 2 3.35292 2 6.66663V25.3333C2 28.647 4.68629 31.3333 8 31.3333H45.3333C48.647 31.3333 51.3333 28.647 51.3333 25.3333V6.66663C51.3333 3.35292 48.647 0.666626 45.3333 0.666626Z" fill="white"/>
<path d="M45 1.33333C46.4145 1.33333 47.771 1.89524 48.7712 2.89543C49.7714 3.89562 50.3333 5.25218 50.3333 6.66667V25.3333C50.3333 26.7478 49.7714 28.1044 48.7712 29.1046C47.771 30.1048 46.4145 30.6667 45 30.6667H7.66667C6.25218 30.6667 4.89562 30.1048 3.89543 29.1046C2.89524 28.1044 2.33333 26.7478 2.33333 25.3333V6.66667C2.33333 5.25218 2.89524 3.89562 3.89543 2.89543C4.89562 1.89524 6.25218 1.33333 7.66667 1.33333H45ZM45 0H7.66667C5.89856 0 4.20286 0.702379 2.95262 1.95262C1.70238 3.20286 1 4.89856 1 6.66667L1 25.3333C1 27.1014 1.70238 28.7971 2.95262 30.0474C4.20286 31.2976 5.89856 32 7.66667 32H45C46.7681 32 48.4638 31.2976 49.714 30.0474C50.9643 28.7971 51.6667 27.1014 51.6667 25.3333V6.66667C51.6667 4.89856 50.9643 3.20286 49.714 1.95262C48.4638 0.702379 46.7681 0 45 0V0Z" fill="#EEEEEE"/>
<path d="M37.4159 16C37.4147 17.2854 37.0223 18.5401 36.2909 19.5972C35.5595 20.6544 34.5237 21.4639 33.3212 21.9183C32.1187 22.3726 30.8064 22.4503 29.5587 22.141C28.311 21.8317 27.187 21.1501 26.3359 20.1866C27.3576 19.0313 27.9216 17.5423 27.9216 16C27.9216 14.4577 27.3576 12.9686 26.3359 11.8133C27.187 10.8499 28.311 10.1682 29.5587 9.85892C30.8064 9.54962 32.1187 9.62731 33.3212 10.0817C34.5237 10.5361 35.5595 11.3456 36.2909 12.4027C37.0223 13.4598 37.4147 14.7145 37.4159 16V16Z" fill="#F79E1B"/>
<path d="M26.3328 20.1867C27.2091 20.1867 27.9194 18.3123 27.9194 16C27.9194 13.6878 27.2091 11.8134 26.3328 11.8134C25.4565 11.8134 24.7461 13.6878 24.7461 16C24.7461 18.3123 25.4565 20.1867 26.3328 20.1867Z" fill="#FF5F00"/>
<path d="M24.7488 16C24.7516 17.5419 25.3156 19.0302 26.3355 20.1866C25.4849 21.1521 24.3604 21.8356 23.1117 22.1461C21.8631 22.4566 20.5494 22.3794 19.3457 21.9248C18.142 21.4702 17.1053 20.6597 16.3736 19.6013C15.6419 18.5429 15.25 17.2867 15.25 16C15.25 14.7132 15.6419 13.4571 16.3736 12.3986C17.1053 11.3402 18.142 10.5297 19.3457 10.0751C20.5494 9.62048 21.8631 9.5433 23.1117 9.85382C24.3604 10.1643 25.4849 10.8478 26.3355 11.8133C25.3156 12.9698 24.7516 14.458 24.7488 16Z" fill="#EB001B"/>
</svg>
