<svg width="53" height="32" viewBox="0 0 53 32" fill="none" xmlns="http://www.w3.org/2000/svg">
<path d="M44.3333 0.666656H7C3.68629 0.666656 1 3.35295 1 6.66666V25.3333C1 28.647 3.68629 31.3333 7 31.3333H44.3333C47.647 31.3333 50.3333 28.647 50.3333 25.3333V6.66666C50.3333 3.35295 47.647 0.666656 44.3333 0.666656Z" fill="white"/>
<path d="M45 1.33333C46.4145 1.33333 47.771 1.89524 48.7712 2.89543C49.7714 3.89562 50.3333 5.25218 50.3333 6.66667V25.3333C50.3333 26.7478 49.7714 28.1044 48.7712 29.1046C47.771 30.1048 46.4145 30.6667 45 30.6667H7.66667C6.25218 30.6667 4.89562 30.1048 3.89543 29.1046C2.89524 28.1044 2.33333 26.7478 2.33333 25.3333V6.66667C2.33333 5.25218 2.89524 3.89562 3.89543 2.89543C4.89562 1.89524 6.25218 1.33333 7.66667 1.33333H45ZM45 0H7.66667C5.89856 0 4.20286 0.702379 2.95262 1.95262C1.70238 3.20286 1 4.89856 1 6.66667L1 25.3333C1 27.1014 1.70238 28.7971 2.95262 30.0474C4.20286 31.2976 5.89856 32 7.66667 32H45C46.7681 32 48.4638 31.2976 49.714 30.0474C50.9643 28.7971 51.6667 27.1014 51.6667 25.3333V6.66667C51.6667 4.89856 50.9643 3.20286 49.714 1.95262C48.4638 0.702379 46.7681 0 45 0V0Z" fill="#EEEEEE"/>
<path d="M15.8954 12C15.6309 11.7436 15.314 11.5476 14.9664 11.4256C14.6188 11.3036 14.2488 11.2585 13.8821 11.2933H11.2154C11.1223 11.2951 11.0326 11.3294 10.962 11.3903C10.8914 11.4511 10.8443 11.5347 10.8288 11.6266L9.64211 18.6666C9.63835 18.7003 9.64176 18.7344 9.65212 18.7667C9.66248 18.799 9.67956 18.8287 9.70223 18.8539C9.72491 18.8791 9.75266 18.8992 9.78366 18.9129C9.81467 18.9265 9.84822 18.9335 9.88211 18.9333H11.2154C11.2952 18.9299 11.3721 18.9026 11.4363 18.8551C11.5004 18.8076 11.5489 18.7419 11.5754 18.6666L11.8688 16.7466C11.8787 16.6547 11.9223 16.5697 11.9913 16.5081C12.0603 16.4466 12.1497 16.4128 12.2421 16.4133H13.1088C13.4921 16.4576 13.8805 16.4226 14.2497 16.3103C14.619 16.1981 14.9612 16.0111 15.2551 15.761C15.549 15.5109 15.7882 15.203 15.958 14.8565C16.1279 14.5099 16.2245 14.1321 16.2421 13.7466C16.3172 13.448 16.3251 13.1364 16.2651 12.8343C16.2052 12.5323 16.0789 12.2473 15.8954 12V12ZM14.2021 13.8533C14.0554 14.84 13.2954 14.84 12.5754 14.84H12.1621L12.4421 12.9866C12.4512 12.9324 12.4787 12.8829 12.52 12.8465C12.5613 12.8101 12.6138 12.7889 12.6688 12.7866H12.8554C13.3488 12.7866 13.8288 12.7866 14.0554 13.0666C14.1384 13.1778 14.1948 13.3065 14.2203 13.4429C14.2457 13.5793 14.2395 13.7197 14.2021 13.8533Z" fill="#253B80"/>
<path d="M22.1203 13.8133H20.787C20.7327 13.8163 20.6806 13.8358 20.6377 13.8691C20.5949 13.9025 20.5632 13.9482 20.547 14V14.3867L20.4536 14.24C20.2519 14.0369 20.0066 13.8821 19.7364 13.7874C19.4662 13.6928 19.1781 13.6606 18.8936 13.6933C18.1642 13.7102 17.4652 13.9889 16.9242 14.4785C16.3832 14.9681 16.0364 15.6359 15.947 16.36C15.8795 16.7156 15.8886 17.0814 15.9737 17.4332C16.0588 17.785 16.2178 18.1146 16.4403 18.4C16.6489 18.6309 16.9075 18.811 17.1964 18.9265C17.4852 19.0421 17.7967 19.09 18.107 19.0667C18.4451 19.0703 18.7803 19.0048 19.0922 18.8741C19.404 18.7434 19.6858 18.5503 19.9203 18.3067V18.6933C19.9165 18.7549 19.9365 18.8155 19.9763 18.8627C20.016 18.9099 20.0723 18.9399 20.1336 18.9467H21.3203C21.413 18.9509 21.5039 18.9205 21.5754 18.8614C21.6469 18.8022 21.6938 18.7185 21.707 18.6267L22.4136 14.08C22.4286 14.04 22.4313 13.9965 22.4213 13.955C22.4112 13.9135 22.389 13.8759 22.3574 13.8472C22.3258 13.8185 22.2863 13.7999 22.244 13.7939C22.2018 13.7878 22.1587 13.7946 22.1203 13.8133ZM18.787 17.6667C18.624 17.6757 18.4609 17.6494 18.3091 17.5895C18.1572 17.5297 18.02 17.4378 17.907 17.32C17.8096 17.1847 17.7405 17.0311 17.7038 16.8684C17.6672 16.7058 17.6637 16.5374 17.6936 16.3733C17.7358 16.0091 17.9094 15.6727 18.1818 15.4272C18.4543 15.1817 18.8069 15.0441 19.1736 15.04C19.3389 15.0325 19.5037 15.0622 19.656 15.1268C19.8083 15.1914 19.9442 15.2893 20.0536 15.4133C20.1627 15.5398 20.2401 15.6904 20.2795 15.8527C20.3189 16.015 20.3192 16.1843 20.2803 16.3467C20.2405 16.7132 20.0653 17.0516 19.7891 17.2957C19.5129 17.5399 19.1556 17.6722 18.787 17.6667Z" fill="#253B80"/>
<path d="M29.1371 13.8134H27.8038C27.7401 13.8125 27.6773 13.828 27.6213 13.8584C27.5652 13.8887 27.5179 13.9329 27.4838 13.9867L25.6571 16.6533L24.8838 14.0534C24.8587 13.9735 24.8092 13.9035 24.7422 13.8533C24.6752 13.803 24.5942 13.7751 24.5105 13.7733H23.1771C23.1404 13.7731 23.1041 13.7819 23.0715 13.7988C23.0388 13.8158 23.0108 13.8404 22.9898 13.8706C22.9688 13.9008 22.9555 13.9356 22.9509 13.9721C22.9464 14.0086 22.9508 14.0456 22.9638 14.08L24.4171 18.4L23.0838 20.3467C23.059 20.3807 23.0442 20.421 23.0411 20.463C23.0379 20.505 23.0465 20.547 23.0659 20.5844C23.0852 20.6218 23.1147 20.653 23.1508 20.6746C23.1869 20.6962 23.2284 20.7073 23.2705 20.7067H24.6038C24.6665 20.7102 24.729 20.6973 24.7851 20.6692C24.8412 20.6412 24.889 20.5989 24.9238 20.5467L29.3238 14.1334C29.3389 14.1003 29.3458 14.0642 29.344 14.0279C29.3422 13.9916 29.3317 13.9563 29.3134 13.925C29.2951 13.8936 29.2696 13.8671 29.2389 13.8477C29.2082 13.8282 29.1733 13.8165 29.1371 13.8134V13.8134Z" fill="#253B80"/>
<path d="M35.5338 12C35.2688 11.7444 34.9517 11.5489 34.6042 11.4269C34.2568 11.305 33.8871 11.2594 33.5204 11.2934H30.7604C30.6694 11.2931 30.5817 11.3274 30.5149 11.3892C30.4481 11.4511 30.4072 11.5359 30.4004 11.6267L29.2671 18.6667C29.2633 18.7004 29.2668 18.7345 29.2771 18.7668C29.2875 18.799 29.3046 18.8287 29.3272 18.8539C29.3499 18.8791 29.3777 18.8992 29.4087 18.9129C29.4397 18.9266 29.4732 18.9336 29.5071 18.9334H30.9204C30.9845 18.9305 31.0453 18.9046 31.0918 18.8606C31.1383 18.8165 31.1674 18.7571 31.1738 18.6934L31.4938 16.68C31.5064 16.5892 31.5509 16.5059 31.6192 16.4448C31.6876 16.3838 31.7755 16.349 31.8671 16.3467H32.7471C33.1298 16.387 33.5166 16.3492 33.8842 16.2355C34.2518 16.1217 34.5925 15.9345 34.8855 15.6851C35.1785 15.4357 35.4178 15.1294 35.5888 14.7847C35.7599 14.4401 35.8591 14.0642 35.8804 13.68C35.9397 13.3911 35.9395 13.0932 35.8799 12.8044C35.8203 12.5156 35.7025 12.2419 35.5338 12V12ZM33.8271 13.8934C33.6938 14.88 32.9338 14.88 32.2004 14.88H31.7871L32.0804 13.0267C32.0821 12.9987 32.0894 12.9712 32.1017 12.946C32.114 12.9208 32.1312 12.8982 32.1522 12.8796C32.1733 12.861 32.1978 12.8468 32.2244 12.8377C32.251 12.8286 32.2791 12.8249 32.3071 12.8267H32.5071C33.0004 12.8267 33.4671 12.8267 33.7071 13.1067C33.7797 13.2152 33.828 13.3381 33.8487 13.4669C33.8694 13.5958 33.862 13.7276 33.8271 13.8534V13.8934Z" fill="#179BD7"/>
<path d="M41.7513 13.8133H40.418C40.3626 13.8119 40.3084 13.8298 40.2646 13.8638C40.2209 13.8978 40.1903 13.9459 40.178 14V14.3866L40.0846 14.24C39.8861 14.0363 39.6433 13.881 39.3751 13.7862C39.1069 13.6914 38.8204 13.6596 38.538 13.6933C37.8085 13.7102 37.1095 13.9889 36.5686 14.4785C36.0276 14.968 35.6807 15.6359 35.5913 16.36C35.5166 16.7153 35.5221 17.0828 35.6074 17.4357C35.6928 17.7886 35.8558 18.1181 36.0846 18.4C36.2899 18.6314 36.546 18.812 36.8329 18.9277C37.1198 19.0434 37.4296 19.0909 37.738 19.0666C38.078 19.0697 38.4151 19.004 38.729 18.8734C39.0429 18.7428 39.3272 18.55 39.5646 18.3066V18.6933C39.5609 18.7252 39.5639 18.7576 39.5736 18.7883C39.5833 18.8189 39.5994 18.8472 39.6208 18.8711C39.6422 18.8951 39.6685 18.9142 39.6979 18.9272C39.7273 18.9402 39.7592 18.9469 39.7913 18.9466H40.978C41.0684 18.9476 41.1561 18.9156 41.2248 18.8568C41.2934 18.7979 41.3384 18.7162 41.3513 18.6266L42.0046 14.08C42.0113 14.0447 42.0095 14.0083 41.9993 13.9738C41.9892 13.9394 41.971 13.9078 41.9462 13.8818C41.9215 13.8557 41.8909 13.8359 41.857 13.824C41.8231 13.8121 41.7869 13.8085 41.7513 13.8133ZM38.4313 17.6666C38.2662 17.6767 38.1009 17.6509 37.9467 17.5911C37.7925 17.5313 37.6531 17.4388 37.538 17.32C37.44 17.1851 37.3716 17.0311 37.3371 16.868C37.3026 16.7048 37.3029 16.5363 37.338 16.3733C37.3742 16.009 37.5443 15.6711 37.8151 15.4249C38.086 15.1786 38.4386 15.0415 38.8046 15.04C38.9744 15.025 39.1452 15.0515 39.3024 15.1171C39.4597 15.1827 39.5987 15.2854 39.7075 15.4165C39.8163 15.5476 39.8917 15.7032 39.9272 15.8698C39.9627 16.0365 39.9573 16.2092 39.9113 16.3733C39.8713 16.735 39.6971 17.0686 39.4231 17.3081C39.149 17.5476 38.7951 17.6755 38.4313 17.6666V17.6666Z" fill="#179BD7"/>
<path d="M44.8021 11.2534H43.4688C43.4143 11.2495 43.3604 11.2668 43.3182 11.3015C43.276 11.3362 43.2488 11.3858 43.2421 11.44L42.1754 18.6667C42.1695 18.6996 42.171 18.7335 42.1797 18.7658C42.1884 18.7981 42.2042 18.828 42.2258 18.8535C42.2475 18.879 42.2745 18.8994 42.305 18.9132C42.3355 18.927 42.3687 18.9339 42.4021 18.9334H43.5354C43.6259 18.9343 43.7136 18.9024 43.7822 18.8435C43.8509 18.7846 43.8959 18.7029 43.9088 18.6134L45.0288 11.5067C45.0326 11.4748 45.0295 11.4424 45.0198 11.4117C45.0101 11.3811 44.994 11.3528 44.9726 11.3289C44.9512 11.3049 44.9249 11.2858 44.8955 11.2728C44.8661 11.2598 44.8343 11.2531 44.8021 11.2534Z" fill="#179BD7"/>
</svg>
