<svg width="15" height="15" viewBox="0 0 15 15" fill="none" xmlns="http://www.w3.org/2000/svg">
<g clip-path="url(#clip0_617_309)">
<path d="M15.0016 3.53509C14.4661 3.76999 13.8955 3.92569 13.3006 4.00129C13.9126 3.63589 14.3797 3.06169 14.5993 2.36959C14.0287 2.70979 13.3987 2.95009 12.7273 3.08419C12.1855 2.50729 11.4133 2.14999 10.5709 2.14999C8.93646 2.14999 7.62066 3.47659 7.62066 5.10289C7.62066 5.33689 7.64046 5.56189 7.68906 5.77609C5.23476 5.65639 3.06306 4.48009 1.60416 2.68819C1.34946 3.13009 1.20006 3.63589 1.20006 4.18039C1.20006 5.20279 1.72656 6.10909 2.51136 6.63379C2.03706 6.62479 1.57176 6.48709 1.17756 6.27019C1.17756 6.27919 1.17756 6.29089 1.17756 6.30259C1.17756 7.73719 2.20086 8.92879 3.54276 9.20329C3.30246 9.26899 3.04056 9.30049 2.76876 9.30049C2.57976 9.30049 2.38896 9.28969 2.20986 9.25009C2.59236 10.4192 3.67776 11.2787 4.96836 11.3066C3.96396 12.0923 2.68866 12.5657 1.30806 12.5657C1.06596 12.5657 0.833762 12.5549 0.601562 12.5252C1.90926 13.3685 3.45906 13.85 5.13036 13.85C10.5628 13.85 13.5328 9.34999 13.5328 5.44939C13.5328 5.31889 13.5283 5.19289 13.522 5.06779C14.1079 4.65199 14.6002 4.13269 15.0016 3.53509Z" fill="white"/>
</g>
<defs>
<clipPath id="clip0_617_309">
<rect width="14.4" height="14.4" fill="white" transform="translate(0.601562)"/>
</clipPath>
</defs>
</svg>
