<svg width="53" height="32" viewBox="0 0 53 32" fill="none" xmlns="http://www.w3.org/2000/svg">
<path d="M45 0H7.66667C3.98477 0 1 2.98477 1 6.66667V25.3333C1 29.0152 3.98477 32 7.66667 32H45C48.6819 32 51.6667 29.0152 51.6667 25.3333V6.66667C51.6667 2.98477 48.6819 0 45 0Z" fill="#122A96"/>
<path d="M23.08 11.16L19.2533 20.3467H16.7333L14.88 13.08C14.865 12.9076 14.8056 12.742 14.7074 12.5994C14.6092 12.4568 14.4758 12.3422 14.32 12.2667C13.5809 11.9127 12.802 11.6486 12 11.48V11.2133H16C16.2647 11.2165 16.5198 11.3132 16.7199 11.4865C16.9201 11.6598 17.0524 11.8984 17.0933 12.16L18.08 17.4933L20.5333 11.24L23.08 11.16ZM32.8533 17.3467C32.8533 14.9333 29.52 14.8 29.5467 13.7067C29.5467 13.3867 29.8667 13.0267 30.5467 12.9467C31.3463 12.8657 32.153 13.004 32.88 13.3467L33.2933 11.4C32.584 11.1405 31.8353 11.0052 31.08 11C28.7467 11 27.08 12.24 27.08 14.04C27.08 15.3733 28.2533 16.0933 29.1467 16.5333C30.04 16.9733 30.3733 17.28 30.3733 17.68C30.3733 18.2933 29.64 18.56 28.96 18.5733C28.1151 18.5956 27.2789 18.398 26.5333 18L26.0667 20.0133C26.9173 20.3403 27.8221 20.5032 28.7333 20.4933C31.2133 20.4933 32.8267 19.2667 32.84 17.3467H32.8533ZM39 20.3467H41.1733L39.28 11.16H37.28C37.0626 11.1598 36.8501 11.2243 36.6696 11.3455C36.4891 11.4666 36.3488 11.6388 36.2667 11.84L32.7333 20.3467H35.2133L35.6933 19.0133H38.72L39 20.3467ZM36.3333 17.0933L37.5867 13.6533L38.3333 17.08L36.3333 17.0933ZM26.4133 11.16L24.4667 20.3467H22.1467L24.0933 11.16H26.4133Z" fill="white"/>
</svg>
