<svg width="32" height="32" viewBox="0 0 32 32" fill="none" xmlns="http://www.w3.org/2000/svg">
<circle cx="16" cy="16" r="16" fill="#3966FE"/>
<g clip-path="url(#clip0_431_378)">
<path d="M22.2272 9H9.77214C9.34564 9.00021 8.99989 9.34618 9 9.77278V22.2279C9.00021 22.6544 9.34618 23.0001 9.77278 23H22.2272C22.6539 23.0001 22.9999 22.6543 23 22.2275C23 22.2274 23 22.2273 23 22.2272V9.77214C22.9998 9.34564 22.6538 8.99989 22.2272 9V9Z" fill="white"/>
<path d="M18.666 23.0002V17.5861H20.4912L20.7646 15.467H18.666V14.1173C18.666 13.5052 18.836 13.0881 19.7137 13.0881H20.8262V11.1978C20.6326 11.1721 19.9686 11.1145 19.1959 11.1145C17.5826 11.1145 16.4785 12.0989 16.4785 13.9074V15.467H14.6602V17.5861H16.4785V23.0002H18.666Z" fill="#3966FE"/>
</g>
<defs>
<clipPath id="clip0_431_378">
<rect width="14" height="14" fill="white" transform="translate(9 9)"/>
</clipPath>
</defs>
</svg>
