<svg width="33" height="32" viewBox="0 0 33 32" fill="none" xmlns="http://www.w3.org/2000/svg">
<circle cx="16.3984" cy="16" r="16" fill="#A738FF"/>
<g clip-path="url(#clip0_431_383)">
<path d="M22.9871 13.116C22.9543 12.3722 22.834 11.8608 22.6617 11.4176C22.4839 10.9472 22.2104 10.5261 21.8521 10.176C21.502 9.82047 21.0781 9.5442 20.6132 9.36921C20.1675 9.19689 19.6587 9.0766 18.9149 9.0438C18.1654 9.00823 17.9275 9 16.0268 9C14.126 9 13.8881 9.00823 13.1414 9.04102C12.3976 9.07382 11.8861 9.19422 11.4431 9.36644C10.9726 9.5442 10.5515 9.8177 10.2014 10.176C9.84586 10.5261 9.5697 10.95 9.3946 11.4149C9.22228 11.8608 9.10199 12.3694 9.06919 13.1133C9.03362 13.8627 9.02539 14.1006 9.02539 16.0014C9.02539 17.9021 9.03362 18.14 9.06641 18.8867C9.09921 19.6306 9.21961 20.142 9.39193 20.5851C9.5697 21.0555 9.84586 21.4766 10.2014 21.8267C10.5515 22.1823 10.9754 22.4585 11.4403 22.6335C11.8861 22.8058 12.3948 22.9261 13.1388 22.9589C13.8853 22.9918 14.1233 23 16.0241 23C17.9248 23 18.1628 22.9918 18.9094 22.9589C19.6533 22.9261 20.1647 22.8058 20.6077 22.6335C21.5486 22.2698 22.2925 21.5259 22.6562 20.5851C22.8285 20.1393 22.9489 19.6306 22.9817 18.8867C23.0144 18.14 23.0227 17.9021 23.0227 16.0014C23.0227 14.1006 23.0199 13.8627 22.9871 13.116ZM21.7264 18.832C21.6962 19.5157 21.5814 19.8849 21.4857 20.1311C21.2504 20.741 20.7664 21.225 20.1565 21.4603C19.9103 21.556 19.5384 21.6709 18.8574 21.7009C18.119 21.7338 17.8975 21.7419 16.0295 21.7419C14.1616 21.7419 13.9373 21.7338 13.2016 21.7009C12.5178 21.6709 12.1486 21.556 11.9025 21.4603C11.599 21.3481 11.3227 21.1703 11.0985 20.9379C10.866 20.7109 10.6882 20.4374 10.5761 20.1339C10.4803 19.8877 10.3655 19.5157 10.3355 18.8348C10.3026 18.0963 10.2945 17.8748 10.2945 16.0068C10.2945 14.1389 10.3026 13.9146 10.3355 13.179C10.3655 12.4952 10.4803 12.126 10.5761 11.8799C10.6882 11.5763 10.866 11.3001 11.1013 11.0758C11.3282 10.8433 11.6017 10.6655 11.9053 10.5534C12.1514 10.4577 12.5234 10.3429 13.2044 10.3128C13.9428 10.28 14.1643 10.2717 16.0322 10.2717C17.9029 10.2717 18.1244 10.28 18.8602 10.3128C19.5439 10.3429 19.9131 10.4577 20.1592 10.5534C20.4628 10.6655 20.739 10.8433 20.9633 11.0758C21.1957 11.3028 21.3735 11.5763 21.4857 11.8799C21.5814 12.126 21.6962 12.4979 21.7264 13.179C21.7592 13.9174 21.7674 14.1389 21.7674 16.0068C21.7674 17.8748 21.7592 18.0936 21.7264 18.832Z" fill="white"/>
<path d="M16.0251 12.405C14.0396 12.405 12.4287 14.0158 12.4287 16.0014C12.4287 17.987 14.0396 19.5978 16.0251 19.5978C18.0107 19.5978 19.6215 17.987 19.6215 16.0014C19.6215 14.0158 18.0107 12.405 16.0251 12.405ZM16.0251 18.3343C14.737 18.3343 13.6922 17.2896 13.6922 16.0014C13.6922 14.7132 14.737 13.6685 16.0251 13.6685C17.3133 13.6685 18.358 14.7132 18.358 16.0014C18.358 17.2896 17.3133 18.3343 16.0251 18.3343Z" fill="white"/>
<path d="M20.6041 12.2627C20.6041 12.7263 20.2282 13.1023 19.7644 13.1023C19.3007 13.1023 18.9248 12.7263 18.9248 12.2627C18.9248 11.7989 19.3007 11.4231 19.7644 11.4231C20.2282 11.4231 20.6041 11.7989 20.6041 12.2627Z" fill="white"/>
</g>
<defs>
<clipPath id="clip0_431_383">
<rect width="14" height="14" fill="white" transform="translate(9 9)"/>
</clipPath>
</defs>
</svg>
