<svg width="33" height="32" viewBox="0 0 33 32" fill="none" xmlns="http://www.w3.org/2000/svg">
<circle cx="16.7969" cy="16" r="16" fill="#44A5FF"/>
<path d="M24 12.1914C23.4794 12.4034 22.9246 12.544 22.3462 12.6122C22.9412 12.2824 23.3954 11.764 23.6089 11.1392C23.0541 11.4463 22.4416 11.6632 21.7889 11.7843C21.2621 11.2635 20.5114 10.9409 19.6924 10.9409C18.1034 10.9409 16.8241 12.1385 16.8241 13.6067C16.8241 13.818 16.8434 14.0211 16.8906 14.2145C14.5045 14.1064 12.3931 13.0445 10.9747 11.4268C10.7271 11.8257 10.5819 12.2824 10.5819 12.7739C10.5819 13.6969 11.0938 14.5151 11.8568 14.9888C11.3956 14.9807 10.9433 14.8564 10.56 14.6605C10.56 14.6687 10.56 14.6792 10.56 14.6898C10.56 15.9849 11.5549 17.0607 12.8595 17.3085C12.6259 17.3678 12.3712 17.3962 12.107 17.3962C11.9232 17.3962 11.7377 17.3865 11.5636 17.3507C11.9355 18.4062 12.9908 19.1821 14.2455 19.2073C13.269 19.9166 12.0291 20.344 10.6869 20.344C10.4515 20.344 10.2257 20.3342 10 20.3074C11.2714 21.0687 12.7781 21.5034 14.403 21.5034C19.6845 21.5034 22.572 17.4409 22.572 13.9195C22.572 13.8017 22.5676 13.688 22.5615 13.575C23.1311 13.1997 23.6097 12.7309 24 12.1914Z" fill="white"/>
</svg>
