<?xml version="1.0" encoding="iso-8859-1"?>
<!-- Generator: Adobe Illustrator 19.0.0, SVG Export Plug-In . SVG Version: 6.00 Build 0)  -->
<svg version="1.1" id="Capa_1" xmlns="http://www.w3.org/2000/svg" xmlns:xlink="http://www.w3.org/1999/xlink" x="0px" y="0px"
	 viewBox="0 0 121.669 121.669" style="enable-background:new 0 0 121.669 121.669;" xml:space="preserve">
<g>
	<path d="M60.834,121.669C27.291,121.669,0,94.379,0,60.834C0,27.29,27.291,0,60.834,0s60.834,27.29,60.834,60.834
		C121.669,94.379,94.378,121.669,60.834,121.669z M60.834,6C30.599,6,6,30.599,6,60.834c0,30.236,24.599,54.835,54.834,54.835
		s54.834-24.599,54.834-54.835C115.669,30.599,91.07,6,60.834,6z"/>
	<path d="M60.638,100.436c-10.041,0-18.209-7.281-18.209-16.231h6c0,5.642,5.477,10.231,12.209,10.231
		c6.731,0,12.207-4.59,12.207-10.231h6C78.844,93.154,70.676,100.436,60.638,100.436z"/>
	<rect x="17.101" y="56.835" width="19.07" height="6"/>
	<rect x="85.1" y="56.835" width="19.07" height="6"/>
</g>
<g>
</g>
<g>
</g>
<g>
</g>
<g>
</g>
<g>
</g>
<g>
</g>
<g>
</g>
<g>
</g>
<g>
</g>
<g>
</g>
<g>
</g>
<g>
</g>
<g>
</g>
<g>
</g>
<g>
</g>
</svg>
