<svg width="580" height="380" viewBox="0 0 580 380" fill="none" xmlns="http://www.w3.org/2000/svg">
<circle cx="290" cy="191" r="289.4" stroke="black" stroke-opacity="0.05" stroke-width="1.2"/>
<path opacity="0.4" d="M430.62 277.635C381.696 362.374 272.935 391.517 188.195 342.592C130.337 309.188 96.4862 247.076 99.8603 180.506C100.08 176.124 103.868 172.629 108.335 172.861C112.775 173.077 116.204 176.883 115.966 181.328C112.899 241.816 143.671 298.257 196.261 328.62C273.303 373.1 372.168 346.609 416.648 269.568C461.128 192.526 434.637 93.661 357.596 49.1811C305.103 18.8744 240.87 20.3895 189.97 53.1494C186.225 55.57 181.223 54.4892 178.824 50.7384C176.412 46.9795 177.506 41.9856 181.249 39.6009C237.241 3.53982 307.916 1.86941 365.662 35.2091C450.402 84.1338 479.545 192.895 430.62 277.635Z" fill="#EDF1F6"/>
<path opacity="0.09" d="M343.922 68.9493C409.767 106.965 432.412 191.476 394.396 257.322C368.44 302.279 320.177 328.583 268.45 325.961C265.045 325.79 262.329 322.847 262.509 319.375C262.677 315.926 265.634 313.261 269.088 313.446C316.09 315.829 359.946 291.918 383.539 251.054C418.102 191.19 397.517 114.368 337.654 79.806C277.79 45.2436 200.968 65.828 166.406 125.692C142.857 166.48 144.034 216.391 169.489 255.943C171.37 258.853 170.53 262.739 167.616 264.603C164.695 266.478 160.815 265.627 158.962 262.719C130.941 219.211 129.643 164.294 155.549 119.424C193.565 53.5778 278.076 30.9332 343.922 68.9493Z" fill="url(#paint0_linear_1891_729)"/>
<defs>
<linearGradient id="paint0_linear_1891_729" x1="213.424" y1="294.978" x2="343.922" y2="68.9493" gradientUnits="userSpaceOnUse">
<stop stop-color="white"/>
<stop offset="1" stop-color="#282E5F"/>
</linearGradient>
</defs>
</svg>
