<svg width="580" height="210" viewBox="0 0 580 210" fill="none" xmlns="http://www.w3.org/2000/svg">
<circle cx="290" cy="109" r="289.4" stroke="black" stroke-opacity="0.05" stroke-width="1.2"/>
<path opacity="0.05" d="M430.62 195.635C381.696 280.374 272.935 309.517 188.195 260.592C130.337 227.188 96.4862 165.076 99.8603 98.5059C100.08 94.1245 103.868 90.6293 108.335 90.8614C112.775 91.0772 116.204 94.8826 115.966 99.3281C112.899 159.816 143.671 216.257 196.261 246.62C273.303 291.1 372.168 264.609 416.648 187.568C461.128 110.526 434.637 11.661 357.596 -32.8189C305.103 -63.1256 240.87 -61.6105 189.97 -28.8506C186.225 -26.43 181.223 -27.5108 178.824 -31.2616C176.412 -35.0205 177.506 -40.0144 181.249 -42.3991C237.241 -78.4602 307.916 -80.1306 365.662 -46.7909C450.402 2.13379 479.545 110.895 430.62 195.635Z" fill="#282E5F"/>
<path opacity="0.06" d="M343.922 -13.0507C409.767 24.9653 432.412 109.476 394.396 175.322C368.44 220.279 320.177 246.583 268.45 243.961C265.045 243.79 262.329 240.847 262.509 237.375C262.677 233.926 265.634 231.261 269.088 231.446C316.09 233.829 359.946 209.918 383.539 169.054C418.102 109.19 397.517 32.3683 337.654 -2.19405C277.79 -36.7564 200.968 -16.172 166.406 43.6917C142.857 84.4803 144.034 134.391 169.489 173.943C171.37 176.853 170.53 180.739 167.616 182.603C164.695 184.478 160.815 183.627 158.962 180.719C130.941 137.211 129.643 82.2943 155.549 37.4236C193.565 -28.4222 278.076 -51.0668 343.922 -13.0507Z" fill="url(#paint0_linear_1891_730)"/>
<defs>
<linearGradient id="paint0_linear_1891_730" x1="213.424" y1="212.978" x2="343.922" y2="-13.0507" gradientUnits="userSpaceOnUse">
<stop stop-color="#FFD335"/>
<stop offset="1" stop-color="#282E5F"/>
</linearGradient>
</defs>
</svg>
