<svg width="712" height="931" viewBox="0 0 712 931" fill="none" xmlns="http://www.w3.org/2000/svg">
<circle cx="465.5" cy="465.5" r="464.9" stroke="black" stroke-opacity="0.05" stroke-width="1.2"/>
<path opacity="0.9" d="M691.219 604.564C612.687 740.586 438.107 787.364 302.084 708.832C209.213 655.212 154.876 555.512 160.292 448.655C160.645 441.622 166.725 436.012 173.896 436.384C181.022 436.731 186.526 442.839 186.144 449.975C181.222 547.069 230.616 637.666 315.033 686.404C438.698 757.802 597.394 715.28 668.792 591.615C740.19 467.95 697.667 309.254 574.002 237.856C489.742 189.209 386.638 191.641 304.934 244.226C298.922 248.112 290.893 246.377 287.043 240.356C283.17 234.322 284.928 226.306 290.936 222.479C380.812 164.594 494.258 161.913 586.951 215.429C722.973 293.961 769.752 468.541 691.219 604.564Z" fill="#EDF1F6"/>
<path opacity="0.09" d="M552.053 269.587C657.747 330.61 694.095 466.264 633.073 571.958C591.409 644.123 513.939 686.344 430.907 682.135C425.442 681.861 421.083 677.137 421.372 671.565C421.642 666.027 426.388 661.75 431.933 662.047C507.378 665.872 577.775 627.491 615.646 561.897C671.125 465.805 638.083 342.493 541.992 287.014C445.9 231.536 322.588 264.577 267.11 360.669C229.309 426.141 231.198 506.257 272.059 569.744C275.078 574.415 273.73 580.654 269.052 583.646C264.364 586.655 258.135 585.289 255.16 580.621C210.182 510.784 208.099 422.633 249.683 350.607C310.705 244.914 446.359 208.565 552.053 269.587Z" fill="url(#paint0_linear_1877_726)"/>
<defs>
<linearGradient id="paint0_linear_1877_726" x1="342.582" y1="632.402" x2="552.053" y2="269.587" gradientUnits="userSpaceOnUse">
<stop stop-color="white"/>
<stop offset="1" stop-color="#282E5F"/>
</linearGradient>
</defs>
</svg>
