<svg width="48" height="48" viewBox="0 0 48 48" fill="none" xmlns="http://www.w3.org/2000/svg">
<rect width="48" height="48" rx="20" fill="#FF8B35"/>
<g clip-path="url(#clip0_617_469)">
<path d="M14.1651 34.6658C14.0577 34.6658 13.9495 34.6451 13.8464 34.6024C13.5351 34.4734 13.332 34.1696 13.332 33.8326L13.3325 24.101C13.2666 14.5727 24.8618 9.72823 31.5792 16.4814C38.2253 23.2248 33.4269 34.6742 23.9481 34.6658C22.2691 34.6659 20.6662 34.2893 19.1841 33.5465C17.7678 32.8368 16.0532 33.123 14.9174 34.2588L14.7545 34.4218C14.5951 34.5812 14.3819 34.6658 14.1651 34.6658ZM17.551 31.4933C18.3602 31.4933 19.1742 31.6775 19.9307 32.0567C21.1813 32.6835 22.5367 33.0007 23.9575 32.9994C31.9225 33.0111 36.0043 23.2815 30.395 17.654C24.7052 11.96 14.9577 16.0383 14.9989 24.0889C14.9989 24.0916 14.999 24.0943 14.999 24.097L14.9986 32.1406C15.7882 31.7136 16.6666 31.4933 17.551 31.4933ZM21.4978 24.0003C21.4978 24.5756 21.0315 25.0419 20.4563 25.0419C19.0747 24.987 19.075 23.0134 20.4563 22.9588C21.0315 22.9588 21.4978 23.4251 21.4978 24.0003ZM24.0392 22.9588C23.464 22.9588 22.9976 23.4251 22.9976 24.0003C23.0525 25.3819 25.0261 25.3816 25.0807 24.0003C25.0807 23.4251 24.6144 22.9588 24.0392 22.9588ZM27.6221 22.9588C27.0469 22.9588 26.5806 23.4251 26.5806 24.0003C26.6355 25.3819 28.609 25.3816 28.6637 24.0003C28.6637 23.4251 28.1974 22.9588 27.6221 22.9588Z" fill="white"/>
</g>
<defs>
<clipPath id="clip0_617_469">
<rect width="21.3333" height="21.3333" fill="white" transform="translate(13.332 13.3333)"/>
</clipPath>
</defs>
</svg>
