<svg width="48" height="48" viewBox="0 0 48 48" fill="none" xmlns="http://www.w3.org/2000/svg">
<rect width="48" height="48" rx="20" fill="#FF8B35"/>
<path d="M29.6654 32.8333H18.332C15.575 32.8333 13.332 30.5903 13.332 27.8333V21C13.332 18.243 15.575 16 18.332 16H29.6654C32.4224 16 34.6654 18.243 34.6654 21V27.8333C34.6654 30.5903 32.4224 32.8333 29.6654 32.8333ZM18.332 17.6667C16.494 17.6667 14.9987 19.162 14.9987 21V27.8333C14.9987 29.6713 16.494 31.1667 18.332 31.1667H29.6654C31.5034 31.1667 32.9987 29.6713 32.9987 27.8333V21C32.9987 19.162 31.5034 17.6667 29.6654 17.6667H18.332ZM27.0523 25.8919L31.1712 22.7456C31.537 22.4662 31.607 21.9433 31.3276 21.5775C31.0482 21.2118 30.5253 21.1417 30.1595 21.4211L26.0411 24.5671C24.8519 25.4741 23.1911 25.4748 22.0011 24.5694L18.0102 21.4671C17.6468 21.1846 17.1232 21.2502 16.8408 21.6136C16.5584 21.977 16.6239 22.5005 16.9873 22.783L20.9813 25.8876C20.9833 25.8892 20.9853 25.8908 20.9874 25.8923C21.88 26.5731 22.9496 26.9135 24.0194 26.9135C25.0893 26.9135 26.1593 26.5729 27.0523 25.8919Z" fill="white"/>
</svg>
