<svg width="16" height="15" viewBox="0 0 16 15" fill="none" xmlns="http://www.w3.org/2000/svg">
<g clip-path="url(#clip0_617_298)">
<path d="M14.4059 0.600006H1.59498C1.1563 0.600226 0.800671 0.956073 0.800781 1.39487V14.2058C0.801001 14.6445 1.15685 15.0001 1.59564 15H14.4059C14.8448 15.0001 15.2007 14.6444 15.2008 14.2055C15.2008 14.2054 15.2008 14.2053 15.2008 14.2051V1.39421C15.2006 0.955524 14.8447 0.599896 14.4059 0.600006V0.600006Z" fill="white"/>
<path d="M10.7414 15.0002V9.43144H12.6188L12.9 7.25175H10.7414V5.86352C10.7414 5.23389 10.9162 4.80488 11.8191 4.80488H12.9633V2.86063C12.7642 2.83415 12.0812 2.77493 11.2864 2.77493C9.62706 2.77493 8.49141 3.78743 8.49141 5.64764V7.25175H6.62109V9.43144H8.49141V15.0002H10.7414Z" fill="#326BFF"/>
</g>
<defs>
<clipPath id="clip0_617_298">
<rect width="14.4" height="14.4" fill="white" transform="translate(0.800781 0.600006)"/>
</clipPath>
</defs>
</svg>
