<svg width="16" height="16" viewBox="0 0 16 16" fill="none" xmlns="http://www.w3.org/2000/svg">
<g clip-path="url(#clip0_617_303)">
<path d="M15.1848 5.03364C15.1511 4.26851 15.0274 3.7425 14.8501 3.28669C14.6673 2.80287 14.386 2.36971 14.0174 2.00961C13.6573 1.64392 13.2213 1.35976 12.7431 1.17976C12.2846 1.00252 11.7614 0.87879 10.9962 0.845056C10.2254 0.808464 9.98069 0.800003 8.02562 0.800003C6.07055 0.800003 5.82584 0.808464 5.05786 0.842199C4.29273 0.875933 3.76671 0.999774 3.31102 1.17691C2.82709 1.35976 2.39392 1.64106 2.03383 2.00961C1.66813 2.36971 1.38408 2.80573 1.20398 3.28395C1.02674 3.7425 0.903006 4.26566 0.869271 5.03079C0.83268 5.80163 0.824219 6.04634 0.824219 8.00141C0.824219 9.95648 0.83268 10.2012 0.866414 10.9692C0.900149 11.7343 1.02399 12.2603 1.20123 12.7161C1.38408 13.1999 1.66813 13.6331 2.03383 13.9932C2.39392 14.3589 2.82994 14.6431 3.30816 14.8231C3.76671 15.0003 4.28987 15.124 5.05511 15.1578C5.82298 15.1916 6.06781 15.2 8.02288 15.2C9.97795 15.2 10.2227 15.1916 10.9906 15.1578C11.7558 15.124 12.2818 15.0003 12.7375 14.8231C13.7052 14.4489 14.4704 13.6838 14.8445 12.7161C15.0217 12.2576 15.1455 11.7343 15.1792 10.9692C15.213 10.2012 15.2214 9.95648 15.2214 8.00141C15.2214 6.04634 15.2186 5.80163 15.1848 5.03364ZM13.8881 10.9129C13.8571 11.6162 13.739 11.9959 13.6405 12.2491C13.3985 12.8764 12.9007 13.3743 12.2733 13.6163C12.0202 13.7148 11.6376 13.8329 10.9371 13.8638C10.1776 13.8976 9.94981 13.906 8.02848 13.906C6.10715 13.906 5.8765 13.8976 5.11972 13.8638C4.41646 13.8329 4.0367 13.7148 3.78352 13.6163C3.47134 13.5009 3.18718 13.3181 2.95653 13.079C2.71742 12.8455 2.53457 12.5642 2.4192 12.252C2.32074 11.9988 2.20261 11.6162 2.17173 10.9158C2.13789 10.1562 2.12954 9.92835 2.12954 8.00701C2.12954 6.08568 2.13789 5.85503 2.17173 5.09836C2.20261 4.3951 2.32074 4.01534 2.4192 3.76217C2.53457 3.44987 2.71742 3.16582 2.95939 2.93506C3.19278 2.69595 3.47409 2.51311 3.78638 2.39784C4.03956 2.29938 4.42217 2.18125 5.12258 2.15027C5.8821 2.11653 6.11 2.10807 8.03123 2.10807C9.95542 2.10807 10.1832 2.11653 10.94 2.15027C11.6432 2.18125 12.023 2.29938 12.2762 2.39784C12.5884 2.51311 12.8725 2.69595 13.1032 2.93506C13.3423 3.16857 13.5251 3.44987 13.6405 3.76217C13.739 4.01534 13.8571 4.39785 13.8881 5.09836C13.9218 5.85789 13.9303 6.08568 13.9303 8.00701C13.9303 9.92835 13.9218 10.1534 13.8881 10.9129Z" fill="white"/>
<path d="M8.02729 4.30246C5.98508 4.30246 4.32812 5.9593 4.32812 8.00162C4.32812 10.0439 5.98508 11.7008 8.02729 11.7008C10.0696 11.7008 11.7264 10.0439 11.7264 8.00162C11.7264 5.9593 10.0696 4.30246 8.02729 4.30246ZM8.02729 10.4012C6.7024 10.4012 5.62773 9.32661 5.62773 8.00162C5.62773 6.67663 6.7024 5.60207 8.02729 5.60207C9.35228 5.60207 10.4268 6.67663 10.4268 8.00162C10.4268 9.32661 9.35228 10.4012 8.02729 10.4012Z" fill="white"/>
<path d="M12.7351 4.15619C12.7351 4.63309 12.3484 5.01977 11.8714 5.01977C11.3945 5.01977 11.0078 4.63309 11.0078 4.15619C11.0078 3.67918 11.3945 3.2926 11.8714 3.2926C12.3484 3.2926 12.7351 3.67918 12.7351 4.15619V4.15619Z" fill="white"/>
</g>
<defs>
<clipPath id="clip0_617_303">
<rect width="14.4" height="14.4" fill="white" transform="translate(0.800781 0.800003)"/>
</clipPath>
</defs>
</svg>
