<svg width="48" height="48" viewBox="0 0 48 48" fill="none" xmlns="http://www.w3.org/2000/svg">
<g clip-path="url(#clip0_547_847)">
<rect width="48" height="48" rx="24" fill="#136EFC"/>
<circle cx="221" cy="237" r="279" fill="url(#paint0_linear_547_847)"/>
<circle cx="322" cy="94" r="290" fill="url(#paint1_linear_547_847)"/>
<circle cx="24" cy="24" r="20" fill="#EFF3F9"/>
<path d="M19.7225 21.02C19.8025 19.78 20.2758 18.8133 21.1425 18.12C22.0225 17.4267 23.1425 17.08 24.5025 17.08C25.4358 17.08 26.2425 17.2467 26.9225 17.58C27.6025 17.9133 28.1158 18.3667 28.4625 18.94C28.8092 19.5133 28.9825 20.16 28.9825 20.88C28.9825 21.7067 28.7625 22.4133 28.3225 23C27.8825 23.5867 27.3558 23.98 26.7425 24.18V24.26C27.5292 24.5 28.1425 24.94 28.5825 25.58C29.0225 26.2067 29.2425 27.0133 29.2425 28C29.2425 28.7867 29.0625 29.4867 28.7025 30.1C28.3425 30.7133 27.8092 31.2 27.1025 31.56C26.3958 31.9067 25.5492 32.08 24.5625 32.08C23.1225 32.08 21.9358 31.7133 21.0025 30.98C20.0825 30.2333 19.5892 29.1667 19.5225 27.78H21.7225C21.7758 28.4867 22.0492 29.0667 22.5425 29.52C23.0358 29.96 23.7025 30.18 24.5425 30.18C25.3558 30.18 25.9825 29.96 26.4225 29.52C26.8625 29.0667 27.0825 28.4867 27.0825 27.78C27.0825 26.8467 26.7825 26.1867 26.1825 25.8C25.5958 25.4 24.6892 25.2 23.4625 25.2H22.9425V23.32H23.4825C24.5625 23.3067 25.3825 23.1267 25.9425 22.78C26.5158 22.4333 26.8025 21.8867 26.8025 21.14C26.8025 20.5 26.5958 19.9933 26.1825 19.62C25.7692 19.2333 25.1825 19.04 24.4225 19.04C23.6758 19.04 23.0958 19.2333 22.6825 19.62C22.2692 19.9933 22.0225 20.46 21.9425 21.02H19.7225Z" fill="black"/>
</g>
<defs>
<linearGradient id="paint0_linear_547_847" x1="59.8534" y1="486.176" x2="380.222" y2="486.176" gradientUnits="userSpaceOnUse">
<stop stop-color="#FF7611"/>
<stop offset="1" stop-color="white" stop-opacity="0"/>
</linearGradient>
<linearGradient id="paint1_linear_547_847" x1="322" y1="-46.5" x2="322" y2="353" gradientUnits="userSpaceOnUse">
<stop stop-color="#7534FF"/>
<stop offset="1" stop-color="#7534FF" stop-opacity="0"/>
</linearGradient>
<clipPath id="clip0_547_847">
<rect width="48" height="48" rx="24" fill="white"/>
</clipPath>
</defs>
</svg>
