<svg width="48" height="48" viewBox="0 0 48 48" fill="none" xmlns="http://www.w3.org/2000/svg">
<g clip-path="url(#clip0_547_837)">
<rect width="48" height="48" rx="24" fill="#136EFC"/>
<circle cx="221" cy="237" r="279" fill="url(#paint0_linear_547_837)"/>
<circle cx="322" cy="94" r="290" fill="url(#paint1_linear_547_837)"/>
<circle cx="24" cy="24" r="20" fill="#EFF3F9"/>
<path d="M21.1885 28.9C22.4685 27.7933 23.4752 26.8867 24.2085 26.18C24.9552 25.46 25.5752 24.7133 26.0685 23.94C26.5618 23.1667 26.8085 22.3933 26.8085 21.62C26.8085 20.82 26.6152 20.1933 26.2285 19.74C25.8552 19.2867 25.2618 19.06 24.4485 19.06C23.6618 19.06 23.0485 19.3133 22.6085 19.82C22.1818 20.3133 21.9552 20.98 21.9285 21.82H19.7285C19.7685 20.3 20.2218 19.14 21.0885 18.34C21.9685 17.5267 23.0818 17.12 24.4285 17.12C25.8818 17.12 27.0152 17.52 27.8285 18.32C28.6552 19.12 29.0685 20.1867 29.0685 21.52C29.0685 22.48 28.8218 23.4067 28.3285 24.3C27.8485 25.18 27.2685 25.9733 26.5885 26.68C25.9218 27.3733 25.0685 28.18 24.0285 29.1L23.1285 29.9H29.4685V31.8H19.7485V30.14L21.1885 28.9Z" fill="black"/>
</g>
<defs>
<linearGradient id="paint0_linear_547_837" x1="59.8534" y1="486.176" x2="380.222" y2="486.176" gradientUnits="userSpaceOnUse">
<stop stop-color="#FF7611"/>
<stop offset="1" stop-color="white" stop-opacity="0"/>
</linearGradient>
<linearGradient id="paint1_linear_547_837" x1="322" y1="-46.5" x2="322" y2="353" gradientUnits="userSpaceOnUse">
<stop stop-color="#7534FF"/>
<stop offset="1" stop-color="#7534FF" stop-opacity="0"/>
</linearGradient>
<clipPath id="clip0_547_837">
<rect width="48" height="48" rx="24" fill="white"/>
</clipPath>
</defs>
</svg>
