<svg width="127" height="127" viewBox="0 0 127 127" fill="none" xmlns="http://www.w3.org/2000/svg">
<path d="M62.998 105.421C39.84 105.421 21 86.5767 21 63.4187C21 40.2607 39.84 21.4207 62.998 21.4207C86.156 21.4207 104.996 40.2647 104.996 63.4187C104.996 86.5727 86.156 105.421 62.998 105.421ZM62.998 27.5029C43.1918 27.5029 27.0782 43.6165 27.0782 63.4227C27.0782 83.2289 43.1918 99.3425 62.998 99.3425C82.8042 99.3425 98.9178 83.2289 98.9178 63.4227C98.9178 43.6165 82.8042 27.5029 62.998 27.5029Z" fill="#E6ECF4"/>
<path d="M80.5479 100.838C79.4374 100.838 78.3629 100.224 77.8296 99.1659C77.0758 97.6663 77.6773 95.838 79.1768 95.0802C91.3772 88.9335 98.9549 76.6322 98.9549 62.9797C98.9549 43.1726 82.8413 27.0622 63.0391 27.0622C61.3592 27.0622 60 25.699 60 24.023C60 22.347 61.3632 20.9797 63.0391 20.9797C86.1971 20.9797 105.037 39.8206 105.037 62.9797C105.037 78.9417 96.1764 93.324 81.9111 100.509C81.4741 100.734 81.009 100.838 80.5479 100.838Z" fill="#6D32F0"/>
<path d="M49.7805 62.6521C47.9778 61.7508 47.0765 60.3294 47.0765 58.3881C47.0765 57.4521 47.3105 56.5941 47.7785 55.8141C48.2465 55.0341 48.9485 54.4188 49.8845 53.9681C50.8205 53.5001 51.9645 53.2661 53.3165 53.2661C54.6511 53.2661 55.7865 53.5001 56.7225 53.9681C57.6758 54.4188 58.3865 55.0341 58.8545 55.8141C59.3225 56.5941 59.5565 57.4521 59.5565 58.3881C59.5565 59.3588 59.3051 60.2168 58.8025 60.9621C58.3171 61.6901 57.6671 62.2534 56.8525 62.6521C57.8405 63.0161 58.6205 63.6141 59.1925 64.4461C59.7645 65.2608 60.0505 66.2228 60.0505 67.3321C60.0505 68.4588 59.7645 69.4554 59.1925 70.3221C58.6205 71.1888 57.8231 71.8561 56.8005 72.3241C55.7778 72.7921 54.6165 73.0261 53.3165 73.0261C52.0165 73.0261 50.8551 72.7921 49.8325 72.3241C48.8271 71.8561 48.0385 71.1888 47.4665 70.3221C46.8945 69.4554 46.6085 68.4588 46.6085 67.3321C46.6085 66.2054 46.8945 65.2348 47.4665 64.4201C48.0385 63.6054 48.8098 63.0161 49.7805 62.6521ZM56.7225 58.7521C56.7225 57.7814 56.4191 57.0361 55.8125 56.5161C55.2058 55.9961 54.3738 55.7361 53.3165 55.7361C52.2765 55.7361 51.4531 55.9961 50.8465 56.5161C50.2398 57.0361 49.9365 57.7901 49.9365 58.7781C49.9365 59.6448 50.2485 60.3554 50.8725 60.9101C51.5138 61.4474 52.3285 61.7161 53.3165 61.7161C54.3045 61.7161 55.1191 61.4388 55.7605 60.8841C56.4018 60.3294 56.7225 59.6188 56.7225 58.7521ZM53.3165 63.9521C52.1725 63.9521 51.2365 64.2381 50.5085 64.8101C49.7978 65.3648 49.4425 66.1708 49.4425 67.2281C49.4425 68.2161 49.7891 69.0221 50.4825 69.6461C51.1758 70.2528 52.1205 70.5561 53.3165 70.5561C54.4951 70.5561 55.4225 70.2441 56.0985 69.6201C56.7918 68.9961 57.1385 68.1988 57.1385 67.2281C57.1385 66.1881 56.7831 65.3821 56.0725 64.8101C55.3791 64.2381 54.4605 63.9521 53.3165 63.9521ZM62.7725 56.3081V53.6041H68.1805V72.5581H65.1905V56.3081H62.7725Z" fill="black"/>
<path d="M74.5978 65.364C74.5978 64.78 74.7658 64.324 75.1018 63.996C75.4458 63.66 75.8858 63.492 76.4218 63.492C76.9578 63.492 77.3938 63.66 77.7298 63.996C78.0738 64.324 78.2458 64.78 78.2458 65.364C78.2458 65.948 78.0738 66.408 77.7298 66.744C77.3938 67.08 76.9578 67.248 76.4218 67.248C75.8858 67.248 75.4458 67.08 75.1018 66.744C74.7658 66.408 74.5978 65.948 74.5978 65.364ZM81.9178 63.648L77.1298 72H75.7858L80.5738 63.648H81.9178ZM76.4218 64.32C75.9178 64.32 75.6658 64.668 75.6658 65.364C75.6658 66.068 75.9178 66.42 76.4218 66.42C76.6618 66.42 76.8458 66.336 76.9738 66.168C77.1098 65.992 77.1777 65.724 77.1777 65.364C77.1777 64.668 76.9258 64.32 76.4218 64.32ZM79.4818 70.272C79.4818 69.688 79.6498 69.232 79.9858 68.904C80.3298 68.568 80.7698 68.4 81.3058 68.4C81.8338 68.4 82.2658 68.568 82.6018 68.904C82.9458 69.232 83.1178 69.688 83.1178 70.272C83.1178 70.856 82.9458 71.316 82.6018 71.652C82.2658 71.988 81.8338 72.156 81.3058 72.156C80.7698 72.156 80.3298 71.988 79.9858 71.652C79.6498 71.316 79.4818 70.856 79.4818 70.272ZM81.2938 69.228C80.7898 69.228 80.5378 69.576 80.5378 70.272C80.5378 70.968 80.7898 71.316 81.2938 71.316C81.7978 71.316 82.0498 70.968 82.0498 70.272C82.0498 69.576 81.7978 69.228 81.2938 69.228Z" fill="black"/>
</svg>
