<svg width="155" height="48" viewBox="0 0 155 48" fill="none" xmlns="http://www.w3.org/2000/svg">
<path d="M24.5075 46.9776L38.2833 38.6639C40.5183 37.3151 41.9142 34.8183 41.9262 32.1479L41.9999 15.6252C42.012 12.9666 40.6472 10.4958 38.4386 9.17737L24.7126 0.982706C22.4944 -0.341748 19.7276 -0.326368 17.4925 1.0225L3.71674 9.33616C1.48166 10.685 0.0858149 13.1818 0.0740652 15.852L7.50538e-05 32.3749C-0.0116583 35.0333 1.35308 37.5041 3.56144 38.8227L17.2874 47.0174C19.5059 48.3416 22.2724 48.3264 24.5075 46.9776Z" fill="#EAEFF3"/>
<path d="M9 29.4542L21.5714 23.9996V35.9996L9 29.4542Z" fill="#AB36C6"/>
<path d="M21.5714 12.0004L9 29.4549L21.5714 24.0004V12.0004Z" fill="#D873EA"/>
<path d="M21.577 11.9996L34.1484 29.4542L21.577 23.9996V11.9996Z" fill="#BE4BD8"/>
<path d="M34.1484 29.4542L21.577 23.9996V35.9996L34.1484 29.4542Z" fill="#9833A4"/>
<path d="M63.21 14.06V27.02C63.21 28.44 63.58 29.53 64.32 30.29C65.06 31.03 66.1 31.4 67.44 31.4C68.8 31.4 69.85 31.03 70.59 30.29C71.33 29.53 71.7 28.44 71.7 27.02V14.06H75.93V26.99C75.93 28.77 75.54 30.28 74.76 31.52C74 32.74 72.97 33.66 71.67 34.28C70.39 34.9 68.96 35.21 67.38 35.21C65.82 35.21 64.4 34.9 63.12 34.28C61.86 33.66 60.86 32.74 60.12 31.52C59.38 30.28 59.01 28.77 59.01 26.99V14.06H63.21ZM80.618 16.4C79.878 16.4 79.258 16.17 78.758 15.71C78.278 15.23 78.038 14.64 78.038 13.94C78.038 13.24 78.278 12.66 78.758 12.2C79.258 11.72 79.878 11.48 80.618 11.48C81.358 11.48 81.968 11.72 82.448 12.2C82.948 12.66 83.198 13.24 83.198 13.94C83.198 14.64 82.948 15.23 82.448 15.71C81.968 16.17 81.358 16.4 80.618 16.4ZM82.688 18.38V35H78.488V18.38H82.688ZM91.6976 35.27C90.3376 35.27 89.1176 35.03 88.0376 34.55C86.9576 34.05 86.0976 33.38 85.4576 32.54C84.8376 31.7 84.4976 30.77 84.4376 29.75H88.6676C88.7476 30.39 89.0576 30.92 89.5976 31.34C90.1576 31.76 90.8476 31.97 91.6676 31.97C92.4676 31.97 93.0876 31.81 93.5276 31.49C93.9876 31.17 94.2176 30.76 94.2176 30.26C94.2176 29.72 93.9376 29.32 93.3776 29.06C92.8376 28.78 91.9676 28.48 90.7676 28.16C89.5276 27.86 88.5076 27.55 87.7076 27.23C86.9276 26.91 86.2476 26.42 85.6676 25.76C85.1076 25.1 84.8276 24.21 84.8276 23.09C84.8276 22.17 85.0876 21.33 85.6076 20.57C86.1476 19.81 86.9076 19.21 87.8876 18.77C88.8876 18.33 90.0576 18.11 91.3976 18.11C93.3776 18.11 94.9576 18.61 96.1376 19.61C97.3176 20.59 97.9676 21.92 98.0876 23.6H94.0676C94.0076 22.94 93.7276 22.42 93.2276 22.04C92.7476 21.64 92.0976 21.44 91.2776 21.44C90.5176 21.44 89.9276 21.58 89.5076 21.86C89.1076 22.14 88.9076 22.53 88.9076 23.03C88.9076 23.59 89.1876 24.02 89.7476 24.32C90.3076 24.6 91.1776 24.89 92.3576 25.19C93.5576 25.49 94.5476 25.8 95.3276 26.12C96.1076 26.44 96.7776 26.94 97.3376 27.62C97.9176 28.28 98.2176 29.16 98.2376 30.26C98.2376 31.22 97.9676 32.08 97.4276 32.84C96.9076 33.6 96.1476 34.2 95.1476 34.64C94.1676 35.06 93.0176 35.27 91.6976 35.27ZM105.075 21.83V29.87C105.075 30.43 105.205 30.84 105.465 31.1C105.745 31.34 106.205 31.46 106.845 31.46H108.795V35H106.155C102.615 35 100.845 33.28 100.845 29.84V21.83H98.8652V18.38H100.845V14.27H105.075V18.38H108.795V21.83H105.075ZM117.696 35.27C116.096 35.27 114.656 34.92 113.376 34.22C112.096 33.5 111.086 32.49 110.346 31.19C109.626 29.89 109.266 28.39 109.266 26.69C109.266 24.99 109.636 23.49 110.376 22.19C111.136 20.89 112.166 19.89 113.466 19.19C114.766 18.47 116.216 18.11 117.816 18.11C119.416 18.11 120.866 18.47 122.166 19.19C123.466 19.89 124.486 20.89 125.226 22.19C125.986 23.49 126.366 24.99 126.366 26.69C126.366 28.39 125.976 29.89 125.196 31.19C124.436 32.49 123.396 33.5 122.076 34.22C120.776 34.92 119.316 35.27 117.696 35.27ZM117.696 31.61C118.456 31.61 119.166 31.43 119.826 31.07C120.506 30.69 121.046 30.13 121.446 29.39C121.846 28.65 122.046 27.75 122.046 26.69C122.046 25.11 121.626 23.9 120.786 23.06C119.966 22.2 118.956 21.77 117.756 21.77C116.556 21.77 115.546 22.2 114.726 23.06C113.926 23.9 113.526 25.11 113.526 26.69C113.526 28.27 113.916 29.49 114.696 30.35C115.496 31.19 116.496 31.61 117.696 31.61ZM132.147 20.96C132.687 20.08 133.387 19.39 134.247 18.89C135.127 18.39 136.127 18.14 137.247 18.14V22.55H136.137C134.817 22.55 133.817 22.86 133.137 23.48C132.477 24.1 132.147 25.18 132.147 26.72V35H127.947V18.38H132.147V20.96ZM154.026 26.33C154.026 26.93 153.986 27.47 153.906 27.95H141.756C141.856 29.15 142.276 30.09 143.016 30.77C143.756 31.45 144.666 31.79 145.746 31.79C147.306 31.79 148.416 31.12 149.076 29.78H153.606C153.126 31.38 152.206 32.7 150.846 33.74C149.486 34.76 147.816 35.27 145.836 35.27C144.236 35.27 142.796 34.92 141.516 34.22C140.256 33.5 139.266 32.49 138.546 31.19C137.846 29.89 137.496 28.39 137.496 26.69C137.496 24.97 137.846 23.46 138.546 22.16C139.246 20.86 140.226 19.86 141.486 19.16C142.746 18.46 144.196 18.11 145.836 18.11C147.416 18.11 148.826 18.45 150.066 19.13C151.326 19.81 152.296 20.78 152.976 22.04C153.676 23.28 154.026 24.71 154.026 26.33ZM149.676 25.13C149.656 24.05 149.266 23.19 148.506 22.55C147.746 21.89 146.816 21.56 145.716 21.56C144.676 21.56 143.796 21.88 143.076 22.52C142.376 23.14 141.946 24.01 141.786 25.13H149.676Z" fill="black"/>
</svg>
