<svg width="155" height="100" viewBox="0 0 155 100" fill="none" xmlns="http://www.w3.org/2000/svg">
<path d="M24.5075 72.9776L38.2833 64.6639C40.5183 63.3151 41.9142 60.8183 41.9262 58.1479L41.9999 41.6252C42.012 38.9666 40.6472 36.4958 38.4386 35.1774L24.7126 26.9827C22.4944 25.6583 19.7276 25.6736 17.4925 27.0225L3.71674 35.3362C1.48166 36.685 0.0858149 39.1818 0.0740652 41.852L7.50538e-05 58.3749C-0.0116583 61.0333 1.35308 63.5041 3.56144 64.8227L17.2874 73.0174C19.5059 74.3416 22.2724 74.3264 24.5075 72.9776Z" fill="#EAEFF3"/>
<path d="M9 55.4542L21.5714 49.9996V61.9996L9 55.4542Z" fill="#AB36C6"/>
<path d="M21.5714 38.0004L9 55.4549L21.5714 50.0004V38.0004Z" fill="#D873EA"/>
<path d="M21.577 37.9996L34.1484 55.4542L21.577 49.9996V37.9996Z" fill="#BE4BD8"/>
<path d="M34.1484 55.4542L21.577 49.9996V61.9996L34.1484 55.4542Z" fill="#9833A4"/>
<path d="M63.21 40.06V53.02C63.21 54.44 63.58 55.53 64.32 56.29C65.06 57.03 66.1 57.4 67.44 57.4C68.8 57.4 69.85 57.03 70.59 56.29C71.33 55.53 71.7 54.44 71.7 53.02V40.06H75.93V52.99C75.93 54.77 75.54 56.28 74.76 57.52C74 58.74 72.97 59.66 71.67 60.28C70.39 60.9 68.96 61.21 67.38 61.21C65.82 61.21 64.4 60.9 63.12 60.28C61.86 59.66 60.86 58.74 60.12 57.52C59.38 56.28 59.01 54.77 59.01 52.99V40.06H63.21ZM80.618 42.4C79.878 42.4 79.258 42.17 78.758 41.71C78.278 41.23 78.038 40.64 78.038 39.94C78.038 39.24 78.278 38.66 78.758 38.2C79.258 37.72 79.878 37.48 80.618 37.48C81.358 37.48 81.968 37.72 82.448 38.2C82.948 38.66 83.198 39.24 83.198 39.94C83.198 40.64 82.948 41.23 82.448 41.71C81.968 42.17 81.358 42.4 80.618 42.4ZM82.688 44.38V61H78.488V44.38H82.688ZM91.6976 61.27C90.3376 61.27 89.1176 61.03 88.0376 60.55C86.9576 60.05 86.0976 59.38 85.4576 58.54C84.8376 57.7 84.4976 56.77 84.4376 55.75H88.6676C88.7476 56.39 89.0576 56.92 89.5976 57.34C90.1576 57.76 90.8476 57.97 91.6676 57.97C92.4676 57.97 93.0876 57.81 93.5276 57.49C93.9876 57.17 94.2176 56.76 94.2176 56.26C94.2176 55.72 93.9376 55.32 93.3776 55.06C92.8376 54.78 91.9676 54.48 90.7676 54.16C89.5276 53.86 88.5076 53.55 87.7076 53.23C86.9276 52.91 86.2476 52.42 85.6676 51.76C85.1076 51.1 84.8276 50.21 84.8276 49.09C84.8276 48.17 85.0876 47.33 85.6076 46.57C86.1476 45.81 86.9076 45.21 87.8876 44.77C88.8876 44.33 90.0576 44.11 91.3976 44.11C93.3776 44.11 94.9576 44.61 96.1376 45.61C97.3176 46.59 97.9676 47.92 98.0876 49.6H94.0676C94.0076 48.94 93.7276 48.42 93.2276 48.04C92.7476 47.64 92.0976 47.44 91.2776 47.44C90.5176 47.44 89.9276 47.58 89.5076 47.86C89.1076 48.14 88.9076 48.53 88.9076 49.03C88.9076 49.59 89.1876 50.02 89.7476 50.32C90.3076 50.6 91.1776 50.89 92.3576 51.19C93.5576 51.49 94.5476 51.8 95.3276 52.12C96.1076 52.44 96.7776 52.94 97.3376 53.62C97.9176 54.28 98.2176 55.16 98.2376 56.26C98.2376 57.22 97.9676 58.08 97.4276 58.84C96.9076 59.6 96.1476 60.2 95.1476 60.64C94.1676 61.06 93.0176 61.27 91.6976 61.27ZM105.075 47.83V55.87C105.075 56.43 105.205 56.84 105.465 57.1C105.745 57.34 106.205 57.46 106.845 57.46H108.795V61H106.155C102.615 61 100.845 59.28 100.845 55.84V47.83H98.8652V44.38H100.845V40.27H105.075V44.38H108.795V47.83H105.075ZM117.696 61.27C116.096 61.27 114.656 60.92 113.376 60.22C112.096 59.5 111.086 58.49 110.346 57.19C109.626 55.89 109.266 54.39 109.266 52.69C109.266 50.99 109.636 49.49 110.376 48.19C111.136 46.89 112.166 45.89 113.466 45.19C114.766 44.47 116.216 44.11 117.816 44.11C119.416 44.11 120.866 44.47 122.166 45.19C123.466 45.89 124.486 46.89 125.226 48.19C125.986 49.49 126.366 50.99 126.366 52.69C126.366 54.39 125.976 55.89 125.196 57.19C124.436 58.49 123.396 59.5 122.076 60.22C120.776 60.92 119.316 61.27 117.696 61.27ZM117.696 57.61C118.456 57.61 119.166 57.43 119.826 57.07C120.506 56.69 121.046 56.13 121.446 55.39C121.846 54.65 122.046 53.75 122.046 52.69C122.046 51.11 121.626 49.9 120.786 49.06C119.966 48.2 118.956 47.77 117.756 47.77C116.556 47.77 115.546 48.2 114.726 49.06C113.926 49.9 113.526 51.11 113.526 52.69C113.526 54.27 113.916 55.49 114.696 56.35C115.496 57.19 116.496 57.61 117.696 57.61ZM132.147 46.96C132.687 46.08 133.387 45.39 134.247 44.89C135.127 44.39 136.127 44.14 137.247 44.14V48.55H136.137C134.817 48.55 133.817 48.86 133.137 49.48C132.477 50.1 132.147 51.18 132.147 52.72V61H127.947V44.38H132.147V46.96ZM154.026 52.33C154.026 52.93 153.986 53.47 153.906 53.95H141.756C141.856 55.15 142.276 56.09 143.016 56.77C143.756 57.45 144.666 57.79 145.746 57.79C147.306 57.79 148.416 57.12 149.076 55.78H153.606C153.126 57.38 152.206 58.7 150.846 59.74C149.486 60.76 147.816 61.27 145.836 61.27C144.236 61.27 142.796 60.92 141.516 60.22C140.256 59.5 139.266 58.49 138.546 57.19C137.846 55.89 137.496 54.39 137.496 52.69C137.496 50.97 137.846 49.46 138.546 48.16C139.246 46.86 140.226 45.86 141.486 45.16C142.746 44.46 144.196 44.11 145.836 44.11C147.416 44.11 148.826 44.45 150.066 45.13C151.326 45.81 152.296 46.78 152.976 48.04C153.676 49.28 154.026 50.71 154.026 52.33ZM149.676 51.13C149.656 50.05 149.266 49.19 148.506 48.55C147.746 47.89 146.816 47.56 145.716 47.56C144.676 47.56 143.796 47.88 143.076 48.52C142.376 49.14 141.946 50.01 141.786 51.13H149.676Z" fill="white"/>
</svg>
