<svg width="72" height="72" viewBox="0 0 72 72" fill="none" xmlns="http://www.w3.org/2000/svg">
<rect width="72" height="72" rx="20" fill="#FF8B35"/>
<path d="M44.5 52H27.5C23.3645 52 20 48.6355 20 44.5V27.5C20 23.3645 23.3645 20 27.5 20H44.5C48.6355 20 52 23.3645 52 27.5V44.5C52 48.6355 48.6355 52 44.5 52ZM27.5 22.5C24.743 22.5 22.5 24.743 22.5 27.5V44.5C22.5 47.257 24.743 49.5 27.5 49.5H44.5C47.257 49.5 49.5 47.257 49.5 44.5V27.5C49.5 24.743 47.257 22.5 44.5 22.5H27.5ZM28.5625 42C28.2343 42 27.9154 41.8706 27.6786 41.6339C27.3831 41.3384 27.2548 40.9148 27.3367 40.5051L28.0446 36.9636C28.3956 35.2074 29.2505 33.6097 30.5169 32.3432L36.5238 26.3364C38.2221 24.5664 41.2779 24.5664 42.9761 26.3364C44.7461 28.0347 44.746 31.0906 42.9761 32.7887L36.9693 38.7956C35.7028 40.062 34.1051 40.9169 32.3489 41.2679L28.8074 41.9758C28.726 41.9921 28.6439 42 28.5625 42ZM39.75 27.5C39.1991 27.5 38.6811 27.7146 38.2916 28.1041L32.2848 34.1109C31.3686 35.0271 30.7501 36.1829 30.4962 37.4534L30.1558 39.1567L31.8591 38.8163C33.1296 38.5624 34.2854 37.9439 35.2016 37.0277L41.2084 31.0209C42.0086 30.2532 42.0085 28.8717 41.2084 28.1041C41.2084 28.1041 41.2084 28.1041 41.2084 28.1041C40.8189 27.7146 40.3009 27.5 39.75 27.5ZM46.75 45.75C46.75 45.0596 46.1904 44.5 45.5 44.5H26.5C24.8415 44.566 24.8428 46.9346 26.5 47H45.5C46.1904 47 46.75 46.4404 46.75 45.75Z" fill="white"/>
</svg>
