<svg width="40" height="40" viewBox="0 0 40 40" fill="none" xmlns="http://www.w3.org/2000/svg">
<g clip-path="url(#clip0_1392_341)">
<rect width="40" height="40" rx="20" fill="#136EFC"/>
<circle cx="83" cy="67" r="73" fill="url(#paint0_linear_1392_341)"/>
<ellipse cx="120.5" cy="14" rx="102.5" ry="102" fill="url(#paint1_linear_1392_341)"/>
<path d="M16.7829 26.112C15.7483 26.112 14.7936 25.872 13.9189 25.392C13.0549 24.9013 12.3669 24.224 11.8549 23.36C11.3536 22.4853 11.1029 21.504 11.1029 20.416C11.1029 19.328 11.3536 18.352 11.8549 17.488C12.3669 16.624 13.0549 15.952 13.9189 15.472C14.7936 14.9813 15.7483 14.736 16.7829 14.736C17.8283 14.736 18.7829 14.9813 19.6469 15.472C20.5216 15.952 21.2096 16.624 21.7109 17.488C22.2123 18.352 22.4629 19.328 22.4629 20.416C22.4629 21.504 22.2123 22.4853 21.7109 23.36C21.2096 24.224 20.5216 24.9013 19.6469 25.392C18.7829 25.872 17.8283 26.112 16.7829 26.112ZM16.7829 24.528C17.5189 24.528 18.1749 24.3627 18.7509 24.032C19.3269 23.6907 19.7749 23.2107 20.0949 22.592C20.4256 21.9627 20.5909 21.2373 20.5909 20.416C20.5909 19.5947 20.4256 18.8747 20.0949 18.256C19.7749 17.6373 19.3269 17.1627 18.7509 16.832C18.1749 16.5013 17.5189 16.336 16.7829 16.336C16.0469 16.336 15.3909 16.5013 14.8149 16.832C14.2389 17.1627 13.7856 17.6373 13.4549 18.256C13.1349 18.8747 12.9749 19.5947 12.9749 20.416C12.9749 21.2373 13.1349 21.9627 13.4549 22.592C13.7856 23.2107 14.2389 23.6907 14.8149 24.032C15.3909 24.3627 16.0469 24.528 16.7829 24.528ZM29.8418 14.88V16.368H26.8818V26H25.0578V16.368H22.0818V14.88H29.8418Z" fill="white"/>
</g>
<defs>
<linearGradient id="paint0_linear_1392_341" x1="40.8362" y1="132.197" x2="124.66" y2="132.197" gradientUnits="userSpaceOnUse">
<stop stop-color="#FF7611"/>
<stop offset="1" stop-color="white" stop-opacity="0"/>
</linearGradient>
<linearGradient id="paint1_linear_1392_341" x1="120.5" y1="-35.4172" x2="120.5" y2="105.097" gradientUnits="userSpaceOnUse">
<stop stop-color="#7534FF"/>
<stop offset="1" stop-color="#7534FF" stop-opacity="0"/>
</linearGradient>
<clipPath id="clip0_1392_341">
<rect width="40" height="40" rx="20" fill="white"/>
</clipPath>
</defs>
</svg>
