<svg width="56" height="56" viewBox="0 0 56 56" fill="none" xmlns="http://www.w3.org/2000/svg">
<rect width="56" height="56" rx="20" fill="#FF8B35"/>
<path d="M16.9372 40C16.8164 40 16.6947 39.9767 16.5787 39.9286C16.2284 39.7835 16 39.4416 16 39.0625L16.0005 28.1134C15.9264 17.3931 28.971 11.9426 36.528 19.5406C44.0049 27.1276 38.6068 40.0094 27.9431 40C26.0542 40 24.2509 39.5763 22.5835 38.7407C20.9903 37.9421 19.0614 38.2642 17.7836 39.542L17.6002 39.7254C17.4209 39.9047 17.1811 40 16.9372 40ZM20.7464 36.4306C21.6567 36.4306 22.5725 36.6378 23.4235 37.0644C24.8304 37.7696 26.3553 38.1265 27.9537 38.125C36.9143 38.1382 41.5063 27.1914 35.1959 20.8599C28.7949 14.4536 17.8289 19.0421 17.8753 28.0999C17.8753 28.1029 17.8753 28.1059 17.8753 28.1089L17.8749 37.1588C18.7632 36.6784 19.7514 36.4306 20.7464 36.4306ZM25.1865 28.0002C25.1865 28.6474 24.6619 29.1721 24.0148 29.1721C22.4605 29.1103 22.4609 26.8898 24.0148 26.8284C24.6619 26.8284 25.1865 27.353 25.1865 28.0002ZM28.0456 26.8284C27.3984 26.8284 26.8738 27.353 26.8738 28.0002C26.9355 29.5546 29.1558 29.5542 29.2173 28.0002C29.2173 27.353 28.6927 26.8284 28.0456 26.8284ZM32.0764 26.8284C31.4293 26.8284 30.9046 27.353 30.9046 28.0002C30.9664 29.5546 33.1866 29.5542 33.2481 28.0002C33.2481 27.353 32.7235 26.8284 32.0764 26.8284Z" fill="white"/>
</svg>
