<svg width="80" height="80" viewBox="0 0 80 80" fill="none" xmlns="http://www.w3.org/2000/svg">
<g clip-path="url(#clip0_1452_774)">
<rect width="80" height="80" rx="40" fill="#136EFC"/>
<circle cx="147.5" cy="210.5" r="186.5" fill="url(#paint0_linear_1452_774)"/>
<circle cx="314" cy="135" r="290" fill="url(#paint1_linear_1452_774)"/>
<path d="M47.9062 51.3014H34.0938C30.7337 51.3014 28 48.5963 28 45.2713V37.0301C28 33.7051 30.7337 31 34.0938 31H47.9062C51.2663 31 54 33.7051 54 37.0301V45.2713C54 48.5963 51.2663 51.3014 47.9062 51.3014ZM34.0938 33.01C31.8537 33.01 30.0312 34.8134 30.0312 37.0301V45.2713C30.0312 47.4879 31.8537 49.2913 34.0938 49.2913H47.9062C50.1463 49.2913 51.9688 47.4879 51.9688 45.2713V37.0301C51.9688 34.8134 50.1463 33.01 47.9062 33.01H34.0938ZM44.7216 42.9299L49.7415 39.1353C50.1873 38.7984 50.2726 38.1677 49.9321 37.7266C49.5916 37.2855 48.9543 37.2011 48.5085 37.538L43.4891 41.3321C42.0398 42.426 40.0157 42.4268 38.5654 41.3349L33.7015 37.5934C33.2587 37.2527 32.6205 37.3319 32.2763 37.7701C31.9321 38.2083 32.012 38.8397 32.4549 39.1804L37.3225 42.9247C37.325 42.9266 37.3274 42.9285 37.3299 42.9303C38.4179 43.7514 39.7214 44.1619 41.0253 44.1619C42.3291 44.1619 43.6333 43.7512 44.7216 42.9299Z" fill="white"/>
</g>
<defs>
<linearGradient id="paint0_linear_1452_774" x1="39.7802" y1="377.064" x2="253.934" y2="377.064" gradientUnits="userSpaceOnUse">
<stop stop-color="#FF7611"/>
<stop offset="1" stop-color="white" stop-opacity="0"/>
</linearGradient>
<linearGradient id="paint1_linear_1452_774" x1="314" y1="-5.5" x2="314" y2="394" gradientUnits="userSpaceOnUse">
<stop stop-color="#7534FF"/>
<stop offset="1" stop-color="#7534FF" stop-opacity="0"/>
</linearGradient>
<clipPath id="clip0_1452_774">
<rect width="80" height="80" rx="40" fill="white"/>
</clipPath>
</defs>
</svg>
