<svg width="279" height="69" viewBox="0 0 279 69" fill="none" xmlns="http://www.w3.org/2000/svg">
<path d="M277.91 27.0915C278.133 31.3596 274.708 35.7717 267.912 40.0837C261.155 44.3708 251.234 48.4485 238.857 52.0908C214.112 59.373 179.663 64.8829 141.381 66.8843C103.099 68.8857 68.2631 66.998 42.8935 62.3357C30.2046 60.0039 19.9119 56.9829 12.7448 53.4238C5.53602 49.8439 1.66985 45.813 1.44672 41.5449C1.22358 37.2768 4.64835 32.8647 11.4446 28.5527C18.2014 24.2657 28.1231 20.1879 40.4996 16.5456C65.2447 9.26338 99.6934 3.75351 137.976 1.75212C176.258 -0.249265 211.094 1.63845 236.463 6.30069C249.152 8.63255 259.445 11.6535 266.612 15.2126C273.821 18.7925 277.687 22.8234 277.91 27.0915Z" stroke="#326BFF"/>
</svg>
