<svg width="278" height="67" viewBox="0 0 278 67" fill="none" xmlns="http://www.w3.org/2000/svg">
<path d="M277.4 33.6094C277.4 37.8073 273.796 41.9946 266.783 45.9313C259.819 49.8401 249.702 53.3799 237.149 56.3601C212.053 62.3183 177.351 66.0094 139 66.0094C100.649 66.0094 65.9474 62.3183 40.8507 56.3601C28.2977 53.3799 18.1809 49.8401 11.217 45.9313C4.20358 41.9946 0.6 37.8073 0.6 33.6094C0.6 29.4114 4.20358 25.2241 11.217 21.2875C18.1809 17.3786 28.2977 13.8389 40.8507 10.8586C65.9474 4.90043 100.649 1.20938 139 1.20938C177.351 1.20938 212.053 4.90043 237.149 10.8586C249.702 13.8389 259.819 17.3786 266.783 21.2875C273.796 25.2241 277.4 29.4114 277.4 33.6094Z" stroke="#326BFF" stroke-width="1.2"/>
</svg>
