<svg width="72" height="72" viewBox="0 0 72 72" fill="none" xmlns="http://www.w3.org/2000/svg">
<rect width="72" height="72" rx="20" fill="#FF8B35"/>
<path d="M41.0319 53H31.7882C27.5089 53 24.0312 49.6375 24.0312 45.5V28.5C24.0312 24.3625 27.5089 21 31.7882 21H41.0319C45.3111 21 48.7888 24.3625 48.7888 28.5V45.5C48.7888 49.6375 45.3111 53 41.0319 53ZM31.7882 23.5C28.9375 23.5 26.6169 25.7438 26.6169 28.5V45.5C26.6169 48.2563 28.9375 50.5 31.7882 50.5H41.0319C43.8826 50.5 46.2032 48.2563 46.2032 45.5V28.5C46.2032 25.7438 43.8826 23.5 41.0319 23.5H31.7882ZM30.8186 39.4937C29.9265 39.4937 29.2025 40.1938 29.2025 41.0562C29.2866 43.1313 32.3506 43.1313 32.4346 41.0562C32.4346 40.1938 31.7106 39.4937 30.8186 39.4937ZM36.4424 39.4937C35.5503 39.4937 34.8263 40.1938 34.8263 41.0562C34.9104 43.1313 37.9744 43.1313 38.0584 41.0562C38.0584 40.1938 37.3344 39.4937 36.4424 39.4937ZM42.0015 39.4937C41.1095 39.4937 40.3855 40.1938 40.3855 41.0562C40.4695 43.1313 43.5335 43.1313 43.6175 41.0562C43.6175 40.1938 42.8936 39.4937 42.0015 39.4937ZM30.8832 44.8687C29.9912 44.8687 29.2672 45.5688 29.2672 46.4312C29.3512 48.5063 32.4152 48.5063 32.4992 46.4312C32.4992 45.5688 31.7753 44.8687 30.8832 44.8687ZM36.4424 44.8687C35.5503 44.8687 34.8263 45.5688 34.8263 46.4312C34.9104 48.5063 37.9744 48.5063 38.0584 46.4312C38.0584 45.5688 37.3344 44.8687 36.4424 44.8687ZM42.0015 44.8687C41.1095 44.8687 40.3855 45.5688 40.3855 46.4312C40.4695 48.5063 43.5335 48.5063 43.6175 46.4312C43.6175 45.5688 42.8936 44.8687 42.0015 44.8687Z" fill="white"/>
</svg>
