<svg width="222" height="109" viewBox="0 0 222 109" fill="none" xmlns="http://www.w3.org/2000/svg">
<path d="M215.4 49.5C215.4 55.4327 212.484 61.1406 207.094 66.3916C201.702 71.6446 193.868 76.4028 184.139 80.4115C164.684 88.4279 137.765 93.4 108 93.4C78.2353 93.4 51.3164 88.4279 31.861 80.4115C22.1319 76.4028 14.2981 71.6446 8.90585 66.3916C3.51553 61.1406 0.6 55.4327 0.6 49.5C0.6 43.5673 3.51553 37.8594 8.90585 32.6084C14.2981 27.3555 22.1319 22.5973 31.861 18.5885C51.3164 10.5722 78.2353 5.60002 108 5.60002C137.765 5.60002 164.684 10.5722 184.139 18.5885C193.868 22.5973 201.702 27.3555 207.094 32.6084C212.484 37.8594 215.4 43.5673 215.4 49.5Z" stroke="#326BFF" stroke-width="1.2"/>
<path d="M220.156 44.7417C220.337 50.7369 217.576 56.7612 212.332 62.5384C207.086 68.3172 199.382 73.8148 189.766 78.7281C170.536 88.5535 143.751 95.9939 113.973 98.6968C84.1956 101.4 57.1097 98.849 37.3945 92.5585C27.5357 89.413 19.5443 85.3399 13.9798 80.5423C8.41698 75.7461 5.30951 70.2545 5.12898 64.2593C4.94846 58.2641 7.70916 52.2397 12.9536 46.4626C18.1996 40.6838 25.9028 35.1862 35.5189 30.2729C54.7489 20.4475 81.534 13.0071 111.312 10.3042C141.09 7.60136 168.176 10.152 187.891 16.4424C197.75 19.588 205.741 23.6611 211.306 28.4587C216.868 33.2549 219.976 38.7465 220.156 44.7417Z" stroke="#326BFF"/>
</svg>
