<svg width="8" height="10" viewBox="0 0 8 10" fill="none" xmlns="http://www.w3.org/2000/svg">
<path d="M0.144384 6.14928L3.39214 9.39704C3.48477 9.48967 3.60836 9.54053 3.74278 9.54053C3.87456 9.54053 3.99807 9.48967 4.0907 9.39704L7.33853 6.14928C7.53039 5.95736 7.53039 5.64499 7.33853 5.45321L7.04365 5.15819C6.95102 5.06563 6.82743 5.0147 6.69558 5.0147C6.5638 5.0147 6.43597 5.06563 6.34341 5.15819L4.44448 6.14928L4.44448 1.03319C4.44448 0.761868 4.232 0.540527 3.96068 0.540527L3.5436 0.540527C3.27229 0.540527 3.03829 0.761868 3.03829 1.03319L3.03829 6.14928L1.1286 5.15819C1.03604 5.06562 0.91575 5.0147 0.783897 5.0147C0.652043 5.0147 0.530287 5.06562 0.437579 5.15818L0.143579 5.45321C-0.0483477 5.64506 -0.0476163 5.95736 0.144384 6.14928Z" fill="#F46E35"/>
</svg>
