<svg width="8" height="10" viewBox="0 0 8 10" fill="none" xmlns="http://www.w3.org/2000/svg">
<path d="M7.33804 3.93177L4.09028 0.684015C3.99765 0.591381 3.87406 0.540527 3.73965 0.540527C3.60787 0.540527 3.48435 0.591381 3.39172 0.684015L0.14389 3.93177C-0.0479634 4.1237 -0.0479634 4.43606 0.14389 4.62784L0.438768 4.92287C0.531403 5.01543 0.654988 5.06636 0.786842 5.06636C0.918622 5.06636 1.04645 5.01543 1.13901 4.92287L3.03794 3.93177V9.04787C3.03794 9.31919 3.25043 9.54053 3.52174 9.54053H3.93882C4.21013 9.54053 4.44413 9.31919 4.44413 9.04787L4.44413 3.93177L6.35382 4.92287C6.44638 5.01543 6.56667 5.06636 6.69853 5.06636C6.83038 5.06636 6.95214 5.01543 7.04484 4.92287L7.33884 4.62784C7.53077 4.43599 7.53004 4.1237 7.33804 3.93177Z" fill="#1FD351"/>
</svg>
