<svg width="64" height="64" viewBox="0 0 64 64" fill="none" xmlns="http://www.w3.org/2000/svg">
<path d="M44.176 5.48207H17.8493C14.4708 5.48207 11.666 8.22311 11.666 11.6016V53.8008C11.666 57.1793 14.4071 59.9203 17.8493 59.9203H44.176C47.5545 59.9203 50.3592 57.1793 50.3592 53.8008V11.6016C50.3592 8.22311 47.6182 5.48207 44.176 5.48207ZM48.4469 53.8008C48.4469 56.1594 46.5345 58.008 44.176 58.008H17.8493C15.4907 58.008 13.5784 56.0956 13.5784 53.8008V11.6016C13.5784 9.24303 15.4907 7.39442 17.8493 7.39442H44.176C46.5345 7.39442 48.4469 9.30677 48.4469 11.6016V53.8008Z" fill="black"/>
<path d="M38.8203 11.5378H23.0753C22.5654 11.5378 22.1191 11.9841 22.1191 12.494C22.1191 13.004 22.5654 13.4502 23.0753 13.4502H38.8203C39.3303 13.4502 39.7765 13.004 39.7765 12.494C39.7765 11.9841 39.3303 11.5378 38.8203 11.5378Z" fill="black"/>
<path d="M30.9802 48.0637C29.1954 48.0637 27.793 49.5299 27.793 51.251C27.793 52.0797 28.1117 52.9084 28.7491 53.4821C29.3228 54.0558 30.1515 54.3745 30.9802 54.3745C32.7651 54.3745 34.1675 52.9084 34.1675 51.1873C34.1675 49.4661 32.7651 48.0637 30.9802 48.0637ZM31.044 52.5259C30.7252 52.5259 30.4065 52.3984 30.1515 52.1434C29.8966 51.8884 29.7691 51.5697 29.7691 51.251C29.7691 50.5498 30.3428 49.9761 31.044 49.9761C31.7452 49.9761 32.3189 50.5498 32.3189 51.251C32.3189 51.9522 31.7452 52.5259 31.044 52.5259Z" fill="black"/>
</svg>
