<svg width="64" height="64" viewBox="0 0 64 64" fill="none" xmlns="http://www.w3.org/2000/svg">
<path d="M44.176 5.48207H17.8493C14.4708 5.48207 11.666 8.22311 11.666 11.6016V53.8008C11.666 57.1793 14.4071 59.9203 17.8493 59.9203H44.176C47.5545 59.9203 50.3592 57.1793 50.3592 53.8008V11.6016C50.3592 8.22311 47.6182 5.48207 44.176 5.48207ZM48.4469 53.8008C48.4469 56.1594 46.5345 58.008 44.176 58.008H17.8493C15.4907 58.008 13.5784 56.0956 13.5784 53.8008V11.6016C13.5784 9.24303 15.4907 7.39442 17.8493 7.39442H44.176C46.5345 7.39442 48.4469 9.30677 48.4469 11.6016V53.8008Z" fill="black"/>
<path d="M35.5 14C34.1 14 33 15.1616 33 16.5253C33 17.1818 33.25 17.8384 33.75 18.2929C34.2 18.7475 34.85 19 35.5 19C36.9 19 38 17.8384 38 16.4747C38 15.1111 36.9 14 35.5 14ZM35.55 17.5354C35.3 17.5354 35.05 17.4343 34.85 17.2323C34.65 17.0303 34.55 16.7778 34.55 16.5253C34.55 15.9697 35 15.5152 35.55 15.5152C36.1 15.5152 36.55 15.9697 36.55 16.5253C36.55 17.0808 36.1 17.5354 35.55 17.5354Z" fill="black"/>
<circle cx="25" cy="20" r="5.5" stroke="black"/>
<circle cx="25" cy="20" r="4" fill="black"/>
<circle cx="25" cy="35" r="5.5" stroke="black"/>
<circle cx="25" cy="35" r="4" fill="black"/>
</svg>
