<svg width="61" height="36" viewBox="0 0 61 36" fill="none" xmlns="http://www.w3.org/2000/svg">
<path d="M19.9082 20.8705L22.2324 20.6298C22.2988 21.1555 22.4953 21.5733 22.8218 21.8832C23.1483 22.1876 23.5246 22.3398 23.9507 22.3398C24.4377 22.3398 24.8499 22.1433 25.1875 21.7504C25.5251 21.352 25.6938 20.7543 25.6938 19.9574C25.6938 19.2104 25.5251 18.6515 25.1875 18.2807C24.8555 17.9044 24.4211 17.7162 23.8843 17.7162C23.2147 17.7162 22.6143 18.0123 22.083 18.6044L20.1904 18.3305L21.3857 11.997H27.5532V14.1801H23.1538L22.7886 16.247C23.3088 15.9869 23.84 15.8569 24.3823 15.8569C25.4172 15.8569 26.2943 16.2332 27.0137 16.9858C27.7331 17.7384 28.0928 18.7151 28.0928 19.9159C28.0928 20.9176 27.8022 21.8113 27.2212 22.5971C26.4299 23.6707 25.3314 24.2074 23.9258 24.2074C22.8024 24.2074 21.8866 23.9058 21.1782 23.3027C20.4699 22.6995 20.0465 21.8888 19.9082 20.8705ZM35.5137 19.5258V17.4755H40.8096V22.3232C40.2949 22.8212 39.5479 23.2612 38.5684 23.643C37.5944 24.0193 36.6066 24.2074 35.605 24.2074C34.3322 24.2074 33.2227 23.9418 32.2764 23.4106C31.3301 22.8738 30.619 22.1101 30.1431 21.1196C29.6672 20.1235 29.4292 19.0416 29.4292 17.8739C29.4292 16.6067 29.6948 15.4806 30.2261 14.4955C30.7573 13.5105 31.5348 12.7551 32.5586 12.2294C33.3389 11.8254 34.3101 11.6235 35.4722 11.6235C36.9829 11.6235 38.1616 11.9417 39.0083 12.578C39.8605 13.2089 40.4084 14.0833 40.6519 15.2011L38.2114 15.6576C38.0399 15.06 37.7161 14.5896 37.2402 14.2465C36.7699 13.8979 36.1805 13.7236 35.4722 13.7236C34.3986 13.7236 33.5436 14.0639 32.9072 14.7446C32.2764 15.4252 31.9609 16.4351 31.9609 17.7743C31.9609 19.2187 32.2819 20.3033 32.9238 21.0282C33.5658 21.7476 34.4069 22.1073 35.4473 22.1073C35.9619 22.1073 36.4766 22.0077 36.9912 21.8085C37.5114 21.6038 37.9569 21.3575 38.3276 21.0697V19.5258H35.5137Z" fill="black"/>
<path d="M8.31181 18.4999C8.31181 21.7424 9.40026 24.681 11.6761 27.0115C12.6656 28.0248 11.1814 29.95 9.99397 28.7341C7.32231 25.9982 5.93701 22.3504 5.93701 18.4999C5.93701 14.6494 7.32231 11.0016 9.99397 8.26574C11.1814 7.0498 12.6656 8.97504 11.6761 9.98833C9.40026 12.3189 8.31181 15.2574 8.31181 18.4999ZM2.3748 18.4999C2.3748 23.161 4.05696 27.5182 7.12441 30.862C8.21286 32.0779 6.53071 33.8005 5.44226 32.5846C1.88005 28.6328 -4.03496e-07 23.769 -6.33815e-07 18.4999C-8.64134e-07 13.2308 1.88005 8.36707 5.44226 4.41526C6.53071 3.19931 8.21286 4.9219 7.12441 6.13784C4.05696 9.48168 2.3748 13.8388 2.3748 18.4999Z" fill="black"/>
<path d="M52.6882 18.5C52.6882 15.2575 51.5997 12.319 49.3239 9.9884C48.3344 8.97512 49.8186 7.04987 51.006 8.26582C53.6777 11.0017 55.063 14.6495 55.063 18.5C55.063 22.3505 53.6777 25.9983 51.006 28.7342C49.8186 29.9501 48.3344 28.0249 49.3239 27.0116C51.5997 24.681 52.6882 21.7425 52.6882 18.5ZM58.6252 18.5C58.6252 13.8389 56.943 9.48176 53.8756 6.13792C52.7871 4.92197 54.4693 3.19939 55.5577 4.41533C59.1199 8.36715 61 13.2309 61 18.5C61 23.7691 59.1199 28.6329 55.5577 32.5847C54.4693 33.8006 52.7871 32.078 53.8756 30.8621C56.943 27.5182 58.6252 23.1611 58.6252 18.5Z" fill="black"/>
</svg>
