<svg width="18" height="18" viewBox="0 0 18 18" fill="none" xmlns="http://www.w3.org/2000/svg">
<path d="M4.45833 9.94792C3.7558 9.94792 3.06904 10.1562 2.4849 10.5466C1.90077 10.9369 1.44549 11.4916 1.17664 12.1407C0.907789 12.7897 0.837446 13.5039 0.974504 14.193C1.11156 14.882 1.44986 15.5149 1.94663 16.0117C2.4434 16.5085 3.07632 16.8468 3.76536 16.9838C4.45439 17.1209 5.1686 17.0505 5.81766 16.7817C6.46672 16.5128 7.02148 16.0576 7.41178 15.4734C7.80209 14.8893 8.01042 14.2025 8.01042 13.5C8.01042 12.5579 7.63618 11.6544 6.97004 10.9883C6.30389 10.3222 5.40041 9.94792 4.45833 9.94792ZM4.45833 15.1146C4.139 15.1146 3.82684 15.0199 3.56132 14.8425C3.2958 14.6651 3.08886 14.4129 2.96665 14.1179C2.84445 13.8228 2.81248 13.4982 2.87478 13.185C2.93707 12.8718 3.09085 12.5841 3.31665 12.3583C3.54246 12.1325 3.83015 11.9787 4.14334 11.9164C4.45654 11.8541 4.78118 11.8861 5.07621 12.0083C5.37124 12.1305 5.6234 12.3375 5.80081 12.603C5.97822 12.8685 6.07292 13.1807 6.07292 13.5C6.07292 13.9282 5.90281 14.3389 5.60002 14.6417C5.29722 14.9445 4.88655 15.1146 4.45833 15.1146ZM13.5 9.94792C12.7975 9.94792 12.1107 10.1562 11.5266 10.5466C10.9424 10.9369 10.4872 11.4916 10.2183 12.1407C9.94946 12.7897 9.87911 13.5039 10.0162 14.193C10.1532 14.882 10.4915 15.5149 10.9883 16.0117C11.4851 16.5085 12.118 16.8468 12.807 16.9838C13.4961 17.1209 14.2103 17.0505 14.8593 16.7817C15.5084 16.5128 16.0631 16.0576 16.4534 15.4734C16.8438 14.8893 17.0521 14.2025 17.0521 13.5C17.0521 12.5579 16.6778 11.6544 16.0117 10.9883C15.3456 10.3222 14.4421 9.94792 13.5 9.94792ZM13.5 15.1146C13.1807 15.1146 12.8685 15.0199 12.603 14.8425C12.3375 14.6651 12.1305 14.4129 12.0083 14.1179C11.8861 13.8228 11.8541 13.4982 11.9164 13.185C11.9787 12.8718 12.1325 12.5841 12.3583 12.3583C12.5841 12.1325 12.8718 11.9787 13.185 11.9164C13.4982 11.8541 13.8228 11.8861 14.1179 12.0083C14.4129 12.1305 14.6651 12.3375 14.8425 12.603C15.0199 12.8685 15.1146 13.1807 15.1146 13.5C15.1146 13.9282 14.9445 14.3389 14.6417 14.6417C14.3389 14.9445 13.9282 15.1146 13.5 15.1146ZM4.45833 0.906252C3.7558 0.906252 3.06904 1.11458 2.4849 1.50489C1.90077 1.89519 1.44549 2.44995 1.17664 3.09901C0.907789 3.74807 0.837446 4.46228 0.974504 5.15131C1.11156 5.84035 1.44986 6.47327 1.94663 6.97004C2.4434 7.46681 3.07632 7.80511 3.76536 7.94217C4.45439 8.07922 5.1686 8.00888 5.81766 7.74003C6.46672 7.47118 7.02148 7.0159 7.41178 6.43177C7.80209 5.84763 8.01042 5.16087 8.01042 4.45833C8.01042 3.51626 7.63618 2.61278 6.97004 1.94663C6.30389 1.28049 5.40041 0.906252 4.45833 0.906252ZM4.45833 6.07292C4.139 6.07292 3.82684 5.97822 3.56132 5.80081C3.2958 5.6234 3.08886 5.37124 2.96665 5.07621C2.84445 4.78118 2.81248 4.45654 2.87478 4.14334C2.93707 3.83015 3.09085 3.54246 3.31665 3.31665C3.54246 3.09085 3.83015 2.93707 4.14334 2.87478C4.45654 2.81248 4.78118 2.84445 5.07621 2.96665C5.37124 3.08886 5.6234 3.2958 5.80081 3.56132C5.97822 3.82684 6.07292 4.139 6.07292 4.45833C6.07292 4.88655 5.90281 5.29722 5.60002 5.60002C5.29722 5.90281 4.88655 6.07292 4.45833 6.07292ZM13.5 0.906252C12.7975 0.906252 12.1107 1.11458 11.5266 1.50489C10.9424 1.89519 10.4872 2.44995 10.2183 3.09901C9.94946 3.74807 9.87911 4.46228 10.0162 5.15131C10.1532 5.84035 10.4915 6.47327 10.9883 6.97004C11.4851 7.46681 12.118 7.80511 12.807 7.94217C13.4961 8.07922 14.2103 8.00888 14.8593 7.74003C15.5084 7.47118 16.0631 7.0159 16.4534 6.43177C16.8438 5.84763 17.0521 5.16087 17.0521 4.45833C17.0521 3.51626 16.6778 2.61278 16.0117 1.94663C15.3456 1.28049 14.4421 0.906252 13.5 0.906252ZM13.5 6.07292C13.1807 6.07292 12.8685 5.97822 12.603 5.80081C12.3375 5.6234 12.1305 5.37124 12.0083 5.07621C11.8861 4.78118 11.8541 4.45654 11.9164 4.14334C11.9787 3.83015 12.1325 3.54246 12.3583 3.31665C12.5841 3.09085 12.8718 2.93707 13.185 2.87478C13.4982 2.81248 13.8228 2.84445 14.1179 2.96665C14.4129 3.08886 14.6651 3.2958 14.8425 3.56132C15.0199 3.82684 15.1146 4.139 15.1146 4.45833C15.1146 4.88655 14.9445 5.29722 14.6417 5.60002C14.3389 5.90281 13.9282 6.07292 13.5 6.07292Z" fill="#7635FF"/>
</svg>
