<svg width="24" height="24" viewBox="0 0 24 24" fill="none" xmlns="http://www.w3.org/2000/svg">
<g opacity="0.9">
<path d="M20 8.94085C19.9896 8.84899 19.9695 8.75849 19.94 8.67085V8.58085C19.8919 8.47803 19.8278 8.38352 19.75 8.30085L13.75 2.30085C13.6673 2.22307 13.5728 2.15894 13.47 2.11085H13.38C13.2784 2.0526 13.1662 2.0152 13.05 2.00085H7C6.20435 2.00085 5.44129 2.31693 4.87868 2.87953C4.31607 3.44214 4 4.2052 4 5.00085V19.0009C4 19.7965 4.31607 20.5596 4.87868 21.1222C5.44129 21.6848 6.20435 22.0009 7 22.0009H17C17.7956 22.0009 18.5587 21.6848 19.1213 21.1222C19.6839 20.5596 20 19.7965 20 19.0009V9.00085C20 9.00085 20 9.00085 20 8.94085ZM14 5.41085L16.59 8.00085H15C14.7348 8.00085 14.4804 7.8955 14.2929 7.70796C14.1054 7.52042 14 7.26607 14 7.00085V5.41085ZM18 19.0009C18 19.2661 17.8946 19.5204 17.7071 19.708C17.5196 19.8955 17.2652 20.0009 17 20.0009H7C6.73478 20.0009 6.48043 19.8955 6.29289 19.708C6.10536 19.5204 6 19.2661 6 19.0009V5.00085C6 4.73564 6.10536 4.48128 6.29289 4.29375C6.48043 4.10621 6.73478 4.00085 7 4.00085H12V7.00085C12 7.7965 12.3161 8.55957 12.8787 9.12218C13.4413 9.68478 14.2044 10.0009 15 10.0009H18V19.0009Z" fill="#7635FF"/>
</g>
</svg>
