<svg width="24" height="24" viewBox="0 0 24 24" fill="none" xmlns="http://www.w3.org/2000/svg">
<g opacity="0.9">
<path d="M19 5.49999H12.72L12.4 4.49999C12.1926 3.91322 11.8077 3.4055 11.2989 3.04715C10.7901 2.68881 10.1824 2.49759 9.56 2.49999H5C4.20435 2.49999 3.44129 2.81606 2.87868 3.37867C2.31607 3.94128 2 4.70434 2 5.49999V18.5C2 19.2956 2.31607 20.0587 2.87868 20.6213C3.44129 21.1839 4.20435 21.5 5 21.5H19C19.7956 21.5 20.5587 21.1839 21.1213 20.6213C21.6839 20.0587 22 19.2956 22 18.5V8.49999C22 7.70434 21.6839 6.94128 21.1213 6.37867C20.5587 5.81606 19.7956 5.49999 19 5.49999ZM20 18.5C20 18.7652 19.8946 19.0196 19.7071 19.2071C19.5196 19.3946 19.2652 19.5 19 19.5H5C4.73478 19.5 4.48043 19.3946 4.29289 19.2071C4.10536 19.0196 4 18.7652 4 18.5V5.49999C4 5.23478 4.10536 4.98042 4.29289 4.79289C4.48043 4.60535 4.73478 4.49999 5 4.49999H9.56C9.76964 4.49945 9.97416 4.56481 10.1446 4.68683C10.3151 4.80886 10.4429 4.98137 10.51 5.17999L11.05 6.81999C11.1171 7.01861 11.2449 7.19113 11.4154 7.31315C11.5858 7.43517 11.7904 7.50053 12 7.49999H19C19.2652 7.49999 19.5196 7.60535 19.7071 7.79289C19.8946 7.98042 20 8.23478 20 8.49999V18.5Z" fill="#7635FF"/>
</g>
</svg>
