<svg width="24" height="24" viewBox="0 0 24 24" fill="none" xmlns="http://www.w3.org/2000/svg">
<g opacity="0.9">
<path d="M21.1518 2.86062C20.7697 2.47118 20.2852 2.19784 19.7543 2.07219C19.2234 1.94655 18.6678 1.97374 18.1518 2.15062L4.00176 6.88062C3.43107 7.06742 2.93245 7.42677 2.57471 7.90906C2.21698 8.39134 2.01777 8.97279 2.0046 9.57312C1.99143 10.1735 2.16495 10.7631 2.50119 11.2606C2.83743 11.7581 3.31981 12.139 3.88176 12.3506L9.12176 14.3506C9.24108 14.3962 9.34972 14.466 9.4409 14.5554C9.53209 14.6449 9.60387 14.7522 9.65176 14.8706L11.6518 20.1206C11.8553 20.6746 12.2248 21.1524 12.7097 21.4888C13.1947 21.8252 13.7716 22.0039 14.3618 22.0006H14.4318C15.0328 21.9897 15.6153 21.791 16.0977 21.4323C16.5801 21.0736 16.9382 20.573 17.1218 20.0006L21.8518 5.83062C22.0238 5.31956 22.0494 4.77056 21.9257 4.24571C21.802 3.72085 21.5339 3.24107 21.1518 2.86062ZM20.0018 5.20062L15.2218 19.3806C15.1663 19.5601 15.0548 19.7171 14.9036 19.8286C14.7525 19.9402 14.5696 20.0005 14.3818 20.0006C14.195 20.0037 14.0118 19.9498 13.8564 19.8462C13.7009 19.7426 13.5808 19.5942 13.5118 19.4206L11.5118 14.1706C11.3668 13.7891 11.1431 13.4424 10.8554 13.153C10.5677 12.8636 10.2224 12.6379 9.84176 12.4906L4.59176 10.4906C4.41465 10.4257 4.26241 10.3068 4.15654 10.1507C4.05067 9.9946 3.99653 9.80917 4.00176 9.62062C4.00191 9.43277 4.06217 9.24989 4.17373 9.09874C4.28529 8.9476 4.44229 8.83612 4.62176 8.78062L18.8018 4.05062C18.9646 3.98427 19.1431 3.96649 19.3158 3.99945C19.4885 4.0324 19.6479 4.11467 19.7749 4.23631C19.9018 4.35795 19.9908 4.51375 20.031 4.68488C20.0713 4.85601 20.0611 5.03514 20.0018 5.20062Z" fill="#7635FF"/>
</g>
</svg>
