<svg width="40" height="40" viewBox="0 0 40 40" fill="none" xmlns="http://www.w3.org/2000/svg">
<g clip-path="url(#clip0_307_2588)">
<rect width="40" height="40" rx="20" fill="#136EFC"/>
<circle cx="99.5" cy="72.5" r="98.5" fill="url(#paint0_linear_307_2588)"/>
<path d="M20.4982 27.14C19.2049 27.14 18.0115 26.84 16.9182 26.24C15.8382 25.6267 14.9782 24.78 14.3382 23.7C13.7115 22.6067 13.3982 21.38 13.3982 20.02C13.3982 18.66 13.7115 17.44 14.3382 16.36C14.9782 15.28 15.8382 14.44 16.9182 13.84C18.0115 13.2267 19.2049 12.92 20.4982 12.92C21.8049 12.92 22.9982 13.2267 24.0782 13.84C25.1715 14.44 26.0315 15.28 26.6582 16.36C27.2849 17.44 27.5982 18.66 27.5982 20.02C27.5982 21.38 27.2849 22.6067 26.6582 23.7C26.0315 24.78 25.1715 25.6267 24.0782 26.24C22.9982 26.84 21.8049 27.14 20.4982 27.14ZM20.4982 25.16C21.4182 25.16 22.2382 24.9533 22.9582 24.54C23.6782 24.1133 24.2382 23.5133 24.6382 22.74C25.0515 21.9533 25.2582 21.0467 25.2582 20.02C25.2582 18.9933 25.0515 18.0933 24.6382 17.32C24.2382 16.5467 23.6782 15.9533 22.9582 15.54C22.2382 15.1267 21.4182 14.92 20.4982 14.92C19.5782 14.92 18.7582 15.1267 18.0382 15.54C17.3182 15.9533 16.7515 16.5467 16.3382 17.32C15.9382 18.0933 15.7382 18.9933 15.7382 20.02C15.7382 21.0467 15.9382 21.9533 16.3382 22.74C16.7515 23.5133 17.3182 24.1133 18.0382 24.54C18.7582 24.9533 19.5782 25.16 20.4982 25.16Z" fill="white"/>
</g>
<defs>
<linearGradient id="paint0_linear_307_2588" x1="42.6078" y1="160.471" x2="155.713" y2="160.471" gradientUnits="userSpaceOnUse">
<stop stop-color="#FF7611"/>
<stop offset="1" stop-color="white" stop-opacity="0"/>
</linearGradient>
<clipPath id="clip0_307_2588">
<rect width="40" height="40" rx="20" fill="white"/>
</clipPath>
</defs>
</svg>
