<svg width="48" height="38" viewBox="0 0 48 38" fill="none" xmlns="http://www.w3.org/2000/svg">
<path d="M47.4 26.2574C47.7864 26.1081 47.9786 25.6738 47.8293 25.2874L45.3963 18.9912C45.247 18.6048 44.8127 18.4126 44.4264 18.5619C44.04 18.7112 43.8478 19.1455 43.9971 19.5318L46.1598 25.1285L40.5631 27.2912C40.1767 27.4405 39.9845 27.8747 40.1338 28.2611C40.2831 28.6475 40.7174 28.8396 41.1037 28.6903L47.4 26.2574ZM25.4227 15.951L25.1192 16.6368L25.4227 15.951ZM47.4332 24.8719L25.7262 15.2651L25.1192 16.6368L46.8261 26.2436L47.4332 24.8719ZM20.6597 14.4956L10.6969 15.6483L10.8693 17.1384L20.8321 15.9856L20.6597 14.4956ZM5.28489 14.391L1.27553 11.8115L0.463923 13.073L4.47328 15.6525L5.28489 14.391ZM10.6969 15.6483C8.80182 15.8676 6.88928 15.4233 5.28489 14.391L4.47328 15.6525C6.36938 16.8724 8.62966 17.3975 10.8693 17.1384L10.6969 15.6483ZM25.7262 15.2651C24.1362 14.5614 22.387 14.2957 20.6597 14.4956L20.8321 15.9856C22.2936 15.8165 23.7738 16.0414 25.1192 16.6368L25.7262 15.2651Z" fill="#FF8B36"/>
</svg>
