<svg width="47" height="20" viewBox="0 0 47 20" fill="none" xmlns="http://www.w3.org/2000/svg">
<path d="M46.6059 5.44207C46.85 5.10746 46.7767 4.63828 46.4421 4.39414L40.9893 0.415523C40.6546 0.171375 40.1855 0.24471 39.9413 0.579322C39.6972 0.913934 39.7705 1.38311 40.1051 1.62726L44.9521 5.1638L41.4155 10.0107C41.1714 10.3454 41.2447 10.8145 41.5793 11.0587C41.9139 11.3028 42.3831 11.2295 42.6273 10.8949L46.6059 5.44207ZM22.547 8.66588L22.6628 9.40688L22.547 8.66588ZM45.8842 4.259L22.4311 7.92487L22.6628 9.40688L46.1158 5.74101L45.8842 4.259ZM17.754 10.0191L9.99918 16.379L10.9504 17.5389L18.7052 11.1789L17.754 10.0191ZM4.7675 18.25L6.55671e-08 18.25L-6.55671e-08 19.75L4.7675 19.75L4.7675 18.25ZM9.99918 16.379C8.52407 17.5888 6.67527 18.25 4.7675 18.25L4.7675 19.75C7.02213 19.75 9.20708 18.9686 10.9504 17.5389L9.99918 16.379ZM22.4311 7.92487C20.7132 8.19339 19.0984 8.91643 17.754 10.0191L18.7052 11.1789C19.8428 10.2459 21.2092 9.63409 22.6628 9.40688L22.4311 7.92487Z" fill="#326BFF"/>
</svg>
