<svg width="18" height="18" viewBox="0 0 18 18" fill="none" xmlns="http://www.w3.org/2000/svg">
<path d="M13.7812 18H4.21875C1.89253 18 0 16.1075 0 13.7812V4.21875C0 1.89253 1.89253 0 4.21875 0H13.7812C16.1075 0 18 1.89253 18 4.21875V13.7812C18 16.1075 16.1075 18 13.7812 18ZM4.21875 1.40625C2.66794 1.40625 1.40625 2.66794 1.40625 4.21875V13.7812C1.40625 15.3321 2.66794 16.5938 4.21875 16.5938H13.7812C15.3321 16.5938 16.5938 15.3321 16.5938 13.7812V4.21875C16.5938 2.66794 15.3321 1.40625 13.7812 1.40625H9H4.21875Z" fill="#7635FF"/>
<line x1="5.8" y1="6.2" x2="12.2" y2="6.2" stroke="#7635FF" stroke-width="1.6" stroke-linecap="round"/>
<line x1="5.8" y1="9.2" x2="12.2" y2="9.2" stroke="#7635FF" stroke-width="1.6" stroke-linecap="round"/>
<line x1="5.8" y1="12.2" x2="7.2" y2="12.2" stroke="#7635FF" stroke-width="1.6" stroke-linecap="round"/>
</svg>
