<svg width="18" height="18" viewBox="0 0 18 18" fill="none" xmlns="http://www.w3.org/2000/svg">
<rect x="0.68" y="0.68" width="16.64" height="16.64" rx="8.32" stroke="#7635FF" stroke-width="1.36"/>
<circle cx="6.15" cy="7.15" r="1.15" fill="#7635FF"/>
<circle cx="12.15" cy="7.15" r="1.15" fill="#7635FF"/>
<path d="M11.9932 11.4893C12.275 11.7278 12.3128 12.154 12.0367 12.3992C11.6821 12.7142 11.2808 12.9747 10.8461 13.1708C10.2075 13.4588 9.51273 13.6007 8.81238 13.5861C8.11203 13.5715 7.42377 13.4008 6.79777 13.0864C6.37155 12.8724 5.98151 12.5954 5.64027 12.2659C5.37465 12.0094 5.43018 11.5852 5.72169 11.3585C6.0132 11.1319 6.42973 11.1908 6.70937 11.432C6.91848 11.6123 7.14959 11.7668 7.39785 11.8915C7.84605 12.1165 8.33882 12.2388 8.84024 12.2492C9.34167 12.2597 9.83911 12.1581 10.2963 11.9519C10.5495 11.8376 10.7869 11.6929 11.0033 11.5215C11.2928 11.2922 11.7114 11.2507 11.9932 11.4893Z" fill="#7635FF"/>
</svg>
