<svg width="39" height="39" viewBox="0 0 39 39" fill="none" xmlns="http://www.w3.org/2000/svg">
<rect width="39" height="39" rx="12" fill="#FF8B35"/>
<path d="M27.9565 17.6359L27.8841 17.6162L27.9565 17.6359C28.3012 16.3703 27.8794 15.0177 26.8804 14.19L23.0623 11.0265C23.0621 11.0264 23.062 11.0263 23.0618 11.0261C21.34 9.55798 18.6598 9.55791 16.9379 11.0262L13.1199 14.1896C11.5369 15.4549 11.5367 18.0429 13.1199 19.3084C13.1201 19.3086 13.1202 19.3087 13.1204 19.3088L16.9384 22.4722C17.801 23.1869 18.8881 23.5806 19.9999 23.5806C21.1117 23.5806 22.1989 23.1869 23.0615 22.4722L23.0616 22.4721L23.0757 22.4601L23.0758 22.46L23.7203 21.9003C24.0572 21.6078 24.0977 21.0926 23.8115 20.7491C23.5245 20.4046 23.0174 20.3626 22.6795 20.656L22.0423 21.2093C20.8552 22.1875 19.1357 22.1855 17.9507 21.2037L14.1317 18.0395L14.1317 18.0395L14.1307 18.0386C13.3346 17.4026 13.3345 16.0955 14.1307 15.4594L14.1307 15.4594L14.1317 15.4585L17.9507 12.2943C19.138 11.3106 20.8618 11.3106 22.0491 12.2943L25.8681 15.4585L25.916 15.4008L25.8681 15.4585C26.3714 15.8755 26.5848 16.5585 26.4104 17.1986C26.2923 17.6321 26.5403 18.0833 26.9681 18.2047C27.3966 18.3264 27.8382 18.0699 27.9565 17.6359ZM16.3997 16.9713L16.3996 16.9713L16.3974 16.9733C16.0034 17.3309 16.0451 17.8121 16.2913 18.1184C16.4139 18.2709 16.5888 18.3826 16.788 18.4144C16.9888 18.4465 17.2084 18.3967 17.416 18.2363L17.416 18.2364L17.4183 18.2345L17.9518 17.7878C17.9519 17.7877 17.952 17.7877 17.952 17.7876C19.1394 16.8051 20.8623 16.8054 22.0491 17.7888L25.8681 20.9529L25.8681 20.9529L25.8692 20.9538C26.6653 21.5899 26.6652 22.897 25.8692 23.533L25.8691 23.533L25.8681 23.5339L22.0491 26.698C20.8618 27.6818 19.138 27.6818 17.9507 26.698L14.1317 23.5339C13.6707 23.1519 13.4495 22.5425 13.5558 21.9434C13.6344 21.5006 13.3467 21.0744 12.9097 20.9936L12.9097 20.9936C12.4724 20.9128 12.0556 21.2093 11.9769 21.6524L11.9769 21.6524C11.7667 22.8369 12.204 24.044 13.1194 24.8024L16.9384 27.9666C17.801 28.6813 18.8881 29.075 19.9999 29.075C21.1117 29.075 22.1989 28.6813 23.0615 27.9666L26.8794 24.8032C26.8796 24.8031 26.8798 24.8029 26.8799 24.8028C28.4632 23.5373 28.4629 20.9493 26.8799 19.684C26.8798 19.6838 26.8796 19.6837 26.8794 19.6835L23.0623 16.5209C23.0621 16.5208 23.062 16.5206 23.0618 16.5205C21.3399 15.0523 18.6596 15.0524 16.9378 16.5207C16.9377 16.5208 16.9376 16.5208 16.9375 16.5209L16.3997 16.9713Z" fill="white" stroke="white" stroke-width="0.15"/>
</svg>
