<svg width="39" height="39" viewBox="0 0 39 39" fill="none" xmlns="http://www.w3.org/2000/svg">
<rect width="39" height="39" rx="12" fill="#FF8B35"/>
<path d="M26.3746 29C25.9868 29 25.607 28.8568 25.3012 28.5809L23.4662 26.9529C23.1611 26.6823 23.1314 26.2135 23.3999 25.9059C23.6684 25.5982 24.1335 25.5683 24.4385 25.839L26.2763 27.4693C26.2784 27.4712 26.2805 27.473 26.2825 27.4748C26.3001 27.4908 26.3535 27.5393 26.4408 27.5001C26.5281 27.4609 26.5281 27.3884 26.5281 27.3646V14.4514C26.5281 12.8151 25.2076 11.4838 23.5844 11.4838H15.4156C13.7924 11.4838 12.4719 12.8151 12.4719 14.4514V22.6865C12.4719 24.3228 13.7924 25.6541 15.4156 25.6541H21.0823C22.0587 25.6933 22.0579 27.0991 21.0823 27.1379H15.4156C12.9808 27.1379 11 25.141 11 22.6865V14.4514C11 11.9969 12.9808 10 15.4156 10H23.5844C26.0192 10 28 11.9969 28 14.4514V27.3646C28 28.0183 27.632 28.5896 27.0396 28.8556C26.8237 28.9525 26.5978 29 26.3746 29ZM22.986 19.7978C22.643 19.5777 22.1882 19.6797 21.97 20.0254C20.6329 21.9616 18.3167 21.8888 16.9932 20.0254C16.775 19.6797 16.3202 19.5778 15.9772 19.7978C15.6343 20.0178 15.5333 20.4763 15.7515 20.822C15.8062 20.9087 17.156 22.9462 19.5 22.9462C21.8439 22.9462 23.157 20.9087 23.2117 20.822C23.4299 20.4763 23.3289 20.0178 22.986 19.7978ZM22.3701 17.8641C21.9636 17.8641 21.6342 17.532 21.6342 17.1222V15.082C21.673 14.0977 23.0675 14.0984 23.106 15.082V17.1222C23.106 17.532 22.7765 17.8641 22.3701 17.8641ZM17.4026 17.1222V15.082C17.3637 14.0977 15.9692 14.0984 15.9307 15.082V17.1222C15.9307 17.532 16.2602 17.8641 16.6666 17.8641C17.0731 17.8641 17.4026 17.532 17.4026 17.1222Z" fill="white"/>
</svg>
