<svg width="39" height="39" viewBox="0 0 39 39" fill="none" xmlns="http://www.w3.org/2000/svg">
<rect width="39" height="39" rx="12" fill="#FF8B35"/>
<path d="M24.7812 29H15.2188C12.8925 29 11 27.1075 11 24.7812V15.2188C11 12.8925 12.8925 11 15.2188 11H24.7812C27.1075 11 29 12.8925 29 15.2188V24.7812C29 27.1075 27.1075 29 24.7812 29ZM15.2188 12.4062C13.6679 12.4062 12.4062 13.6679 12.4062 15.2188V24.7812C12.4062 26.3321 13.6679 27.5938 15.2188 27.5938H24.7812C26.3321 27.5938 27.5938 26.3321 27.5938 24.7812V15.2188C27.5938 13.6679 26.3321 12.4062 24.7812 12.4062H15.2188ZM22.4769 25.6598C22.1814 25.6598 21.8844 25.5891 21.6095 25.446L20.2162 24.721C20.0808 24.6505 19.9192 24.6504 19.7838 24.721L18.3905 25.446C17.7538 25.7774 16.9986 25.7203 16.4195 25.297C15.8469 24.8784 15.5662 24.1858 15.6868 23.4894L15.9528 21.9537C15.9777 21.8103 15.9292 21.6637 15.8232 21.5614L14.696 20.4737C13.5839 19.4188 14.2126 17.5119 15.7283 17.3094L17.2859 17.0853C17.4362 17.0636 17.5655 16.9713 17.6319 16.8382L18.3285 15.4409C18.9942 14.0735 21.006 14.074 21.6714 15.4409L22.368 16.8381C22.4344 16.9713 22.5637 17.0636 22.714 17.0853L24.2717 17.3094C25.7879 17.5121 26.4156 19.4192 25.3039 20.4737L24.1768 21.5614C24.0707 21.6637 24.0222 21.8103 24.0471 21.9537L24.3131 23.4894C24.4338 24.1858 24.153 24.8784 23.5804 25.297C23.2515 25.5375 22.8656 25.6598 22.4769 25.6598ZM20 23.262C20.2973 23.262 20.5945 23.3325 20.8654 23.4735L22.2586 24.1986C22.4913 24.3197 22.6801 24.2131 22.7506 24.1617C22.8178 24.1126 22.9696 23.972 22.9276 23.7295L22.6615 22.1937C22.557 21.5905 22.7584 20.9758 23.2003 20.5494L24.3275 19.4618C24.507 19.2885 24.4677 19.0879 24.4425 19.0098C24.4165 18.9294 24.3284 18.7382 24.0715 18.7013L22.5138 18.4772C21.9068 18.3899 21.3819 18.0117 21.1096 17.4656L20.413 16.0684C20.2459 15.7309 19.7546 15.7303 19.5871 16.0684L18.8905 17.4656C18.6182 18.0117 18.0933 18.3899 17.4863 18.4772L15.9286 18.7013C15.6717 18.7382 15.5836 18.9294 15.5576 19.0098C15.5323 19.088 15.493 19.2885 15.6726 19.4618L16.7997 20.5494C17.2416 20.9758 17.4431 21.5905 17.3385 22.1938L17.0725 23.7295C17.0305 23.972 17.1823 24.1125 17.2495 24.1617C17.3199 24.2132 17.5087 24.3196 17.7415 24.1986L19.1346 23.4735C19.4055 23.3325 19.7028 23.262 20 23.262Z" fill="white"/>
</svg>
