<svg width="2" height="633" viewBox="0 0 2 633" fill="none" xmlns="http://www.w3.org/2000/svg">
<rect width="2" height="4" rx="1" fill="#C9D5E6"/>
<rect y="17" width="2" height="4" rx="1" fill="#C9D5E6"/>
<rect y="34" width="2" height="4" rx="1" fill="#C9D5E6"/>
<rect y="51" width="2" height="4" rx="1" fill="#C9D5E6"/>
<rect y="68" width="2" height="4" rx="1" fill="#C9D5E6"/>
<rect y="85" width="2" height="4" rx="1" fill="#C9D5E6"/>
<rect y="102" width="2" height="4" rx="1" fill="#C9D5E6"/>
<rect y="119" width="2" height="4" rx="1" fill="#C9D5E6"/>
<rect y="136" width="2" height="4" rx="1" fill="#C9D5E6"/>
<rect y="153" width="2" height="4" rx="1" fill="#C9D5E6"/>
<rect y="170" width="2" height="4" rx="1" fill="#C9D5E6"/>
<rect y="187" width="2" height="4" rx="1" fill="#C9D5E6"/>
<rect y="204" width="2" height="4" rx="1" fill="#C9D5E6"/>
<rect y="221" width="2" height="4" rx="1" fill="#C9D5E6"/>
<rect y="238" width="2" height="4" rx="1" fill="#C9D5E6"/>
<rect y="255" width="2" height="4" rx="1" fill="#C9D5E6"/>
<rect y="272" width="2" height="4" rx="1" fill="#C9D5E6"/>
<rect y="289" width="2" height="4" rx="1" fill="#C9D5E6"/>
<rect y="306" width="2" height="4" rx="1" fill="#C9D5E6"/>
<rect y="323" width="2" height="4" rx="1" fill="#C9D5E6"/>
<rect y="340" width="2" height="4" rx="1" fill="#C9D5E6"/>
<rect y="357" width="2" height="4" rx="1" fill="#C9D5E6"/>
<rect y="374" width="2" height="4" rx="1" fill="#C9D5E6"/>
<rect y="391" width="2" height="4" rx="1" fill="#C9D5E6"/>
<rect y="408" width="2" height="4" rx="1" fill="#C9D5E6"/>
<rect y="425" width="2" height="4" rx="1" fill="#C9D5E6"/>
<rect y="442" width="2" height="4" rx="1" fill="#C9D5E6"/>
<rect y="459" width="2" height="4" rx="1" fill="#C9D5E6"/>
<rect y="476" width="2" height="4" rx="1" fill="#C9D5E6"/>
<rect y="493" width="2" height="4" rx="1" fill="#C9D5E6"/>
<rect y="510" width="2" height="4" rx="1" fill="#C9D5E6"/>
<rect y="527" width="2" height="4" rx="1" fill="#C9D5E6"/>
<rect y="544" width="2" height="4" rx="1" fill="#C9D5E6"/>
<rect y="561" width="2" height="4" rx="1" fill="#C9D5E6"/>
<rect y="578" width="2" height="4" rx="1" fill="#C9D5E6"/>
<rect y="595" width="2" height="4" rx="1" fill="#C9D5E6"/>
<rect y="612" width="2" height="4" rx="1" fill="#C9D5E6"/>
<rect y="629" width="2" height="4" rx="1" fill="#C9D5E6"/>
</svg>
