<svg width="327" height="2" viewBox="0 0 327 2" fill="none" xmlns="http://www.w3.org/2000/svg">
<rect x="191" width="2" height="4" rx="1" transform="rotate(90 191 0)" fill="#BCCCE1"/>
<rect x="174" width="2" height="4" rx="1" transform="rotate(90 174 0)" fill="#BCCCE1"/>
<rect x="157" width="2" height="4" rx="1" transform="rotate(90 157 0)" fill="#BCCCE1"/>
<rect x="140" width="2" height="4" rx="1" transform="rotate(90 140 0)" fill="#BCCCE1"/>
<rect x="123" width="2" height="4" rx="1" transform="rotate(90 123 0)" fill="#BCCCE1"/>
<rect x="106" width="2" height="4" rx="1" transform="rotate(90 106 0)" fill="#BCCCE1"/>
<rect x="89" width="2" height="4" rx="1" transform="rotate(90 89 0)" fill="#BCCCE1"/>
<rect x="72" width="2" height="4" rx="1" transform="rotate(90 72 0)" fill="#BCCCE1"/>
<rect x="55" width="2" height="4" rx="1" transform="rotate(90 55 0)" fill="#BCCCE1"/>
<rect x="38" width="2" height="4" rx="1" transform="rotate(90 38 0)" fill="#BCCCE1"/>
<rect x="21" width="2" height="4" rx="1" transform="rotate(90 21 0)" fill="#BCCCE1"/>
<rect x="4" width="2" height="4" rx="1" transform="rotate(90 4 0)" fill="#BCCCE1"/>
<rect x="327" width="2" height="4" rx="1" transform="rotate(90 327 0)" fill="#BCCCE1"/>
<rect x="310" width="2" height="4" rx="1" transform="rotate(90 310 0)" fill="#BCCCE1"/>
<rect x="293" width="2" height="4" rx="1" transform="rotate(90 293 0)" fill="#BCCCE1"/>
<rect x="276" width="2" height="4" rx="1" transform="rotate(90 276 0)" fill="#BCCCE1"/>
<rect x="259" width="2" height="4" rx="1" transform="rotate(90 259 0)" fill="#BCCCE1"/>
<rect x="242" width="2" height="4" rx="1" transform="rotate(90 242 0)" fill="#BCCCE1"/>
<rect x="225" width="2" height="4" rx="1" transform="rotate(90 225 0)" fill="#BCCCE1"/>
<rect x="208" width="2" height="4" rx="1" transform="rotate(90 208 0)" fill="#BCCCE1"/>
</svg>
