<svg width="127" height="127" viewBox="0 0 127 127" fill="none" xmlns="http://www.w3.org/2000/svg">
<path d="M62.999 105.421C39.8409 105.421 21.001 86.5769 21.001 63.4189C21.001 40.2609 39.8409 21.4209 62.999 21.4209C86.157 21.4209 104.997 40.2649 104.997 63.4189C104.997 86.5729 86.157 105.421 62.999 105.421ZM62.999 27.5031C43.1928 27.5031 27.0792 43.6167 27.0792 63.4229C27.0792 83.2291 43.1928 99.3427 62.999 99.3427C82.8052 99.3427 98.9188 83.2291 98.9188 63.4229C98.9188 43.6167 82.8052 27.5031 62.999 27.5031Z" fill="#E6ECF4"/>
<path d="M80.5489 100.838C79.4383 100.838 78.3638 100.225 77.8306 99.1661C77.0768 97.6666 77.6782 95.8382 79.1777 95.0804C91.3782 88.9338 98.9559 76.6325 98.9559 62.98C98.9559 43.1728 82.8423 27.0625 63.0401 27.0625C61.3601 27.0625 60.001 25.6992 60.001 24.0232C60.001 22.3472 61.3642 20.98 63.0401 20.98C86.1981 20.98 105.038 39.8208 105.038 62.98C105.038 78.942 96.1774 93.3242 81.9121 100.509C81.4751 100.734 81.01 100.838 80.5489 100.838Z" fill="#6D32F0"/>
<path d="M56.7237 57.9981C56.533 57.2008 56.1863 56.6028 55.6837 56.2041C55.181 55.8054 54.479 55.6061 53.5777 55.6061C52.2083 55.6061 51.1857 56.1348 50.5097 57.1921C49.8337 58.2321 49.4783 59.9654 49.4437 62.3921C49.8943 61.6294 50.553 61.0401 51.4197 60.6241C52.2863 60.2081 53.2223 60.0001 54.2277 60.0001C55.3717 60.0001 56.377 60.2514 57.2437 60.7541C58.1277 61.2394 58.8123 61.9501 59.2977 62.8861C59.8003 63.8221 60.0517 64.9401 60.0517 66.2401C60.0517 67.4534 59.809 68.5368 59.3237 69.4901C58.8557 70.4434 58.1537 71.1974 57.2177 71.7521C56.2817 72.2894 55.155 72.5581 53.8377 72.5581C52.0523 72.5581 50.6483 72.1681 49.6257 71.3881C48.6203 70.5908 47.9097 69.4728 47.4937 68.0341C47.095 66.5954 46.8957 64.8014 46.8957 62.6521C46.8957 56.3081 49.1317 53.1361 53.6037 53.1361C55.337 53.1361 56.6977 53.6041 57.6857 54.5401C58.691 55.4761 59.2803 56.6288 59.4537 57.9981H56.7237ZM53.5777 62.4961C52.5203 62.4961 51.619 62.8168 50.8737 63.4581C50.1457 64.0821 49.7817 64.9921 49.7817 66.1881C49.7817 67.3841 50.1197 68.3374 50.7957 69.0481C51.489 69.7414 52.451 70.0881 53.6817 70.0881C54.7737 70.0881 55.6317 69.7501 56.2557 69.0741C56.897 68.3981 57.2177 67.4968 57.2177 66.3701C57.2177 65.1914 56.9057 64.2554 56.2817 63.5621C55.675 62.8514 54.7737 62.4961 53.5777 62.4961ZM62.8233 56.3081V53.6041H68.2313V72.5581H65.2413V56.3081H62.8233Z" fill="black"/>
<path d="M74.5978 65.364C74.5978 64.78 74.7658 64.324 75.1018 63.996C75.4458 63.66 75.8858 63.492 76.4218 63.492C76.9578 63.492 77.3938 63.66 77.7298 63.996C78.0738 64.324 78.2458 64.78 78.2458 65.364C78.2458 65.948 78.0738 66.408 77.7298 66.744C77.3938 67.08 76.9578 67.248 76.4218 67.248C75.8858 67.248 75.4458 67.08 75.1018 66.744C74.7658 66.408 74.5978 65.948 74.5978 65.364ZM81.9178 63.648L77.1298 72H75.7858L80.5738 63.648H81.9178ZM76.4218 64.32C75.9178 64.32 75.6658 64.668 75.6658 65.364C75.6658 66.068 75.9178 66.42 76.4218 66.42C76.6618 66.42 76.8458 66.336 76.9738 66.168C77.1098 65.992 77.1777 65.724 77.1777 65.364C77.1777 64.668 76.9258 64.32 76.4218 64.32ZM79.4818 70.272C79.4818 69.688 79.6498 69.232 79.9858 68.904C80.3298 68.568 80.7698 68.4 81.3058 68.4C81.8338 68.4 82.2658 68.568 82.6018 68.904C82.9458 69.232 83.1178 69.688 83.1178 70.272C83.1178 70.856 82.9458 71.316 82.6018 71.652C82.2658 71.988 81.8338 72.156 81.3058 72.156C80.7698 72.156 80.3298 71.988 79.9858 71.652C79.6498 71.316 79.4818 70.856 79.4818 70.272ZM81.2938 69.228C80.7898 69.228 80.5378 69.576 80.5378 70.272C80.5378 70.968 80.7898 71.316 81.2938 71.316C81.7978 71.316 82.0498 70.968 82.0498 70.272C82.0498 69.576 81.7978 69.228 81.2938 69.228Z" fill="black"/>
</svg>
