<svg width="27" height="27" viewBox="0 0 27 27" fill="none" xmlns="http://www.w3.org/2000/svg">
<path d="M18.5612 0C17.1218 0.0995619 15.4394 1.02093 14.459 2.22074C13.5646 3.30917 12.8288 4.92578 13.1157 6.49684C14.6885 6.54577 16.3135 5.60247 17.2551 4.38241C18.136 3.24673 18.8026 1.64024 18.5612 0Z" fill="black"/>
<path d="M24.2815 8.7388C22.8994 7.00574 20.9571 6 19.1228 6C16.7013 6 15.677 7.15931 13.9945 7.15931C12.2598 7.15931 10.9419 6.00338 8.84769 6.00338C6.79064 6.00338 4.60028 7.26055 3.21147 9.41042C1.25905 12.4378 1.59317 18.1297 4.75721 22.9778C5.88952 24.7126 7.40151 26.6633 9.37925 26.6802C11.1393 26.6971 11.6354 25.5513 14.0198 25.5394C16.4043 25.5259 16.8565 26.6954 18.6132 26.6768C20.5926 26.6616 22.1873 24.5 23.3196 22.7652C24.1313 21.5215 24.4333 20.8955 25.0628 19.4915C20.4846 17.7483 19.7506 11.238 24.2815 8.7388Z" fill="black"/>
</svg>
