<svg width="24" height="24" viewBox="0 0 24 24" fill="none" xmlns="http://www.w3.org/2000/svg">
<g clip-path="url(#clip0_339_467)">
<path d="M22.6752 4.24134e-08H1.32367C0.592529 0.000366253 -0.000183063 0.593445 4.24134e-08 1.32477V22.6763C0.000366253 23.4075 0.593445 24.0002 1.32477 24H22.6752C23.4067 24.0002 23.9998 23.4073 24 22.6758C24 22.6756 24 22.6754 24 22.6752V1.32367C23.9996 0.592529 23.4066 -0.000183063 22.6752 4.24134e-08Z" fill="#5475E5"/>
<path d="M16.5703 24.0002V14.7189H19.6992L20.168 11.0861H16.5703V8.7724C16.5703 7.72302 16.8616 7.008 18.3664 7.008H20.2734V3.76758C19.9417 3.72345 18.8033 3.62476 17.4787 3.62476C14.7131 3.62476 12.8203 5.31226 12.8203 8.4126V11.0861H9.70312V14.7189H12.8203V24.0002H16.5703Z" fill="white"/>
</g>
<defs>
<clipPath id="clip0_339_467">
<rect width="24" height="24" fill="white"/>
</clipPath>
</defs>
</svg>
