<svg width="24" height="24" viewBox="0 0 24 24" fill="none" xmlns="http://www.w3.org/2000/svg">
<g clip-path="url(#clip0_339_449)">
<path d="M5.31891 14.5036L4.4835 17.6223L1.43011 17.6869C0.517594 15.9944 0 14.0579 0 12.0001C0 10.0102 0.483938 8.13374 1.34175 6.48145H1.34241L4.06078 6.97982L5.25159 9.68188C5.00236 10.4085 4.86652 11.1885 4.86652 12.0001C4.86661 12.881 5.02617 13.725 5.31891 14.5036Z" fill="#FBBB00"/>
<path d="M23.7907 9.7583C23.9285 10.4842 24.0003 11.2339 24.0003 12.0001C24.0003 12.8592 23.91 13.6972 23.7379 14.5056C23.1538 17.2563 21.6274 19.6583 19.5129 21.3581L19.5123 21.3574L16.0883 21.1827L15.6037 18.1576C17.0068 17.3348 18.1033 16.0471 18.6809 14.5056H12.2642V9.7583H18.7745H23.7907Z" fill="#518EF8"/>
<path d="M19.5124 21.3572L19.5131 21.3579C17.4566 23.0109 14.8443 23.9999 12.0006 23.9999C7.43066 23.9999 3.45749 21.4456 1.43066 17.6867L5.31946 14.5034C6.33285 17.208 8.94187 19.1333 12.0006 19.1333C13.3153 19.1333 14.5469 18.7779 15.6038 18.1575L19.5124 21.3572Z" fill="#28B446"/>
<path d="M19.6596 2.76262L15.7721 5.94525C14.6783 5.26153 13.3853 4.86656 12 4.86656C8.87212 4.86656 6.21431 6.88017 5.25169 9.68175L1.34245 6.48131H1.3418C3.33895 2.63077 7.36223 0 12 0C14.9117 0 17.5814 1.03716 19.6596 2.76262Z" fill="#F14336"/>
</g>
<defs>
<clipPath id="clip0_339_449">
<rect width="24" height="24" fill="white"/>
</clipPath>
</defs>
</svg>
