<svg width="305" height="69" viewBox="0 0 305 69" fill="none" xmlns="http://www.w3.org/2000/svg">
<path fill-rule="evenodd" clip-rule="evenodd" d="M304.5 5.24538e-07L301.5 0V55C301.5 57.7614 299.262 60 296.5 60L14.5003 59.9999V62.9999L296.5 63C300.919 63 304.5 59.4183 304.5 55V5.24538e-07Z" fill="#4586FF"/>
<path fill-rule="evenodd" clip-rule="evenodd" d="M6.56051 54.2713C5.88184 53.7962 4.94654 53.9613 4.47147 54.6399L0.271472 60.6399C-0.049273 61.0981 -0.0884451 61.6967 0.169852 62.1928C0.428149 62.6889 0.941005 63.0001 1.50032 63.0001H15.5003C16.3287 63.0001 17.0003 62.3286 17.0003 61.5001C17.0003 60.6717 16.3287 60.0001 15.5003 60.0001H4.3813L6.92917 56.3603C7.40424 55.6817 7.23919 54.7464 6.56051 54.2713Z" fill="#4586FF"/>
<path fill-rule="evenodd" clip-rule="evenodd" d="M0.668109 60.2521C-0.021184 60.7116 -0.207445 61.6429 0.252084 62.3322L4.25208 68.3322C4.71161 69.0215 5.64292 69.2078 6.33221 68.7482C7.0215 68.2887 7.20776 67.3574 6.74823 66.6681L2.74823 60.6681C2.28871 59.9788 1.3574 59.7926 0.668109 60.2521Z" fill="#4586FF"/>
</svg>
