<svg width="309" height="67" viewBox="0 0 309 67" fill="none" xmlns="http://www.w3.org/2000/svg">
<path d="M303 51V8C303 3.58172 299.418 0 295 0H0V3H295C297.761 3 300 5.23858 300 8V51H303Z" fill="#4586FF"/>
<path fill-rule="evenodd" clip-rule="evenodd" d="M301.5 49.5C302.328 49.5 303 50.1716 303 51V62.119L306.64 59.5712C307.318 59.0961 308.254 59.2611 308.729 59.9398C309.204 60.6185 309.039 61.5538 308.36 62.0289L302.36 66.2289C301.854 66.5832 301.182 66.5909 300.668 66.2481L294.668 62.2481C293.979 61.7885 293.792 60.8572 294.252 60.1679C294.711 59.4787 295.643 59.2924 296.332 59.7519L300 62.1972V51C300 50.1716 300.672 49.5 301.5 49.5Z" fill="#4586FF"/>
</svg>
