<svg width="40" height="43" viewBox="0 0 40 43" fill="none" xmlns="http://www.w3.org/2000/svg">
<path d="M35.894 34.1056L23.2254 41.4198C21.17 42.6065 18.6258 42.6199 16.5857 41.4548L3.96299 34.2454C1.93213 33.0853 0.677083 30.9115 0.687873 28.5727L0.755916 14.0362C0.766721 11.687 2.05037 9.49038 4.10581 8.30368L16.7744 0.989487C18.8298 -0.197218 21.3742 -0.210749 23.4141 0.954479L36.0368 8.16398C38.0679 9.32387 39.323 11.4977 39.3119 13.8366L39.2795 20.8061C39.2752 21.7156 38.5295 22.4585 37.6136 22.4647C36.6978 22.4713 35.959 21.7395 35.9631 20.8297L35.9956 13.8602C36.0011 12.691 35.3735 11.6041 34.358 11.0239L21.7355 3.8147C20.7155 3.23195 19.4435 3.23877 18.4156 3.8322L5.74705 11.1464C4.71919 11.7398 4.07728 12.838 4.07196 14.0127L4.0042 28.5491C3.99873 29.7183 4.62625 30.8052 5.64176 31.3854L18.2643 38.5946C19.2843 39.1774 20.5563 39.1706 21.5842 38.5771L34.2527 31.2629C35.2806 30.6695 35.9225 29.5713 35.9278 28.3966C35.9321 27.4871 36.6777 26.7447 37.5937 26.738C38.5095 26.7314 39.2484 27.4635 39.2442 28.373C39.2331 30.7223 37.9494 32.9189 35.894 34.1056ZM28.6451 16.2134C25.9304 11.5113 19.8434 9.92455 15.0763 12.6768C10.3096 15.4289 8.64025 21.4938 11.355 26.1958C14.0697 30.8979 20.1566 32.4843 24.9233 29.7323C29.6903 26.98 31.3598 20.9154 28.6451 16.2134ZM25.7633 17.8772C27.5731 21.0119 26.46 25.0551 23.2822 26.8898C20.1044 28.7245 16.0463 27.6669 14.2365 24.5321C12.4267 21.3974 13.5397 17.3542 16.7176 15.5195C19.8954 13.6848 23.9534 14.7425 25.7633 17.8772Z" fill="#7635FF"/>
<rect x="2.91797" y="13.7012" width="36.3981" height="14.5592" fill="#7635FF"/>
<rect x="19.9062" y="2.1748" width="22.3477" height="9.70616" transform="rotate(30 19.9062 2.1748)" fill="#7635FF"/>
<rect x="1.70703" y="12.8262" width="22.3477" height="9.70616" transform="rotate(-30.247 1.70703 12.8262)" fill="#7635FF"/>
<rect x="21.0586" y="40.5605" width="22.3477" height="9.70616" transform="rotate(-150 21.0586 40.5605)" fill="#7635FF"/>
<rect x="38.0469" y="29.9102" width="22.3477" height="9.70616" transform="rotate(149.753 38.0469 29.9102)" fill="#7635FF"/>
<path d="M19.74 27.105C18.97 27.105 18.28 26.98 17.67 26.73C17.06 26.48 16.57 26.11 16.2 25.62C15.84 25.13 15.65 24.54 15.63 23.85H18.36C18.4 24.24 18.535 24.54 18.765 24.75C18.995 24.95 19.295 25.05 19.665 25.05C20.045 25.05 20.345 24.965 20.565 24.795C20.785 24.615 20.895 24.37 20.895 24.06C20.895 23.8 20.805 23.585 20.625 23.415C20.455 23.245 20.24 23.105 19.98 22.995C19.73 22.885 19.37 22.76 18.9 22.62C18.22 22.41 17.665 22.2 17.235 21.99C16.805 21.78 16.435 21.47 16.125 21.06C15.815 20.65 15.66 20.115 15.66 19.455C15.66 18.475 16.015 17.71 16.725 17.16C17.435 16.6 18.36 16.32 19.5 16.32C20.66 16.32 21.595 16.6 22.305 17.16C23.015 17.71 23.395 18.48 23.445 19.47H20.67C20.65 19.13 20.525 18.865 20.295 18.675C20.065 18.475 19.77 18.375 19.41 18.375C19.1 18.375 18.85 18.46 18.66 18.63C18.47 18.79 18.375 19.025 18.375 19.335C18.375 19.675 18.535 19.94 18.855 20.13C19.175 20.32 19.675 20.525 20.355 20.745C21.035 20.975 21.585 21.195 22.005 21.405C22.435 21.615 22.805 21.92 23.115 22.32C23.425 22.72 23.58 23.235 23.58 23.865C23.58 24.465 23.425 25.01 23.115 25.5C22.815 25.99 22.375 26.38 21.795 26.67C21.215 26.96 20.53 27.105 19.74 27.105Z" fill="white"/>
</svg>
