<svg width="40" height="43" viewBox="0 0 40 43" fill="none" xmlns="http://www.w3.org/2000/svg">
<path d="M35.894 34.1056L23.2254 41.4198C21.17 42.6065 18.6258 42.6199 16.5857 41.4548L3.96299 34.2454C1.93213 33.0853 0.677083 30.9115 0.687873 28.5727L0.755916 14.0362C0.766721 11.687 2.05037 9.49038 4.10581 8.30368L16.7744 0.989487C18.8298 -0.197218 21.3742 -0.210749 23.4141 0.954479L36.0368 8.16398C38.0679 9.32387 39.323 11.4977 39.3119 13.8366L39.2795 20.8061C39.2752 21.7156 38.5295 22.4585 37.6136 22.4647C36.6978 22.4713 35.959 21.7395 35.9631 20.8297L35.9956 13.8602C36.0011 12.691 35.3735 11.6041 34.358 11.0239L21.7355 3.8147C20.7155 3.23195 19.4435 3.23877 18.4156 3.8322L5.74705 11.1464C4.71919 11.7398 4.07728 12.838 4.07196 14.0127L4.0042 28.5491C3.99873 29.7183 4.62625 30.8052 5.64176 31.3854L18.2643 38.5946C19.2843 39.1774 20.5563 39.1706 21.5842 38.5771L34.2527 31.2629C35.2806 30.6695 35.9225 29.5713 35.9278 28.3966C35.9321 27.4871 36.6777 26.7447 37.5937 26.738C38.5095 26.7314 39.2484 27.4635 39.2442 28.373C39.2331 30.7223 37.9494 32.9189 35.894 34.1056ZM28.6451 16.2134C25.9304 11.5113 19.8434 9.92455 15.0763 12.6768C10.3096 15.4289 8.64025 21.4938 11.355 26.1958C14.0697 30.8979 20.1566 32.4843 24.9233 29.7323C29.6903 26.98 31.3598 20.9154 28.6451 16.2134ZM25.7633 17.8772C27.5731 21.0119 26.46 25.0551 23.2822 26.8898C20.1044 28.7245 16.0463 27.6669 14.2365 24.5321C12.4267 21.3974 13.5397 17.3542 16.7176 15.5195C19.8954 13.6848 23.9534 14.7425 25.7633 17.8772Z" fill="#FF8B36"/>
<rect x="2.91797" y="13.7012" width="36.3981" height="14.5592" fill="#FF8B36"/>
<rect x="19.9062" y="2.1748" width="22.3477" height="9.70616" transform="rotate(30 19.9062 2.1748)" fill="#FF8B36"/>
<rect x="1.70703" y="12.8262" width="22.3477" height="9.70616" transform="rotate(-30.247 1.70703 12.8262)" fill="#FF8B36"/>
<rect x="21.0586" y="40.5605" width="22.3477" height="9.70616" transform="rotate(-150 21.0586 40.5605)" fill="#FF8B36"/>
<rect x="38.0469" y="29.9102" width="22.3477" height="9.70616" transform="rotate(149.753 38.0469 29.9102)" fill="#FF8B36"/>
<path d="M28.42 16.47L25.675 27H22.57L20.89 20.07L19.15 27H16.045L13.375 16.47H16.12L17.635 24.135L19.51 16.47H22.33L24.13 24.135L25.66 16.47H28.42Z" fill="white"/>
</svg>
