<svg width="56" height="55" viewBox="0 0 56 55" fill="none" xmlns="http://www.w3.org/2000/svg">
<path d="M43.894 40.1056L31.2254 47.4198C29.17 48.6065 26.6258 48.6199 24.5857 47.4548L11.963 40.2453C9.93213 39.0852 8.67708 36.9114 8.68787 34.5726L8.75592 20.0361C8.76672 17.6869 10.0504 15.4903 12.1058 14.3036L24.7744 6.98943C26.8298 5.80272 29.3742 5.78919 31.4141 6.95442L44.0368 14.1639C46.0679 15.3238 47.323 17.4976 47.3119 19.8366L47.2795 26.806C47.2752 27.7155 46.5295 28.4584 45.6136 28.4647C44.6978 28.4712 43.959 27.7394 43.9631 26.8296L43.9956 19.8602C44.0011 18.6909 43.3735 17.604 42.358 17.0239L29.7355 9.81464C28.7155 9.23188 27.4435 9.23871 26.4156 9.83214L13.747 17.1463C12.7192 17.7398 12.0773 18.8379 12.072 20.0127L12.0042 34.549C11.9987 35.7183 12.6263 36.8052 13.6418 37.3854L26.2643 44.5946C27.2843 45.1773 28.5563 45.1705 29.5842 44.5771L42.2527 37.2629C43.2806 36.6694 43.9225 35.5713 43.9278 34.3965C43.9321 33.487 44.6777 32.7446 45.5937 32.7379C46.5095 32.7314 47.2484 33.4634 47.2442 34.3729C47.2331 36.7223 45.9494 38.9189 43.894 40.1056ZM36.6451 22.2133C33.9304 17.5112 27.8434 15.9245 23.0763 18.6767C18.3096 21.4288 16.6402 27.4937 19.355 32.1957C22.0697 36.8978 28.1566 38.4843 32.9233 35.7322C37.6903 32.98 39.3598 26.9154 36.6451 22.2133ZM33.7633 23.8771C35.5731 27.0118 34.46 31.055 31.2822 32.8898C28.1044 34.7245 24.0463 33.6668 22.2365 30.5321C20.4267 27.3974 21.5397 23.3542 24.7176 21.5194C27.8954 19.6847 31.9534 20.7424 33.7633 23.8771Z" fill="#7635FF"/>
<rect x="10.9219" y="19.7013" width="36.3981" height="14.5592" fill="#7635FF"/>
<rect x="27.9062" y="8.17523" width="22.3477" height="9.70616" transform="rotate(30 27.9062 8.17523)" fill="#7635FF"/>
<rect x="9.70312" y="18.8258" width="22.3477" height="9.70616" transform="rotate(-30.247 9.70312 18.8258)" fill="#7635FF"/>
<rect x="29.0625" y="46.5606" width="22.3477" height="9.70616" transform="rotate(-150 29.0625 46.5606)" fill="#7635FF"/>
<rect x="46.0469" y="35.91" width="22.3477" height="9.70616" transform="rotate(149.753 46.0469 35.91)" fill="#7635FF"/>
<path d="M36.42 22.47L33.675 33H30.57L28.89 26.07L27.15 33H24.045L21.375 22.47H24.12L25.635 30.135L27.51 22.47H30.33L32.13 30.135L33.66 22.47H36.42Z" fill="white"/>
</svg>
