<svg width="56" height="55" viewBox="0 0 56 55" fill="none" xmlns="http://www.w3.org/2000/svg">
<path d="M43.894 40.1056L31.2254 47.4198C29.17 48.6065 26.6258 48.6198 24.5857 47.4548L11.963 40.2453C9.93213 39.0852 8.67708 36.9114 8.68787 34.5726L8.75592 20.0361C8.76672 17.6869 10.0504 15.4903 12.1058 14.3036L24.7744 6.98941C26.8298 5.80271 29.3742 5.78917 31.4141 6.9544L44.0368 14.1639C46.0679 15.3238 47.323 17.4976 47.3119 19.8366L47.2795 26.806C47.2752 27.7155 46.5295 28.4584 45.6136 28.4647C44.6978 28.4712 43.959 27.7394 43.9631 26.8296L43.9956 19.8602C44.0011 18.6909 43.3735 17.604 42.358 17.0238L29.7355 9.81462C28.7155 9.23187 27.4435 9.23869 26.4156 9.83213L13.747 17.1463C12.7192 17.7398 12.0773 18.8379 12.072 20.0126L12.0042 34.549C11.9987 35.7183 12.6263 36.8052 13.6418 37.3853L26.2643 44.5946C27.2843 45.1773 28.5563 45.1705 29.5842 44.577L42.2527 37.2629C43.2806 36.6694 43.9225 35.5713 43.9278 34.3965C43.9321 33.487 44.6777 32.7446 45.5937 32.7379C46.5095 32.7313 47.2484 33.4634 47.2442 34.3729C47.2331 36.7223 45.9494 38.9189 43.894 40.1056ZM36.6451 22.2133C33.9304 17.5112 27.8434 15.9245 23.0763 18.6767C18.3096 21.4288 16.6402 27.4937 19.355 32.1957C22.0697 36.8978 28.1566 38.4843 32.9233 35.7322C37.6903 32.9799 39.3598 26.9153 36.6451 22.2133ZM33.7633 23.8771C35.5731 27.0118 34.46 31.055 31.2822 32.8897C28.1044 34.7245 24.0463 33.6668 22.2365 30.5321C20.4267 27.3974 21.5397 23.3542 24.7176 21.5194C27.8954 19.6847 31.9534 20.7424 33.7633 23.8771Z" fill="#7635FF"/>
<rect x="10.9219" y="19.7013" width="36.3981" height="14.5592" fill="#7635FF"/>
<rect x="27.9062" y="8.17525" width="22.3477" height="9.70616" transform="rotate(30 27.9062 8.17525)" fill="#7635FF"/>
<rect x="9.70312" y="18.8258" width="22.3477" height="9.70616" transform="rotate(-30.247 9.70312 18.8258)" fill="#7635FF"/>
<rect x="29.0625" y="46.5606" width="22.3477" height="9.70616" transform="rotate(-150 29.0625 46.5606)" fill="#7635FF"/>
<rect x="46.0469" y="35.91" width="22.3477" height="9.70616" transform="rotate(149.753 46.0469 35.91)" fill="#7635FF"/>
<path d="M27.74 33.105C26.97 33.105 26.28 32.98 25.67 32.73C25.06 32.48 24.57 32.11 24.2 31.62C23.84 31.13 23.65 30.54 23.63 29.85H26.36C26.4 30.24 26.535 30.54 26.765 30.75C26.995 30.95 27.295 31.05 27.665 31.05C28.045 31.05 28.345 30.965 28.565 30.795C28.785 30.615 28.895 30.37 28.895 30.06C28.895 29.8 28.805 29.585 28.625 29.415C28.455 29.245 28.24 29.105 27.98 28.995C27.73 28.885 27.37 28.76 26.9 28.62C26.22 28.41 25.665 28.2 25.235 27.99C24.805 27.78 24.435 27.47 24.125 27.06C23.815 26.65 23.66 26.115 23.66 25.455C23.66 24.475 24.015 23.71 24.725 23.16C25.435 22.6 26.36 22.32 27.5 22.32C28.66 22.32 29.595 22.6 30.305 23.16C31.015 23.71 31.395 24.48 31.445 25.47H28.67C28.65 25.13 28.525 24.865 28.295 24.675C28.065 24.475 27.77 24.375 27.41 24.375C27.1 24.375 26.85 24.46 26.66 24.63C26.47 24.79 26.375 25.025 26.375 25.335C26.375 25.675 26.535 25.94 26.855 26.13C27.175 26.32 27.675 26.525 28.355 26.745C29.035 26.975 29.585 27.195 30.005 27.405C30.435 27.615 30.805 27.92 31.115 28.32C31.425 28.72 31.58 29.235 31.58 29.865C31.58 30.465 31.425 31.01 31.115 31.5C30.815 31.99 30.375 32.38 29.795 32.67C29.215 32.96 28.53 33.105 27.74 33.105Z" fill="white"/>
</svg>
