<svg width="16" height="17" viewBox="0 0 16 17" fill="none" xmlns="http://www.w3.org/2000/svg">
<path d="M8 2.42781C6.01845 2.42781 4.40633 4.03993 4.40633 6.02148V9.92765C4.40633 11.6961 5.69033 13.1703 7.37501 13.4669V14.7411C6.69975 14.8066 6.02532 14.9784 5.35452 15.2564C5.03566 15.3886 4.88428 15.7542 5.01644 16.073C5.14859 16.3919 5.51418 16.5433 5.83308 16.4111C7.29126 15.8068 8.70886 15.8068 10.1669 16.4111C10.4778 16.5423 10.8514 16.3952 10.9836 16.0731C11.1157 15.7542 10.9644 15.3886 10.6455 15.2564C9.97474 14.9784 9.30031 14.8066 8.62502 14.7411V13.4669C10.3097 13.1703 11.5937 11.6961 11.5937 9.92768V6.02151C11.5937 4.03993 9.98155 2.42781 8 2.42781ZM10.3437 9.92765C10.2146 13.0376 5.78426 13.0352 5.6563 9.92765V6.02148C5.78542 2.91148 10.2157 2.91389 10.3437 6.02148V9.92765ZM14.0936 6.02885C14.0609 6.85734 12.8767 6.85824 12.8436 6.02885C12.8436 4.16611 11.7551 2.4469 10.0704 1.64895C9.75843 1.50117 9.62534 1.12852 9.77309 0.81659C9.92086 0.504659 10.2935 0.371537 10.6054 0.519284C12.7033 1.49095 14.1163 3.71165 14.0936 6.02885ZM3.15635 6.02885C3.1242 6.85652 1.93963 6.8589 1.90638 6.02885C1.88363 3.71168 3.29672 1.49092 5.39455 0.519284C5.70642 0.371537 6.07913 0.504628 6.22691 0.81659C6.37466 1.12852 6.24157 1.5012 5.92961 1.64895C4.24492 2.44687 3.15635 4.16611 3.15635 6.02885ZM8.78123 9.7089H7.21877C6.38953 9.6759 6.39016 8.49164 7.21877 8.45893H8.78123C9.61047 8.49196 9.60981 9.67621 8.78123 9.7089ZM1.20333 3.24379C1.46426 2.60793 1.81338 2.01191 2.24103 1.47223C2.4554 1.20171 2.40987 0.808622 2.13934 0.594251C1.86885 0.379881 1.47573 0.425411 1.26136 0.695936C0.760935 1.32745 0.35235 2.025 0.0469499 2.76927C-0.0840786 3.0886 0.0685432 3.45369 0.38788 3.58472C0.465535 3.61659 0.545877 3.63169 0.624906 3.63169C0.870901 3.63169 1.10418 3.48547 1.20333 3.24379ZM15.6121 3.58472C15.9314 3.45369 16.084 3.0886 15.953 2.76927C15.6476 2.02503 15.239 1.32745 14.7386 0.695968C14.5243 0.425411 14.1312 0.379881 13.8607 0.594282C13.5901 0.808653 13.5446 1.20174 13.759 1.47226C14.1866 2.01194 14.5357 2.60796 14.7967 3.24382C14.8959 3.4855 15.1291 3.63172 15.3751 3.63172C15.4541 3.63169 15.5345 3.61659 15.6121 3.58472Z" fill="white"/>
</svg>
