<svg width="16" height="17" viewBox="0 0 16 17" fill="none" xmlns="http://www.w3.org/2000/svg">
<path d="M0.624807 16.4587C0.544284 16.4587 0.463106 16.4432 0.38577 16.4111C0.152265 16.3144 0 16.0865 0 15.8338L0.000343712 8.53506C-0.0490571 1.38888 8.64731 -2.24447 13.6854 2.82038C18.6699 7.87795 15.0712 16.465 7.96204 16.4587C6.70277 16.4588 5.50062 16.1763 4.38902 15.6193C3.32686 15.0869 2.0409 15.3016 1.18906 16.1534L1.06682 16.2757C0.947272 16.3952 0.787414 16.4587 0.624807 16.4587ZM3.16425 14.0793C3.77112 14.0793 4.38165 14.2175 4.94902 14.5018C5.88692 14.972 6.9035 15.2099 7.9691 15.2089C13.9429 15.2176 17.0042 7.92044 12.7972 3.69981C8.52991 -0.570656 1.21924 2.4881 1.25018 8.52603C1.25018 8.52803 1.25021 8.53007 1.25021 8.53207L1.24993 14.5648C1.84211 14.2446 2.50091 14.0793 3.16425 14.0793ZM6.12433 8.4596C6.12433 8.89103 5.77459 9.24077 5.34317 9.24077C4.30697 9.19962 4.30725 7.71944 5.34317 7.67844C5.77459 7.67844 6.12433 8.02818 6.12433 8.4596ZM8.03037 7.67844C7.59895 7.67844 7.24921 8.02818 7.24921 8.4596C7.29036 9.4958 8.77054 9.49552 8.81154 8.4596C8.81154 8.02818 8.46179 7.67844 8.03037 7.67844ZM10.7176 7.67844C10.2862 7.67844 9.93642 8.02818 9.93642 8.4596C9.97757 9.4958 11.4577 9.49552 11.4987 8.4596C11.4987 8.02818 11.149 7.67844 10.7176 7.67844Z" fill="white"/>
</svg>
