<svg width="16" height="14" viewBox="0 0 16 14" fill="none" xmlns="http://www.w3.org/2000/svg">
<path d="M12.25 13.459H3.75C1.68225 13.459 0 11.7268 0 9.5976V4.32037C0 2.1912 1.68225 0.458984 3.75 0.458984H12.25C14.3177 0.458984 16 2.1912 16 4.32037V9.5976C16 11.7268 14.3177 13.459 12.25 13.459ZM3.75 1.74611C2.3715 1.74611 1.25 2.90093 1.25 4.32037V9.5976C1.25 11.017 2.3715 12.1719 3.75 12.1719H12.25C13.6285 12.1719 14.75 11.017 14.75 9.5976V4.32037C14.75 2.90093 13.6285 1.74611 12.25 1.74611H3.75ZM10.2902 8.09829L13.3794 5.66845C13.6537 5.45269 13.7062 5.04882 13.4967 4.76636C13.2871 4.4839 12.8949 4.42984 12.6206 4.6456L9.53178 7.07515C8.63988 7.77564 7.39428 7.77615 6.50178 7.07692L3.50863 4.68109C3.23609 4.46292 2.84341 4.5136 2.63159 4.79423C2.41975 5.07485 2.46894 5.47917 2.74147 5.69731L5.73694 8.09497C5.73844 8.0962 5.73997 8.09739 5.7415 8.09858C6.411 8.62437 7.21319 8.88723 8.01556 8.88723C8.81794 8.88723 9.62047 8.62421 10.2902 8.09829Z" fill="white"/>
</svg>
