<svg width="118" height="118" viewBox="0 0 118 118" fill="none" xmlns="http://www.w3.org/2000/svg">
<path opacity="0.499387" d="M28.4624 30.5379C44.1817 13.6725 70.5971 12.7433 87.4626 28.4626C104.328 44.1819 105.257 70.5973 89.5379 87.4628C73.8186 104.328 47.4032 105.257 30.5377 89.5381" stroke="#9BA4B0" stroke-width="1.5" stroke-linecap="round" stroke-dasharray="1 8"/>
<path d="M74 38.6786V75.3243C74 75.7691 73.7969 76.1957 73.4355 76.5102C73.074 76.8248 72.5838 77.0015 72.0726 77.0015H41.9274C41.4162 77.0015 40.926 76.8248 40.5645 76.5102C40.2031 76.1957 40 75.7691 40 75.3243V49.5298L50.6009 37.0015H72.0726C72.5838 37.0015 73.074 37.1782 73.4355 37.4927C73.7969 37.8072 74 38.2338 74 38.6786Z" fill="#EDEEEF"/>
<path d="M57.5269 52.603H27.2188C25.9934 52.603 25 53.5964 25 54.8218V65.9599C25 67.1853 25.9934 68.1786 27.2188 68.1786H57.5269C58.7523 68.1786 59.7456 67.1853 59.7456 65.9599V54.8218C59.7456 53.5964 58.7523 52.603 57.5269 52.603Z" fill="#FF3717"/>
<path d="M36.2741 61.2895V63.6857H34.3438V57.1071H37.0062C37.5245 57.0792 38.0427 57.1624 38.5261 57.3512C38.8701 57.507 39.1599 57.7619 39.3581 58.0834C39.5588 58.4183 39.6625 58.8024 39.6577 59.1928C39.6707 59.476 39.6218 59.7587 39.5146 60.0212C39.4073 60.2836 39.2441 60.5196 39.0364 60.7126C38.574 61.1149 37.9733 61.3217 37.3612 61.2895H36.2741ZM36.2741 59.8806H36.9175C37.4833 59.8806 37.7606 59.6587 37.7606 59.226C37.7606 58.7934 37.5055 58.6048 36.9841 58.6048H36.2741V59.8806ZM40.3788 63.6857V57.1071H42.8083C43.251 57.0738 43.6955 57.1448 44.1058 57.3143C44.5162 57.4839 44.8811 57.7473 45.1713 58.0834C45.694 58.7248 45.973 59.5303 45.9589 60.3576C46.0057 61.2364 45.7026 62.098 45.1158 62.7539C44.8372 63.0627 44.4939 63.3064 44.1104 63.4675C43.7269 63.6286 43.3126 63.7031 42.897 63.6857H40.3788ZM42.3091 62.1659H42.8083C42.9743 62.163 43.1366 62.1164 43.2788 62.0307C43.421 61.945 43.5381 61.8232 43.6181 61.6778C43.8505 61.278 43.9622 60.8195 43.9398 60.3576C43.9485 59.9259 43.8494 59.4988 43.6514 59.1151C43.5737 58.9589 43.4531 58.828 43.3039 58.7377C43.1546 58.6473 42.9827 58.6012 42.8083 58.6048H42.3091V62.1659ZM50.6959 61.2229H48.6547V63.6857H46.7798V57.1071H51.3172V58.6713H48.6547V59.7807H50.6959V61.2229Z" fill="#EDEEEF"/>
</svg>
