<svg width="19" height="19" viewBox="0 0 19 19" fill="none" xmlns="http://www.w3.org/2000/svg">
<path d="M19 9.5C19 12.0196 17.9991 14.4359 16.2175 16.2175C14.4359 17.9991 12.0196 19 9.5 19C6.98044 19 4.56408 17.9991 2.78249 16.2175C1.00089 14.4359 0 12.0196 0 9.5C0 9.29004 0.0834075 9.08867 0.231874 8.94021C0.38034 8.79174 0.581704 8.70833 0.791667 8.70833C1.00163 8.70833 1.20299 8.79174 1.35146 8.94021C1.49993 9.08867 1.58333 9.29004 1.58333 9.5C1.58333 11.0658 2.04764 12.5964 2.91753 13.8983C3.78743 15.2002 5.02384 16.2149 6.47042 16.814C7.917 17.4132 9.50878 17.57 11.0445 17.2646C12.5801 16.9591 13.9908 16.2051 15.0979 15.0979C16.2051 13.9908 16.9591 12.5801 17.2646 11.0445C17.57 9.50878 17.4132 7.917 16.814 6.47042C16.2149 5.02384 15.2002 3.78743 13.8983 2.91753C12.5964 2.04764 11.0658 1.58333 9.5 1.58333C9.29004 1.58333 9.08867 1.49993 8.94021 1.35146C8.79174 1.20299 8.70833 1.00163 8.70833 0.791667C8.70833 0.581704 8.79174 0.38034 8.94021 0.231874C9.08867 0.0834075 9.29004 0 9.5 0C12.0187 0.00272419 14.4335 1.00449 16.2145 2.78549C17.9955 4.5665 18.9973 6.98128 19 9.5ZM8.13596 8.70833H6.33333C6.12337 8.70833 5.92201 8.79174 5.77354 8.94021C5.62507 9.08867 5.54167 9.29004 5.54167 9.5C5.54167 9.70996 5.62507 9.91133 5.77354 10.0598C5.92201 10.2083 6.12337 10.2917 6.33333 10.2917H8.13596C8.25686 10.5016 8.42447 10.681 8.62581 10.8157C8.82715 10.9505 9.05681 11.0372 9.29701 11.0689C9.53721 11.1007 9.7815 11.0767 10.011 10.9989C10.2404 10.9211 10.4489 10.7915 10.6202 10.6202C10.7915 10.4489 10.9211 10.2404 10.9989 10.011C11.0767 9.7815 11.1007 9.53721 11.0689 9.29701C11.0372 9.05681 10.9505 8.82715 10.8157 8.62581C10.681 8.42447 10.5016 8.25686 10.2917 8.13596V5.54167C10.2917 5.3317 10.2083 5.13034 10.0598 4.98187C9.91133 4.83341 9.70996 4.75 9.5 4.75C9.29004 4.75 9.08867 4.83341 8.94021 4.98187C8.79174 5.13034 8.70833 5.3317 8.70833 5.54167V8.13596C8.47117 8.27393 8.27393 8.47117 8.13596 8.70833ZM1.44638 6.954C1.60295 6.954 1.75601 6.90757 1.8862 6.82058C2.01639 6.73359 2.11786 6.60995 2.17778 6.46529C2.2377 6.32063 2.25338 6.16146 2.22283 6.00789C2.19228 5.85432 2.11688 5.71326 2.00617 5.60254C1.89545 5.49182 1.75439 5.41642 1.60082 5.38588C1.44725 5.35533 1.28808 5.37101 1.14342 5.43093C0.998759 5.49085 0.875118 5.59232 0.788128 5.72251C0.701139 5.8527 0.654708 6.00576 0.654708 6.16233C0.654708 6.3723 0.738116 6.57366 0.886582 6.72213C1.03505 6.87059 1.23641 6.954 1.44638 6.954ZM3.34163 4.12221C3.4982 4.12221 3.65126 4.07578 3.78145 3.98879C3.91164 3.9018 4.01311 3.77816 4.07303 3.6335C4.13295 3.48884 4.14863 3.32966 4.11808 3.1761C4.08753 3.02253 4.01213 2.88147 3.90142 2.77075C3.7907 2.66003 3.64964 2.58463 3.49607 2.55409C3.3425 2.52354 3.18333 2.53922 3.03867 2.59914C2.89401 2.65906 2.77037 2.76053 2.68338 2.89072C2.59639 3.0209 2.54996 3.17396 2.54996 3.33054C2.54996 3.5405 2.63337 3.74187 2.78183 3.89033C2.9303 4.0388 3.13166 4.12221 3.34163 4.12221ZM6.15837 2.24913C6.31495 2.24913 6.46801 2.20269 6.5982 2.11571C6.72839 2.02872 6.82986 1.90507 6.88978 1.76042C6.9497 1.61576 6.96538 1.45658 6.93483 1.30301C6.90428 1.14944 6.82888 1.00838 6.71817 0.897666C6.60745 0.786949 6.46639 0.71155 6.31282 0.681003C6.15925 0.650457 6.00008 0.666134 5.85542 0.726054C5.71076 0.785973 5.58712 0.887443 5.50013 1.01763C5.41314 1.14782 5.36671 1.30088 5.36671 1.45746C5.36671 1.66742 5.45012 1.86878 5.59858 2.01725C5.74705 2.16572 5.94841 2.24913 6.15837 2.24913Z" fill="#7635FF"/>
</svg>
