<svg width="134" height="48" viewBox="0 0 134 48" fill="none" xmlns="http://www.w3.org/2000/svg">
<path d="M62.2 14.06V27.02C62.2 28.44 62.57 29.53 63.31 30.29C64.05 31.03 65.09 31.4 66.43 31.4C67.79 31.4 68.84 31.03 69.58 30.29C70.32 29.53 70.69 28.44 70.69 27.02V14.06H74.92V26.99C74.92 28.77 74.53 30.28 73.75 31.52C72.99 32.74 71.96 33.66 70.66 34.28C69.38 34.9 67.95 35.21 66.37 35.21C64.81 35.21 63.39 34.9 62.11 34.28C60.85 33.66 59.85 32.74 59.11 31.52C58.37 30.28 58 28.77 58 26.99V14.06H62.2Z" fill="black"/>
<path d="M79.608 16.4C78.868 16.4 78.248 16.17 77.748 15.71C77.268 15.23 77.028 14.64 77.028 13.94C77.028 13.24 77.268 12.66 77.748 12.2C78.248 11.72 78.868 11.48 79.608 11.48C80.348 11.48 80.958 11.72 81.438 12.2C81.938 12.66 82.188 13.24 82.188 13.94C82.188 14.64 81.938 15.23 81.438 15.71C80.958 16.17 80.348 16.4 79.608 16.4ZM81.678 18.38V35H77.478V18.38H81.678Z" fill="black"/>
<path d="M93.5376 18.14C95.5176 18.14 97.1176 18.77 98.3376 20.03C99.5576 21.27 100.168 23.01 100.168 25.25V35H95.9676V25.82C95.9676 24.5 95.6376 23.49 94.9776 22.79C94.3176 22.07 93.4176 21.71 92.2776 21.71C91.1176 21.71 90.1976 22.07 89.5176 22.79C88.8576 23.49 88.5276 24.5 88.5276 25.82V35H84.3276V18.38H88.5276V20.45C89.0876 19.73 89.7976 19.17 90.6576 18.77C91.5376 18.35 92.4976 18.14 93.5376 18.14Z" fill="black"/>
<path d="M118.112 26.33C118.112 26.93 118.072 27.47 117.992 27.95H105.842C105.942 29.15 106.362 30.09 107.102 30.77C107.842 31.45 108.752 31.79 109.832 31.79C111.392 31.79 112.502 31.12 113.162 29.78H117.692C117.212 31.38 116.292 32.7 114.932 33.74C113.572 34.76 111.902 35.27 109.922 35.27C108.322 35.27 106.882 34.92 105.602 34.22C104.342 33.5 103.352 32.49 102.632 31.19C101.932 29.89 101.582 28.39 101.582 26.69C101.582 24.97 101.932 23.46 102.632 22.16C103.332 20.86 104.312 19.86 105.572 19.16C106.832 18.46 108.282 18.11 109.922 18.11C111.502 18.11 112.912 18.45 114.152 19.13C115.412 19.81 116.382 20.78 117.062 22.04C117.762 23.28 118.112 24.71 118.112 26.33ZM113.762 25.13C113.742 24.05 113.352 23.19 112.592 22.55C111.832 21.89 110.902 21.56 109.802 21.56C108.762 21.56 107.882 21.88 107.162 22.52C106.462 23.14 106.032 24.01 105.872 25.13H113.762Z" fill="black"/>
<path d="M123.877 12.8V35H119.677V12.8H123.877Z" fill="black"/>
<path d="M24.5075 46.9776L38.2833 38.6639C40.5183 37.3151 41.9142 34.8183 41.9262 32.1479L41.9999 15.6252C42.012 12.9666 40.6472 10.4958 38.4386 9.17737L24.7126 0.982706C22.4944 -0.341748 19.7276 -0.326368 17.4925 1.0225L3.71674 9.33616C1.48166 10.685 0.0858149 13.1818 0.0740652 15.852L7.50538e-05 32.3749C-0.0116583 35.0333 1.35308 37.5041 3.56144 38.8227L17.2874 47.0174C19.5059 48.3416 22.2724 48.3264 24.5075 46.9776Z" fill="#FDFDFE"/>
<path d="M9 29.4542L21.5714 23.9996V35.9996L9 29.4542Z" fill="#AB36C6"/>
<path d="M21.5714 12.0004L9 29.4549L21.5714 24.0004V12.0004Z" fill="#D873EA"/>
<path d="M21.577 11.9996L34.1484 29.4542L21.577 23.9996V11.9996Z" fill="#BE4BD8"/>
<path d="M34.1484 29.4542L21.577 23.9996V35.9996L34.1484 29.4542Z" fill="#9833A4"/>
</svg>
