<svg width="81" height="31" viewBox="0 0 81 31" fill="none" xmlns="http://www.w3.org/2000/svg">
<path d="M43.7285 8.10059C37.1892 8.10059 32.2422 13.1984 32.2422 19.5137C32.2422 26.1713 37.3977 30.9268 43.7285 30.9268C50.0592 30.9268 55.1958 26.1713 55.1958 19.5137C55.1958 13.1984 50.2677 8.10059 43.7285 8.10059ZM43.7285 14.1305C46.5526 14.1115 48.8651 16.5272 48.8651 19.5137C48.8651 22.4811 46.5526 24.8968 43.7285 24.8968C40.9043 24.8968 38.5919 22.4811 38.5919 19.5137C38.5919 16.5272 40.9043 14.1305 43.7285 14.1305Z" fill="#8A8FBA"/>
<path d="M76.4491 26.9313C76.4491 29.1379 74.6674 30.9259 72.4687 30.9259C70.27 30.9259 68.4883 29.1379 68.4883 26.9313C68.4883 24.7248 70.27 22.9368 72.4687 22.9368C74.6674 22.9368 76.4491 24.7248 76.4491 26.9313Z" fill="#8A8FBA"/>
<path d="M64.8604 30.166H58.6055V1.82349H64.8604V30.166Z" fill="#8A8FBA"/>
<path fill-rule="evenodd" clip-rule="evenodd" d="M3.64062 30.1662L15.0132 1.82373H20.889L32.072 30.1662H24.1112L22.7844 26.1716H12.9282L11.6014 30.1662H3.64062ZM20.889 20.2749H15.0132L17.9511 10.764L20.889 20.2749Z" fill="#8A8FBA"/>
</svg>
