<svg width="805" height="998" viewBox="0 0 805 998" fill="none" xmlns="http://www.w3.org/2000/svg">
<path d="M469.649 978.425L733.398 819.253C776.191 793.428 802.916 745.625 803.146 694.498L804.557 378.157C804.788 327.257 778.658 279.95 736.372 254.708L473.576 97.8147C431.108 72.4569 378.135 72.7514 335.343 98.5766L71.5937 257.749C28.8012 283.574 2.07659 331.377 1.85163 382.499L0.435031 698.844C0.210387 749.741 26.3395 797.048 68.6203 822.293L331.416 979.187C373.89 1004.54 426.857 1004.25 469.649 978.425Z" fill="#171E5A"/>
<path d="M65.5117 484.025L413.46 333.056V665.188L65.5117 484.025Z" fill="#3A1EFF"/>
<path d="M413.46 0.947876L65.5117 484.049L413.46 333.08V0.947876Z" fill="#7C2CFF"/>
<path d="M413.462 0.92334L761.41 484.025L413.462 333.055V0.92334Z" fill="#4B22FF"/>
<path d="M761.41 484.025L413.462 333.056V665.188L761.41 484.025Z" fill="#2F1EBC"/>
</svg>
