<svg width="127" height="127" viewBox="0 0 127 127" fill="none" xmlns="http://www.w3.org/2000/svg">
<path d="M63 105.421C39.8419 105.421 21.002 86.5767 21.002 63.4187C21.002 40.2606 39.8419 21.4207 63 21.4207C86.158 21.4207 104.998 40.2646 104.998 63.4187C104.998 86.5727 86.158 105.421 63 105.421ZM63 27.5028C43.1937 27.5028 27.0801 43.6164 27.0801 63.4227C27.0801 83.2289 43.1937 99.3425 63 99.3425C82.8062 99.3425 98.9198 83.2289 98.9198 63.4227C98.9198 43.6164 82.8062 27.5028 63 27.5028Z" fill="#E6ECF4"/>
<path d="M80.5499 100.838C79.4393 100.838 78.3648 100.224 77.8316 99.1659C77.0778 97.6663 77.6792 95.838 79.1787 95.0802C91.3792 88.9335 98.9569 76.6322 98.9569 62.9797C98.9569 43.1726 82.8433 27.0622 63.041 27.0622C61.3611 27.0622 60.002 25.699 60.002 24.023C60.002 22.347 61.3651 20.9797 63.041 20.9797C86.1991 20.9797 105.039 39.8206 105.039 62.9797C105.039 78.9417 96.1784 93.324 81.9131 100.509C81.4761 100.734 81.011 100.838 80.5499 100.838Z" fill="#4586FF"/>
<path d="M46.2976 69.0277V66.7917L55.0336 54.2597H58.6216V66.4537H61.0396V69.0277H58.6216V72.9797H55.7096V69.0277H46.2976ZM55.8396 57.2757L49.7036 66.4537H55.8396V57.2757ZM73.6875 58.4197C73.4969 57.6224 73.1502 57.0244 72.6475 56.6257C72.1449 56.2271 71.4429 56.0277 70.5415 56.0277C69.1722 56.0277 68.1495 56.5564 67.4735 57.6137C66.7975 58.6537 66.4422 60.3871 66.4075 62.8137C66.8582 62.0511 67.5169 61.4617 68.3835 61.0457C69.2502 60.6297 70.1862 60.4217 71.1915 60.4217C72.3355 60.4217 73.3409 60.6731 74.2075 61.1757C75.0915 61.6611 75.7762 62.3717 76.2615 63.3077C76.7642 64.2437 77.0155 65.3617 77.0155 66.6617C77.0155 67.8751 76.7729 68.9584 76.2875 69.9117C75.8195 70.8651 75.1175 71.6191 74.1815 72.1737C73.2455 72.7111 72.1189 72.9797 70.8015 72.9797C69.0162 72.9797 67.6122 72.5897 66.5895 71.8097C65.5842 71.0124 64.8735 69.8944 64.4575 68.4557C64.0589 67.0171 63.8595 65.2231 63.8595 63.0737C63.8595 56.7297 66.0955 53.5577 70.5675 53.5577C72.3009 53.5577 73.6615 54.0257 74.6495 54.9617C75.6549 55.8977 76.2442 57.0504 76.4175 58.4197H73.6875ZM70.5415 62.9177C69.4842 62.9177 68.5829 63.2384 67.8375 63.8797C67.1095 64.5037 66.7455 65.4137 66.7455 66.6097C66.7455 67.8057 67.0835 68.7591 67.7595 69.4697C68.4529 70.1631 69.4149 70.5097 70.6455 70.5097C71.7375 70.5097 72.5955 70.1717 73.2195 69.4957C73.8609 68.8197 74.1815 67.9184 74.1815 66.7917C74.1815 65.6131 73.8695 64.6771 73.2455 63.9837C72.6389 63.2731 71.7375 62.9177 70.5415 62.9177Z" fill="black"/>
</svg>
