<svg width="126" height="126" viewBox="0 0 126 126" fill="none" xmlns="http://www.w3.org/2000/svg">
<path d="M62.998 104.999C39.84 104.999 21 86.1551 21 62.997C21 39.839 39.84 20.999 62.998 20.999C86.156 20.999 104.996 39.843 104.996 62.997C104.996 86.151 86.156 104.999 62.998 104.999ZM62.998 27.0812C43.1918 27.0812 27.0782 43.1948 27.0782 63.001C27.0782 82.8072 43.1918 98.9208 62.998 98.9208C82.8042 98.9208 98.9178 82.8072 98.9178 63.001C98.9178 43.1948 82.8042 27.0812 62.998 27.0812Z" fill="#E6ECF4"/>
<path d="M22.7272 52.1331C27.3865 34.7445 42.5756 22.2694 60.5254 21.0853C62.203 20.9744 63.6482 22.2416 63.7591 23.9192C63.871 25.5929 62.6027 27.0421 60.9252 27.1529C45.5739 28.1658 32.5831 38.8349 28.5983 53.7063C23.4721 72.8376 34.8661 92.5727 53.9975 97.6989C73.1288 102.825 92.86 91.43 97.9862 72.2987C98.421 70.676 100.089 69.716 101.708 70.1497C103.327 70.5835 104.3 72.2512 103.865 73.8739C97.8713 96.2429 74.7971 109.565 52.4282 103.571C30.0582 97.5811 16.7335 74.5021 22.7272 52.1331Z" fill="#6D32F0"/>
<path d="M56.7237 57.9981C56.533 57.2008 56.1863 56.6028 55.6837 56.2041C55.181 55.8054 54.479 55.6061 53.5777 55.6061C52.2083 55.6061 51.1857 56.1348 50.5097 57.1921C49.8337 58.2321 49.4783 59.9654 49.4437 62.3921C49.8943 61.6294 50.553 61.0401 51.4197 60.6241C52.2863 60.2081 53.2223 60.0001 54.2277 60.0001C55.3717 60.0001 56.377 60.2514 57.2437 60.7541C58.1277 61.2394 58.8123 61.9501 59.2977 62.8861C59.8003 63.8221 60.0517 64.9401 60.0517 66.2401C60.0517 67.4534 59.809 68.5368 59.3237 69.4901C58.8557 70.4434 58.1537 71.1974 57.2177 71.7521C56.2817 72.2894 55.155 72.5581 53.8377 72.5581C52.0523 72.5581 50.6483 72.1681 49.6257 71.3881C48.6203 70.5908 47.9097 69.4728 47.4937 68.0341C47.095 66.5954 46.8957 64.8014 46.8957 62.6521C46.8957 56.3081 49.1317 53.1361 53.6037 53.1361C55.337 53.1361 56.6977 53.6041 57.6857 54.5401C58.691 55.4761 59.2803 56.6288 59.4537 57.9981H56.7237ZM53.5777 62.4961C52.5203 62.4961 51.619 62.8168 50.8737 63.4581C50.1457 64.0821 49.7817 64.9921 49.7817 66.1881C49.7817 67.3841 50.1197 68.3374 50.7957 69.0481C51.489 69.7414 52.451 70.0881 53.6817 70.0881C54.7737 70.0881 55.6317 69.7501 56.2557 69.0741C56.897 68.3981 57.2177 67.4968 57.2177 66.3701C57.2177 65.1914 56.9057 64.2554 56.2817 63.5621C55.675 62.8514 54.7737 62.4961 53.5777 62.4961ZM62.8233 56.3081V53.6041H68.2313V72.5581H65.2413V56.3081H62.8233Z" fill="black"/>
<path d="M74.5978 65.364C74.5978 64.78 74.7658 64.324 75.1018 63.996C75.4458 63.66 75.8858 63.492 76.4218 63.492C76.9578 63.492 77.3938 63.66 77.7298 63.996C78.0738 64.324 78.2458 64.78 78.2458 65.364C78.2458 65.948 78.0738 66.408 77.7298 66.744C77.3938 67.08 76.9578 67.248 76.4218 67.248C75.8858 67.248 75.4458 67.08 75.1018 66.744C74.7658 66.408 74.5978 65.948 74.5978 65.364ZM81.9178 63.648L77.1298 72H75.7858L80.5738 63.648H81.9178ZM76.4218 64.32C75.9178 64.32 75.6658 64.668 75.6658 65.364C75.6658 66.068 75.9178 66.42 76.4218 66.42C76.6618 66.42 76.8458 66.336 76.9738 66.168C77.1098 65.992 77.1777 65.724 77.1777 65.364C77.1777 64.668 76.9258 64.32 76.4218 64.32ZM79.4818 70.272C79.4818 69.688 79.6498 69.232 79.9858 68.904C80.3298 68.568 80.7698 68.4 81.3058 68.4C81.8338 68.4 82.2658 68.568 82.6018 68.904C82.9458 69.232 83.1178 69.688 83.1178 70.272C83.1178 70.856 82.9458 71.316 82.6018 71.652C82.2658 71.988 81.8338 72.156 81.3058 72.156C80.7698 72.156 80.3298 71.988 79.9858 71.652C79.6498 71.316 79.4818 70.856 79.4818 70.272ZM81.2938 69.228C80.7898 69.228 80.5378 69.576 80.5378 70.272C80.5378 70.968 80.7898 71.316 81.2938 71.316C81.7978 71.316 82.0498 70.968 82.0498 70.272C82.0498 69.576 81.7978 69.228 81.2938 69.228Z" fill="black"/>
</svg>
