<svg width="127" height="127" viewBox="0 0 127 127" fill="none" xmlns="http://www.w3.org/2000/svg">
<path d="M63.0019 105.421C39.8439 105.421 21.0039 86.5767 21.0039 63.4187C21.0039 40.2606 39.8439 21.4207 63.0019 21.4207C86.1599 21.4207 105 40.2646 105 63.4187C105 86.5727 86.1599 105.421 63.0019 105.421ZM63.0019 27.5028C43.1957 27.5028 27.0821 43.6164 27.0821 63.4227C27.0821 83.2289 43.1957 99.3425 63.0019 99.3425C82.8081 99.3425 98.9217 83.2289 98.9217 63.4227C98.9217 43.6164 82.8081 27.5028 63.0019 27.5028Z" fill="#E6ECF4"/>
<path d="M80.5519 100.838C79.4413 100.838 78.3668 100.224 77.8335 99.1659C77.0798 97.6663 77.6812 95.838 79.1807 95.0802C91.3811 88.9335 98.9588 76.6322 98.9588 62.9797C98.9588 43.1726 82.8452 27.0622 63.043 27.0622C61.3631 27.0622 60.0039 25.699 60.0039 24.023C60.0039 22.347 61.3671 20.9797 63.043 20.9797C86.201 20.9797 105.041 39.8206 105.041 62.9797C105.041 78.9417 96.1803 93.324 81.915 100.509C81.478 100.734 81.0129 100.838 80.5519 100.838Z" fill="#4586FF"/>
<path d="M52.5564 68.9497C54.2204 67.5111 55.5291 66.3324 56.4824 65.4137C57.4531 64.4777 58.2591 63.5071 58.9004 62.5017C59.5417 61.4964 59.8624 60.4911 59.8624 59.4857C59.8624 58.4457 59.6111 57.6311 59.1084 57.0417C58.6231 56.4524 57.8517 56.1577 56.7944 56.1577C55.7717 56.1577 54.9744 56.4871 54.4024 57.1457C53.8477 57.7871 53.5531 58.6537 53.5184 59.7457H50.6584C50.7104 57.7697 51.2997 56.2617 52.4264 55.2217C53.5704 54.1644 55.0177 53.6357 56.7684 53.6357C58.6577 53.6357 60.1311 54.1557 61.1884 55.1957C62.2631 56.2357 62.8004 57.6224 62.8004 59.3557C62.8004 60.6037 62.4797 61.8084 61.8384 62.9697C61.2144 64.1137 60.4604 65.1451 59.5764 66.0637C58.7097 66.9651 57.6004 68.0137 56.2484 69.2097L55.0784 70.2497H63.3204V72.7197H50.6844V70.5617L52.5564 68.9497Z" fill="black"/>
<path d="M71.4298 61.6517L68.1658 75.0797H66.8218L70.0738 61.6517H71.4298ZM78.6139 65.4077H74.5939V67.7957C74.7619 67.5717 75.0099 67.3837 75.3379 67.2317C75.6739 67.0797 76.0299 67.0037 76.4059 67.0037C77.0779 67.0037 77.6219 67.1477 78.0379 67.4357C78.4619 67.7237 78.7619 68.0877 78.9379 68.5277C79.1219 68.9677 79.2139 69.4317 79.2139 69.9197C79.2139 70.5117 79.0979 71.0397 78.8659 71.5037C78.6419 71.9597 78.3019 72.3197 77.8459 72.5837C77.3979 72.8477 76.8459 72.9797 76.1899 72.9797C75.3179 72.9797 74.6179 72.7637 74.0899 72.3317C73.5619 71.8997 73.2459 71.3277 73.1419 70.6157H74.4739C74.5619 70.9917 74.7579 71.2917 75.0619 71.5157C75.3659 71.7317 75.7459 71.8397 76.2019 71.8397C76.7699 71.8397 77.1939 71.6677 77.4739 71.3237C77.7619 70.9797 77.9059 70.5237 77.9059 69.9557C77.9059 69.3797 77.7619 68.9397 77.4739 68.6357C77.1859 68.3237 76.7619 68.1677 76.2019 68.1677C75.8099 68.1677 75.4779 68.2677 75.2059 68.4677C74.9419 68.6597 74.7499 68.9237 74.6299 69.2597H73.3339V64.2077H78.6139V65.4077Z" fill="black"/>
</svg>
