<svg width="127" height="127" viewBox="0 0 127 127" fill="none" xmlns="http://www.w3.org/2000/svg">
<path d="M62.998 105.441C39.84 105.441 21 86.5972 21 63.4392C21 40.2811 39.84 21.4412 62.998 21.4412C86.156 21.4412 104.996 40.2851 104.996 63.4392C104.996 86.5932 86.156 105.441 62.998 105.441ZM62.998 27.5234C43.1918 27.5234 27.0782 43.637 27.0782 63.4432C27.0782 83.2494 43.1918 99.363 62.998 99.363C82.8042 99.363 98.9178 83.2494 98.9178 63.4432C98.9178 43.637 82.8042 27.5234 62.998 27.5234Z" fill="#E6ECF4"/>
<path d="M80.5479 100.858C79.4374 100.858 78.3629 100.245 77.8296 99.1864C77.0758 97.6868 77.6773 95.8585 79.1768 95.1007C91.3772 88.954 98.9549 76.6528 98.9549 63.0002C98.9549 43.1931 82.8413 27.0827 63.0391 27.0827C61.3592 27.0827 60 25.7195 60 24.0435C60 22.3675 61.3632 21.0002 63.0391 21.0002C86.1971 21.0002 105.037 39.8411 105.037 63.0002C105.037 78.9622 96.1764 93.3445 81.9111 100.53C81.4741 100.754 81.009 100.858 80.5479 100.858Z" fill="#6D32F0"/>
<path d="M46.2956 69.0482V66.8122L55.0316 54.2802H58.6196V66.4742H61.0376V69.0482H58.6196V73.0002H55.7076V69.0482H46.2956ZM55.8376 57.2962L49.7016 66.4742H55.8376V57.2962ZM73.6856 58.4402C73.4949 57.6429 73.1483 57.0449 72.6456 56.6462C72.1429 56.2476 71.4409 56.0482 70.5396 56.0482C69.1703 56.0482 68.1476 56.5769 67.4716 57.6342C66.7956 58.6742 66.4403 60.4076 66.4056 62.8342C66.8563 62.0716 67.5149 61.4822 68.3816 61.0662C69.2483 60.6502 70.1843 60.4422 71.1896 60.4422C72.3336 60.4422 73.3389 60.6936 74.2056 61.1962C75.0896 61.6816 75.7743 62.3922 76.2596 63.3282C76.7623 64.2642 77.0136 65.3822 77.0136 66.6822C77.0136 67.8956 76.7709 68.9789 76.2856 69.9322C75.8176 70.8856 75.1156 71.6396 74.1796 72.1942C73.2436 72.7316 72.1169 73.0002 70.7996 73.0002C69.0143 73.0002 67.6103 72.6102 66.5876 71.8302C65.5823 71.0329 64.8716 69.9149 64.4556 68.4762C64.0569 67.0376 63.8576 65.2436 63.8576 63.0942C63.8576 56.7502 66.0936 53.5782 70.5656 53.5782C72.2989 53.5782 73.6596 54.0462 74.6476 54.9822C75.6529 55.9182 76.2423 57.0709 76.4156 58.4402H73.6856ZM70.5396 62.9382C69.4823 62.9382 68.5809 63.2589 67.8356 63.9002C67.1076 64.5242 66.7436 65.4342 66.7436 66.6302C66.7436 67.8262 67.0816 68.7796 67.7576 69.4902C68.4509 70.1836 69.4129 70.5302 70.6436 70.5302C71.7356 70.5302 72.5936 70.1922 73.2176 69.5162C73.8589 68.8402 74.1796 67.9389 74.1796 66.8122C74.1796 65.6336 73.8676 64.6976 73.2436 64.0042C72.6369 63.2936 71.7356 62.9382 70.5396 62.9382Z" fill="black"/>
</svg>
