<svg width="126" height="126" viewBox="0 0 126 126" fill="none" xmlns="http://www.w3.org/2000/svg">
<path d="M62.998 104.999C39.84 104.999 21 86.1551 21 62.997C21 39.839 39.84 20.999 62.998 20.999C86.156 20.999 104.996 39.843 104.996 62.997C104.996 86.151 86.156 104.999 62.998 104.999ZM62.998 27.0812C43.1918 27.0812 27.0782 43.1948 27.0782 63.001C27.0782 82.8072 43.1918 98.9208 62.998 98.9208C82.8042 98.9208 98.9178 82.8072 98.9178 63.001C98.9178 43.1948 82.8042 27.0812 62.998 27.0812Z" fill="#E6ECF4"/>
<path d="M22.7272 52.1331C27.3865 34.7445 42.5756 22.2694 60.5254 21.0853C62.203 20.9744 63.6482 22.2416 63.7591 23.9192C63.871 25.5929 62.6027 27.0421 60.9252 27.1529C45.5739 28.1658 32.5831 38.8349 28.5983 53.7063C23.4721 72.8376 34.8661 92.5727 53.9975 97.6989C73.1288 102.825 92.86 91.43 97.9862 72.2987C98.421 70.676 100.089 69.716 101.708 70.1497C103.327 70.5835 104.3 72.2512 103.865 73.8739C97.8713 96.2429 74.7971 109.565 52.4282 103.571C30.0582 97.5811 16.7335 74.5021 22.7272 52.1331Z" fill="#6D32F0"/>
<path d="M57.9942 58.9981C57.8035 58.2008 57.4569 57.6028 56.9542 57.2041C56.4515 56.8054 55.7495 56.6061 54.8482 56.6061C53.4789 56.6061 52.4562 57.1348 51.7802 58.1921C51.1042 59.2321 50.7489 60.9654 50.7142 63.3921C51.1649 62.6294 51.8235 62.0401 52.6902 61.6241C53.5569 61.2081 54.4929 61.0001 55.4982 61.0001C56.6422 61.0001 57.6475 61.2514 58.5142 61.7541C59.3982 62.2394 60.0829 62.9501 60.5682 63.8861C61.0709 64.8221 61.3222 65.9401 61.3222 67.2401C61.3222 68.4534 61.0795 69.5368 60.5942 70.4901C60.1262 71.4434 59.4242 72.1974 58.4882 72.7521C57.5522 73.2894 56.4255 73.5581 55.1082 73.5581C53.3229 73.5581 51.9189 73.1681 50.8962 72.3881C49.8909 71.5908 49.1802 70.4728 48.7642 69.0341C48.3655 67.5954 48.1662 65.8014 48.1662 63.6521C48.1662 57.3081 50.4022 54.1361 54.8742 54.1361C56.6075 54.1361 57.9682 54.6041 58.9562 55.5401C59.9615 56.4761 60.5509 57.6288 60.7242 58.9981H57.9942ZM54.8482 63.4961C53.7909 63.4961 52.8895 63.8168 52.1442 64.4581C51.4162 65.0821 51.0522 65.9921 51.0522 67.1881C51.0522 68.3841 51.3902 69.3374 52.0662 70.0481C52.7595 70.7414 53.7215 71.0881 54.9522 71.0881C56.0442 71.0881 56.9022 70.7501 57.5262 70.0741C58.1675 69.3981 58.4882 68.4968 58.4882 67.3701C58.4882 66.1914 58.1762 65.2554 57.5522 64.5621C56.9455 63.8514 56.0442 63.4961 54.8482 63.4961ZM76.4958 56.8921L69.2678 73.5581H66.2778L73.5838 57.2041H63.9638V54.6821H76.4958V56.8921Z" fill="black"/>
</svg>
