<svg width="127" height="127" viewBox="0 0 127 127" fill="none" xmlns="http://www.w3.org/2000/svg">
<path d="M62.998 105.441C39.84 105.441 21 86.5969 21 63.4389C21 40.2809 39.84 21.4409 62.998 21.4409C86.156 21.4409 104.996 40.2849 104.996 63.4389C104.996 86.5929 86.156 105.441 62.998 105.441ZM62.998 27.5231C43.1918 27.5231 27.0782 43.6367 27.0782 63.4429C27.0782 83.2491 43.1918 99.3627 62.998 99.3627C82.8042 99.3627 98.9178 83.2491 98.9178 63.4429C98.9178 43.6367 82.8042 27.5231 62.998 27.5231Z" fill="#E6ECF4"/>
<path d="M80.5479 100.858C79.4374 100.858 78.3629 100.245 77.8296 99.1862C77.0758 97.6866 77.6773 95.8582 79.1768 95.1004C91.3772 88.9538 98.9549 76.6525 98.9549 63C98.9549 43.1928 82.8413 27.0825 63.0391 27.0825C61.3592 27.0825 60 25.7192 60 24.0432C60 22.3673 61.3632 21 63.0391 21C86.1971 21 105.037 39.8409 105.037 63C105.037 78.962 96.1764 93.3443 81.9111 100.529C81.4741 100.754 81.009 100.858 80.5479 100.858Z" fill="#6D32F0"/>
<path d="M52.5525 68.97C54.2165 67.5313 55.5252 66.3527 56.4785 65.434C57.4492 64.498 58.2552 63.5273 58.8965 62.522C59.5378 61.5167 59.8585 60.5113 59.8585 59.506C59.8585 58.466 59.6072 57.6513 59.1045 57.062C58.6192 56.4727 57.8478 56.178 56.7905 56.178C55.7678 56.178 54.9705 56.5073 54.3985 57.166C53.8438 57.8073 53.5492 58.674 53.5145 59.766H50.6545C50.7065 57.79 51.2958 56.282 52.4225 55.242C53.5665 54.1847 55.0138 53.656 56.7645 53.656C58.6538 53.656 60.1272 54.176 61.1845 55.216C62.2592 56.256 62.7965 57.6427 62.7965 59.376C62.7965 60.624 62.4758 61.8287 61.8345 62.99C61.2105 64.134 60.4565 65.1653 59.5725 66.084C58.7058 66.9853 57.5965 68.034 56.2445 69.23L55.0745 70.27H63.3165V72.74H50.6805V70.582L52.5525 68.97Z" fill="black"/>
<path d="M71.4259 61.672L68.1619 75.1H66.8179L70.0699 61.672H71.4259ZM78.61 65.428H74.59V67.816C74.758 67.592 75.006 67.404 75.334 67.252C75.67 67.1 76.026 67.024 76.402 67.024C77.074 67.024 77.618 67.168 78.034 67.456C78.458 67.744 78.758 68.108 78.934 68.548C79.118 68.988 79.21 69.452 79.21 69.94C79.21 70.532 79.094 71.06 78.862 71.524C78.638 71.98 78.298 72.34 77.842 72.604C77.394 72.868 76.842 73 76.186 73C75.314 73 74.614 72.784 74.086 72.352C73.558 71.92 73.242 71.348 73.138 70.636H74.47C74.558 71.012 74.754 71.312 75.058 71.536C75.362 71.752 75.742 71.86 76.198 71.86C76.766 71.86 77.19 71.688 77.47 71.344C77.758 71 77.902 70.544 77.902 69.976C77.902 69.4 77.758 68.96 77.47 68.656C77.182 68.344 76.758 68.188 76.198 68.188C75.806 68.188 75.474 68.288 75.202 68.488C74.938 68.68 74.746 68.944 74.626 69.28H73.33V64.228H78.61V65.428Z" fill="black"/>
</svg>
