<svg width="23" height="23" viewBox="0 0 23 23" fill="none" xmlns="http://www.w3.org/2000/svg">
<g clip-path="url(#clip0_1858_1446)">
<path d="M21.7304 4.06462e-08H1.26852C0.567841 0.000350993 -0.000175435 0.568718 4.06462e-08 1.26957V21.7315C0.000350993 22.4322 0.568718 23.0002 1.26957 23H21.7304C22.4315 23.0002 22.9998 22.432 23 21.731C23 21.7308 23 21.7306 23 21.7304V1.26852C22.9996 0.567841 22.4313 -0.000175435 21.7304 4.06462e-08Z" fill="#3966FE"/>
<path d="M15.8779 23.0003V14.1058H18.8765L19.3257 10.6244H15.8779V8.40704C15.8779 7.40138 16.1571 6.71615 17.5992 6.71615H19.4268V3.61075C19.1088 3.56846 18.0179 3.47388 16.7485 3.47388C14.0981 3.47388 12.2842 5.09106 12.2842 8.06222V10.6244H9.29688V14.1058H12.2842V23.0003H15.8779Z" fill="white"/>
</g>
<defs>
<clipPath id="clip0_1858_1446">
<rect width="23" height="23" rx="3" fill="white"/>
</clipPath>
</defs>
</svg>
