<svg width="24" height="23" viewBox="0 0 24 23" fill="none" xmlns="http://www.w3.org/2000/svg">
<path d="M24 5.471C23.1075 5.83454 22.1565 6.0755 21.165 6.1925C22.185 5.627 22.9635 4.73836 23.3295 3.66725C22.3785 4.19375 21.3285 4.56564 20.2095 4.77318C19.3065 3.88036 18.0195 3.32739 16.6155 3.32739C13.8915 3.32739 11.6985 5.38046 11.6985 7.89736C11.6985 8.2595 11.7315 8.60771 11.8125 8.93921C7.722 8.75396 4.1025 6.9335 1.671 4.16032C1.2465 4.84421 0.9975 5.627 0.9975 6.46968C0.9975 8.05196 1.875 9.45457 3.183 10.2666C2.3925 10.2527 1.617 10.0396 0.96 9.70389C0.96 9.71782 0.96 9.73593 0.96 9.75403C0.96 11.9742 2.6655 13.8184 4.902 14.2432C4.5015 14.3449 4.065 14.3936 3.612 14.3936C3.297 14.3936 2.979 14.3769 2.6805 14.3156C3.318 16.125 5.127 17.4551 7.278 17.4983C5.604 18.7143 3.4785 19.4469 1.1775 19.4469C0.774 19.4469 0.387 19.4302 0 19.3842C2.1795 20.6894 4.7625 21.4345 7.548 21.4345C16.602 21.4345 21.552 14.4702 21.552 8.43361C21.552 8.23164 21.5445 8.03664 21.534 7.84304C22.5105 7.19954 23.331 6.39586 24 5.471Z" fill="#44A5FF"/>
</svg>
