<svg width="40" height="40" viewBox="0 0 40 40" fill="none" xmlns="http://www.w3.org/2000/svg">
<circle cx="20" cy="20" r="20" fill="#326BFF"/>
<g clip-path="url(#clip0_315_434)">
<path d="M26.4052 13.6001H13.5943C13.1556 13.6003 12.7999 13.9562 12.8 14.395V27.2059C12.8003 27.6446 13.1561 28.0002 13.5949 28.0001H26.4052C26.8441 28.0002 27.1999 27.6445 27.2 27.2056C27.2 27.2055 27.2 27.2053 27.2 27.2052V14.3943C27.1998 13.9556 26.844 13.6 26.4052 13.6001V13.6001Z" fill="white"/>
<path d="M22.7423 28.0002V22.4314H24.6196L24.9009 20.2517H22.7423V18.8635C22.7423 18.2339 22.9171 17.8048 23.8199 17.8048H24.9641V15.8606C24.7651 15.8341 24.082 15.7749 23.2873 15.7749C21.6279 15.7749 20.4923 16.7874 20.4923 18.6476V20.2517H18.6219V22.4314H20.4923V28.0002H22.7423Z" fill="#326BFF"/>
</g>
<defs>
<clipPath id="clip0_315_434">
<rect width="14.4" height="14.4" fill="white" transform="translate(12.8 13.6001)"/>
</clipPath>
</defs>
</svg>
