<svg width="40" height="40" viewBox="0 0 40 40" fill="none" xmlns="http://www.w3.org/2000/svg">
<circle cx="20" cy="20" r="20" fill="#6B31EB"/>
<g clip-path="url(#clip0_315_439)">
<path d="M27.1861 17.0337C27.1523 16.2686 27.0286 15.7425 26.8513 15.2867C26.6685 14.8029 26.3872 14.3698 26.0186 14.0097C25.6585 13.644 25.2225 13.3598 24.7443 13.1798C24.2859 13.0026 23.7626 12.8788 22.9975 12.8451C22.2266 12.8085 21.9819 12.8 20.0268 12.8C18.0718 12.8 17.8271 12.8085 17.0591 12.8422C16.294 12.876 15.7679 12.9998 15.3122 13.177C14.8283 13.3598 14.3951 13.6411 14.0351 14.0097C13.6694 14.3698 13.3853 14.8058 13.2052 15.284C13.028 15.7425 12.9042 16.2657 12.8705 17.0308C12.8339 17.8017 12.8254 18.0464 12.8254 20.0015C12.8254 21.9565 12.8339 22.2012 12.8676 22.9692C12.9014 23.7343 13.0252 24.2604 13.2025 24.7162C13.3853 25.2 13.6694 25.6332 14.0351 25.9932C14.3951 26.3589 14.8312 26.6431 15.3094 26.8231C15.7679 27.0003 16.2911 27.1241 17.0563 27.1578C17.8242 27.1917 18.069 27.2 20.0241 27.2C21.9792 27.2 22.2239 27.1917 22.9919 27.1578C23.757 27.1241 24.283 27.0003 24.7387 26.8231C25.7065 26.4489 26.4716 25.6838 26.8457 24.7162C27.0229 24.2576 27.1467 23.7343 27.1804 22.9692C27.2142 22.2012 27.2226 21.9565 27.2226 20.0015C27.2226 18.0464 27.2198 17.8017 27.1861 17.0337ZM25.8893 22.913C25.8583 23.6162 25.7402 23.996 25.6417 24.2492C25.3998 24.8765 24.9019 25.3744 24.2745 25.6163C24.0214 25.7148 23.6389 25.8329 22.9383 25.8638C22.1788 25.8976 21.951 25.906 20.0297 25.906C18.1084 25.906 17.8777 25.8976 17.1209 25.8638C16.4177 25.8329 16.0379 25.7148 15.7847 25.6163C15.4726 25.501 15.1884 25.3181 14.9578 25.079C14.7186 24.8455 14.5358 24.5642 14.4204 24.252C14.322 23.9988 14.2038 23.6162 14.173 22.9158C14.1391 22.1563 14.1308 21.9284 14.1308 20.0071C14.1308 18.0857 14.1391 17.8551 14.173 17.0984C14.2038 16.3951 14.322 16.0154 14.4204 15.7622C14.5358 15.4499 14.7186 15.1659 14.9606 14.9351C15.194 14.696 15.4753 14.5132 15.7876 14.3979C16.0408 14.2994 16.4234 14.1813 17.1238 14.1503C17.8833 14.1166 18.1112 14.1081 20.0324 14.1081C21.9566 14.1081 22.1844 14.1166 22.9412 14.1503C23.6445 14.1813 24.0242 14.2994 24.2774 14.3979C24.5896 14.5132 24.8737 14.696 25.1044 14.9351C25.3435 15.1686 25.5264 15.4499 25.6417 15.7622C25.7402 16.0154 25.8583 16.3979 25.8893 17.0984C25.923 17.8579 25.9315 18.0857 25.9315 20.0071C25.9315 21.9284 25.923 22.1534 25.8893 22.913Z" fill="white"/>
<path d="M20.0268 16.3025C17.9846 16.3025 16.3276 17.9593 16.3276 20.0016C16.3276 22.044 17.9846 23.7008 20.0268 23.7008C22.0691 23.7008 23.726 22.044 23.726 20.0016C23.726 17.9593 22.0691 16.3025 20.0268 16.3025ZM20.0268 22.4012C18.7019 22.4012 17.6272 21.3266 17.6272 20.0016C17.6272 18.6767 18.7019 17.6021 20.0268 17.6021C21.3518 17.6021 22.4264 18.6767 22.4264 20.0016C22.4264 21.3266 21.3518 22.4012 20.0268 22.4012Z" fill="white"/>
<path d="M24.7356 16.1563C24.7356 16.6332 24.3489 17.0199 23.8719 17.0199C23.395 17.0199 23.0083 16.6332 23.0083 16.1563C23.0083 15.6793 23.395 15.2927 23.8719 15.2927C24.3489 15.2927 24.7356 15.6793 24.7356 16.1563Z" fill="white"/>
</g>
<defs>
<clipPath id="clip0_315_439">
<rect width="14.4" height="14.4" fill="white" transform="translate(12.8 12.8)"/>
</clipPath>
</defs>
</svg>
