<svg width="40" height="40" viewBox="0 0 40 40" fill="none" xmlns="http://www.w3.org/2000/svg">
<circle cx="20" cy="20" r="20" fill="#149CFF"/>
<g clip-path="url(#clip0_315_445)">
<path d="M28 15.535C27.4645 15.7699 26.8939 15.9256 26.299 16.0012C26.911 15.6358 27.3781 15.0616 27.5977 14.3695C27.0271 14.7097 26.3971 14.95 25.7257 15.0841C25.1839 14.5072 24.4117 14.1499 23.5693 14.1499C21.9349 14.1499 20.6191 15.4765 20.6191 17.1028C20.6191 17.3368 20.6389 17.5618 20.6875 17.776C18.2332 17.6563 16.0615 16.48 14.6026 14.6881C14.3479 15.13 14.1985 15.6358 14.1985 16.1803C14.1985 17.2027 14.725 18.109 15.5098 18.6337C15.0355 18.6247 14.5702 18.487 14.176 18.2701C14.176 18.2791 14.176 18.2908 14.176 18.3025C14.176 19.7371 15.1993 20.9287 16.5412 21.2032C16.3009 21.2689 16.039 21.3004 15.7672 21.3004C15.5782 21.3004 15.3874 21.2896 15.2083 21.25C15.5908 22.4191 16.6762 23.2786 17.9668 23.3065C16.9624 24.0922 15.6871 24.5656 14.3065 24.5656C14.0644 24.5656 13.8322 24.5548 13.6 24.5251C14.9077 25.3684 16.4575 25.8499 18.1288 25.8499C23.5612 25.8499 26.5312 21.3499 26.5312 17.4493C26.5312 17.3188 26.5267 17.1928 26.5204 17.0677C27.1063 16.6519 27.5986 16.1326 28 15.535Z" fill="white"/>
</g>
<defs>
<clipPath id="clip0_315_445">
<rect width="14.4" height="14.4" fill="white" transform="translate(13.6 12)"/>
</clipPath>
</defs>
</svg>
