<svg width="31" height="31" viewBox="0 0 31 31" fill="none" xmlns="http://www.w3.org/2000/svg">
<path d="M30.7239 12.6325C30.6454 12.2159 30.3073 11.9001 29.8869 11.8498C29.4655 11.7994 29.0635 12.027 28.8891 12.4136C28.582 13.0917 27.9077 13.5635 27.126 13.5625C26.2589 13.5644 25.5266 12.9793 25.2824 12.1762C25.1352 11.686 24.6314 11.3954 24.1335 11.5117C23.8274 11.5833 23.5377 11.625 23.25 11.625C21.1158 11.6211 19.3789 9.88416 19.375 7.75C19.375 7.46228 19.4167 7.17263 19.4883 6.86747C19.6056 6.36953 19.314 5.86481 18.8238 5.71756C18.0207 5.47441 17.4356 4.74203 17.4375 3.875C17.4365 3.09225 17.9083 2.41897 18.5864 2.11188C18.973 1.9375 19.2006 1.5345 19.1502 1.11406C19.0999 0.692656 18.7841 0.354562 18.3675 0.276094C17.4433 0.102687 16.4862 0 15.5 0C6.94981 0.0019375 0.0019375 6.94981 0 15.5C0.0019375 24.0502 6.94981 30.9981 15.5 31C24.0502 30.9981 30.9981 24.0502 31 15.5C31 14.5138 30.8973 13.5567 30.7239 12.6325ZM25.0858 25.0858C22.6261 27.5435 19.2413 29.0625 15.5 29.0625C11.7587 29.0625 8.37387 27.5435 5.91422 25.0858C3.4565 22.6261 1.9375 19.2413 1.9375 15.5C1.9375 11.7587 3.4565 8.37387 5.91422 5.91422C8.37387 3.4565 11.7587 1.9375 15.5 1.9375C15.6744 1.9375 15.8449 1.95591 16.0183 1.96366C15.6947 2.52747 15.501 3.17653 15.5 3.875C15.5019 5.32134 16.3041 6.56134 17.4733 7.223C17.4549 7.39544 17.4375 7.56787 17.4375 7.75C17.4394 10.9575 20.0425 13.5606 23.25 13.5625C23.4321 13.5625 23.6046 13.5451 23.777 13.5267C24.4387 14.695 25.6777 15.4981 27.125 15.5C27.8235 15.499 28.4725 15.3053 29.0363 14.9817C29.0441 15.1542 29.0625 15.3256 29.0625 15.5C29.0625 19.2413 27.5435 22.6261 25.0858 25.0858Z" fill="black"/>
<path d="M11.625 9.6875C12.6951 9.6875 13.5625 8.82005 13.5625 7.75C13.5625 6.67995 12.6951 5.8125 11.625 5.8125C10.5549 5.8125 9.6875 6.67995 9.6875 7.75C9.6875 8.82005 10.5549 9.6875 11.625 9.6875Z" fill="black"/>
<path d="M7.75 17.4375C8.82005 17.4375 9.6875 16.5701 9.6875 15.5C9.6875 14.4299 8.82005 13.5625 7.75 13.5625C6.67995 13.5625 5.8125 14.4299 5.8125 15.5C5.8125 16.5701 6.67995 17.4375 7.75 17.4375Z" fill="black"/>
<path d="M17.4375 25.1875C18.5076 25.1875 19.375 24.3201 19.375 23.25C19.375 22.1799 18.5076 21.3125 17.4375 21.3125C16.3674 21.3125 15.5 22.1799 15.5 23.25C15.5 24.3201 16.3674 25.1875 17.4375 25.1875Z" fill="black"/>
<path d="M16.4688 17.4375C17.0038 17.4375 17.4375 17.0038 17.4375 16.4688C17.4375 15.9337 17.0038 15.5 16.4688 15.5C15.9337 15.5 15.5 15.9337 15.5 16.4688C15.5 17.0038 15.9337 17.4375 16.4688 17.4375Z" fill="black"/>
<path d="M24.2188 21.3125C24.7538 21.3125 25.1875 20.8788 25.1875 20.3438C25.1875 19.8087 24.7538 19.375 24.2188 19.375C23.6837 19.375 23.25 19.8087 23.25 20.3438C23.25 20.8788 23.6837 21.3125 24.2188 21.3125Z" fill="black"/>
<path d="M10.6562 23.25C11.1913 23.25 11.625 22.8163 11.625 22.2812C11.625 21.7462 11.1913 21.3125 10.6562 21.3125C10.1212 21.3125 9.6875 21.7462 9.6875 22.2812C9.6875 22.8163 10.1212 23.25 10.6562 23.25Z" fill="black"/>
</svg>
