<svg width="126" height="74" viewBox="0 0 126 74" fill="none" xmlns="http://www.w3.org/2000/svg">
<path d="M108.922 12.6586C111.152 12.0609 113.194 14.1021 112.596 16.3328L108.113 33.0631C107.515 35.2938 104.727 36.041 103.094 34.408L90.8464 22.1605C89.2134 20.5276 89.9605 17.7392 92.1912 17.1414L108.922 12.6586Z" fill="#FF8B35"/>
<rect y="26" width="94" height="48" rx="24" fill="#FF8B35"/>
<path d="M33.928 54.3939H27.256L26.152 57.5859H22.624L28.648 40.8099H32.56L38.584 57.5859H35.032L33.928 54.3939ZM33.016 51.7059L30.592 44.6979L28.168 51.7059H33.016ZM43.6957 39.8259V57.5859H40.3357V39.8259H43.6957ZM58.8754 50.6499C58.8754 51.1299 58.8434 51.5619 58.7794 51.9459H49.0594C49.1394 52.9059 49.4754 53.6579 50.0674 54.2019C50.6594 54.7459 51.3874 55.0179 52.2514 55.0179C53.4994 55.0179 54.3874 54.4819 54.9154 53.4099H58.5394C58.1554 54.6899 57.4194 55.7459 56.3314 56.5779C55.2434 57.3939 53.9074 57.8019 52.3234 57.8019C51.0434 57.8019 49.8914 57.5219 48.8674 56.9619C47.8594 56.3859 47.0674 55.5779 46.4914 54.5379C45.9314 53.4979 45.6514 52.2979 45.6514 50.9379C45.6514 49.5619 45.9314 48.3539 46.4914 47.3139C47.0514 46.2739 47.8354 45.4739 48.8434 44.9139C49.8514 44.3539 51.0114 44.0739 52.3234 44.0739C53.5874 44.0739 54.7154 44.3459 55.7074 44.8899C56.7154 45.4339 57.4914 46.2099 58.0354 47.2179C58.5954 48.2099 58.8754 49.3539 58.8754 50.6499ZM55.3954 49.6899C55.3794 48.8259 55.0674 48.1379 54.4594 47.6259C53.8514 47.0979 53.1074 46.8339 52.2274 46.8339C51.3954 46.8339 50.6914 47.0899 50.1154 47.6019C49.5554 48.0979 49.2114 48.7939 49.0834 49.6899H55.3954ZM68.1719 57.5859L65.4359 53.4579L63.0119 57.5859H59.4119L63.7559 50.9139L59.3639 44.2899H63.1559L65.8679 48.3939L68.3159 44.2899H71.9159L67.5479 50.9139L71.9639 57.5859H68.1719Z" fill="white"/>
</svg>
