<svg width="155" height="74" viewBox="0 0 155 74" fill="none" xmlns="http://www.w3.org/2000/svg">
<path d="M12.4349 16.6655C11.7609 14.4566 13.7309 12.3465 15.9808 12.8672L32.8552 16.7729C35.1051 17.2936 35.9476 20.0547 34.3717 21.7428L22.5521 34.4037C20.9761 36.0918 18.1637 35.4408 17.4897 33.232L12.4349 16.6655Z" fill="#326BFF"/>
<rect x="27" y="26" width="128" height="48" rx="24" fill="#326BFF"/>
<path d="M60.424 40.8337V52.5937C60.424 54.2257 59.952 55.4977 59.008 56.4097C58.064 57.3057 56.8 57.7537 55.216 57.7537C53.616 57.7537 52.32 57.2897 51.328 56.3617C50.352 55.4337 49.864 54.1377 49.864 52.4737H53.224C53.24 53.1937 53.408 53.7537 53.728 54.1537C54.064 54.5537 54.544 54.7537 55.168 54.7537C55.776 54.7537 56.24 54.5617 56.56 54.1777C56.88 53.7937 57.04 53.2657 57.04 52.5937V40.8337H60.424ZM69.7475 57.8017C68.4675 57.8017 67.3155 57.5217 66.2915 56.9617C65.2675 56.3857 64.4595 55.5777 63.8675 54.5377C63.2915 53.4977 63.0035 52.2977 63.0035 50.9377C63.0035 49.5777 63.2995 48.3777 63.8915 47.3377C64.4995 46.2977 65.3235 45.4977 66.3635 44.9377C67.4035 44.3617 68.5635 44.0737 69.8435 44.0737C71.1235 44.0737 72.2835 44.3617 73.3235 44.9377C74.3635 45.4977 75.1795 46.2977 75.7715 47.3377C76.3795 48.3777 76.6835 49.5777 76.6835 50.9377C76.6835 52.2977 76.3715 53.4977 75.7475 54.5377C75.1395 55.5777 74.3075 56.3857 73.2515 56.9617C72.2115 57.5217 71.0435 57.8017 69.7475 57.8017ZM69.7475 54.8737C70.3555 54.8737 70.9235 54.7297 71.4515 54.4417C71.9955 54.1377 72.4275 53.6897 72.7475 53.0977C73.0675 52.5057 73.2275 51.7857 73.2275 50.9377C73.2275 49.6737 72.8915 48.7057 72.2195 48.0337C71.5635 47.3457 70.7555 47.0017 69.7955 47.0017C68.8355 47.0017 68.0275 47.3457 67.3715 48.0337C66.7315 48.7057 66.4115 49.6737 66.4115 50.9377C66.4115 52.2017 66.7235 53.1777 67.3475 53.8657C67.9875 54.5377 68.7875 54.8737 69.7475 54.8737ZM82.0082 46.3537C82.4402 45.6497 83.0002 45.0977 83.6882 44.6977C84.3922 44.2977 85.1922 44.0977 86.0882 44.0977V47.6257H85.2002C84.1442 47.6257 83.3442 47.8737 82.8002 48.3697C82.2722 48.8657 82.0082 49.7297 82.0082 50.9617V57.5857H78.6482V44.2897H82.0082V46.3537ZM86.9873 50.8897C86.9873 49.5457 87.2513 48.3537 87.7793 47.3137C88.3233 46.2737 89.0593 45.4737 89.9873 44.9137C90.9153 44.3537 91.9473 44.0737 93.0833 44.0737C93.9473 44.0737 94.7713 44.2657 95.5553 44.6497C96.3393 45.0177 96.9633 45.5137 97.4273 46.1377V39.8257H100.835V57.5857H97.4273V55.6177C97.0113 56.2737 96.4273 56.8017 95.6753 57.2017C94.9233 57.6017 94.0513 57.8017 93.0593 57.8017C91.9393 57.8017 90.9153 57.5137 89.9873 56.9377C89.0593 56.3617 88.3233 55.5537 87.7793 54.5137C87.2513 53.4577 86.9873 52.2497 86.9873 50.8897ZM97.4513 50.9377C97.4513 50.1217 97.2913 49.4257 96.9713 48.8497C96.6513 48.2577 96.2193 47.8097 95.6753 47.5057C95.1313 47.1857 94.5473 47.0257 93.9233 47.0257C93.2993 47.0257 92.7233 47.1777 92.1953 47.4817C91.6673 47.7857 91.2353 48.2337 90.8993 48.8257C90.5793 49.4017 90.4193 50.0897 90.4193 50.8897C90.4193 51.6897 90.5793 52.3937 90.8993 53.0017C91.2353 53.5937 91.6673 54.0497 92.1953 54.3697C92.7393 54.6897 93.3153 54.8497 93.9233 54.8497C94.5473 54.8497 95.1313 54.6977 95.6753 54.3937C96.2193 54.0737 96.6513 53.6257 96.9713 53.0497C97.2913 52.4577 97.4513 51.7537 97.4513 50.9377ZM102.753 50.8897C102.753 49.5457 103.017 48.3537 103.545 47.3137C104.089 46.2737 104.817 45.4737 105.729 44.9137C106.657 44.3537 107.689 44.0737 108.825 44.0737C109.817 44.0737 110.681 44.2737 111.417 44.6737C112.169 45.0737 112.769 45.5777 113.217 46.1857V44.2897H116.601V57.5857H113.217V55.6417C112.785 56.2657 112.185 56.7857 111.417 57.2017C110.665 57.6017 109.793 57.8017 108.801 57.8017C107.681 57.8017 106.657 57.5137 105.729 56.9377C104.817 56.3617 104.089 55.5537 103.545 54.5137C103.017 53.4577 102.753 52.2497 102.753 50.8897ZM113.217 50.9377C113.217 50.1217 113.057 49.4257 112.737 48.8497C112.417 48.2577 111.985 47.8097 111.441 47.5057C110.897 47.1857 110.313 47.0257 109.689 47.0257C109.065 47.0257 108.489 47.1777 107.961 47.4817C107.433 47.7857 107.001 48.2337 106.665 48.8257C106.345 49.4017 106.185 50.0897 106.185 50.8897C106.185 51.6897 106.345 52.3937 106.665 53.0017C107.001 53.5937 107.433 54.0497 107.961 54.3697C108.505 54.6897 109.081 54.8497 109.689 54.8497C110.313 54.8497 110.897 54.6977 111.441 54.3937C111.985 54.0737 112.417 53.6257 112.737 53.0497C113.057 52.4577 113.217 51.7537 113.217 50.9377ZM126.751 44.0977C128.335 44.0977 129.615 44.6017 130.591 45.6097C131.567 46.6017 132.055 47.9937 132.055 49.7857V57.5857H128.695V50.2417C128.695 49.1857 128.431 48.3777 127.903 47.8177C127.375 47.2417 126.655 46.9537 125.743 46.9537C124.815 46.9537 124.079 47.2417 123.535 47.8177C123.007 48.3777 122.743 49.1857 122.743 50.2417V57.5857H119.383V44.2897H122.743V45.9457C123.191 45.3697 123.759 44.9217 124.447 44.6017C125.151 44.2657 125.919 44.0977 126.751 44.0977Z" fill="white"/>
</svg>
