<svg width="185" height="81" viewBox="0 0 185 81" fill="none" xmlns="http://www.w3.org/2000/svg">
<rect x="5.75" y="6.75" width="172.5" height="67.5" stroke="#326BFF" stroke-width="1.5"/>
<rect x="10" y="11" width="164" height="59" rx="18" fill="white"/>
<rect x="23" y="21" width="39" height="39" rx="12" fill="#FF8B35"/>
<path d="M50.9565 38.6359L50.8841 38.6162L50.9565 38.6359C51.3012 37.3703 50.8794 36.0177 49.8804 35.19L46.0623 32.0265C46.0621 32.0264 46.062 32.0263 46.0618 32.0261C44.34 30.558 41.6598 30.5579 39.9379 32.0262L36.1199 35.1896C34.5369 36.4549 34.5367 39.0429 36.1199 40.3084C36.1201 40.3086 36.1202 40.3087 36.1204 40.3088L39.9384 43.4722C40.801 44.1869 41.8881 44.5806 42.9999 44.5806C44.1117 44.5806 45.1989 44.1869 46.0615 43.4722L46.0616 43.4721L46.0757 43.4601L46.0758 43.46L46.7203 42.9003C47.0572 42.6078 47.0977 42.0926 46.8115 41.7491C46.5245 41.4046 46.0174 41.3626 45.6795 41.656L45.0423 42.2093C43.8552 43.1875 42.1357 43.1855 40.9507 42.2037L37.1317 39.0395L37.1317 39.0395L37.1307 39.0386C36.3346 38.4026 36.3345 37.0955 37.1307 36.4594L37.1307 36.4594L37.1317 36.4585L40.9507 33.2943C42.138 32.3106 43.8618 32.3106 45.0491 33.2943L48.8681 36.4585L48.916 36.4008L48.8681 36.4585C49.3714 36.8755 49.5848 37.5585 49.4104 38.1986C49.2923 38.6321 49.5403 39.0833 49.9681 39.2047C50.3966 39.3264 50.8382 39.0699 50.9565 38.6359ZM39.3997 37.9713L39.3996 37.9713L39.3974 37.9733C39.0034 38.3309 39.0451 38.8121 39.2913 39.1184C39.4139 39.2709 39.5888 39.3826 39.788 39.4144C39.9888 39.4465 40.2084 39.3967 40.416 39.2363L40.416 39.2364L40.4183 39.2345L40.9518 38.7878C40.9519 38.7877 40.952 38.7877 40.952 38.7876C42.1394 37.8051 43.8623 37.8054 45.0491 38.7888L48.8681 41.9529L48.8681 41.9529L48.8692 41.9538C49.6653 42.5899 49.6652 43.897 48.8692 44.533L48.8691 44.533L48.8681 44.5339L45.0491 47.698C43.8618 48.6818 42.138 48.6818 40.9507 47.698L37.1317 44.5339C36.6707 44.1519 36.4495 43.5425 36.5558 42.9434C36.6344 42.5006 36.3467 42.0744 35.9097 41.9936L35.9097 41.9936C35.4724 41.9128 35.0556 42.2093 34.9769 42.6524L34.9769 42.6524C34.7667 43.8369 35.204 45.044 36.1194 45.8024L39.9384 48.9666C40.801 49.6813 41.8881 50.075 42.9999 50.075C44.1117 50.075 45.1989 49.6813 46.0615 48.9666L49.8794 45.8032C49.8796 45.8031 49.8798 45.8029 49.8799 45.8028C51.4632 44.5373 51.4629 41.9493 49.8799 40.684C49.8798 40.6838 49.8796 40.6837 49.8794 40.6835L46.0623 37.5209C46.0621 37.5208 46.062 37.5206 46.0618 37.5205C44.3399 36.0523 41.6596 36.0524 39.9378 37.5207C39.9377 37.5208 39.9376 37.5208 39.9375 37.5209L39.3997 37.9713Z" fill="white" stroke="white" stroke-width="0.15"/>
<path d="M85.389 45.669H90.219V48H82.449V33.342H85.389V45.669ZM93.0787 34.98C92.5607 34.98 92.1267 34.819 91.7767 34.497C91.4407 34.161 91.2727 33.748 91.2727 33.258C91.2727 32.768 91.4407 32.362 91.7767 32.04C92.1267 31.704 92.5607 31.536 93.0787 31.536C93.5967 31.536 94.0237 31.704 94.3597 32.04C94.7097 32.362 94.8847 32.768 94.8847 33.258C94.8847 33.748 94.7097 34.161 94.3597 34.497C94.0237 34.819 93.5967 34.98 93.0787 34.98ZM94.5277 36.366V48H91.5877V36.366H94.5277ZM101.783 45.291L104.723 36.366H107.852L103.547 48H99.9774L95.6934 36.366H98.8434L101.783 45.291ZM119.819 41.931C119.819 42.351 119.791 42.729 119.735 43.065H111.23C111.3 43.905 111.594 44.563 112.112 45.039C112.63 45.515 113.267 45.753 114.023 45.753C115.115 45.753 115.892 45.284 116.354 44.346H119.525C119.189 45.466 118.545 46.39 117.593 47.118C116.641 47.832 115.472 48.189 114.086 48.189C112.966 48.189 111.958 47.944 111.062 47.454C110.18 46.95 109.487 46.243 108.983 45.333C108.493 44.423 108.248 43.373 108.248 42.183C108.248 40.979 108.493 39.922 108.983 39.012C109.473 38.102 110.159 37.402 111.041 36.912C111.923 36.422 112.938 36.177 114.086 36.177C115.192 36.177 116.179 36.415 117.047 36.891C117.929 37.367 118.608 38.046 119.084 38.928C119.574 39.796 119.819 40.797 119.819 41.931ZM116.774 41.091C116.76 40.335 116.487 39.733 115.955 39.285C115.423 38.823 114.772 38.592 114.002 38.592C113.274 38.592 112.658 38.816 112.154 39.264C111.664 39.698 111.363 40.307 111.251 41.091H116.774ZM125.917 48.189C124.965 48.189 124.111 48.021 123.355 47.685C122.599 47.335 121.997 46.866 121.549 46.278C121.115 45.69 120.877 45.039 120.835 44.325H123.796C123.852 44.773 124.069 45.144 124.447 45.438C124.839 45.732 125.322 45.879 125.896 45.879C126.456 45.879 126.89 45.767 127.198 45.543C127.52 45.319 127.681 45.032 127.681 44.682C127.681 44.304 127.485 44.024 127.093 43.842C126.715 43.646 126.106 43.436 125.266 43.212C124.398 43.002 123.684 42.785 123.124 42.561C122.578 42.337 122.102 41.994 121.696 41.532C121.304 41.07 121.108 40.447 121.108 39.663C121.108 39.019 121.29 38.431 121.654 37.899C122.032 37.367 122.564 36.947 123.25 36.639C123.95 36.331 124.769 36.177 125.707 36.177C127.093 36.177 128.199 36.527 129.025 37.227C129.851 37.913 130.306 38.844 130.39 40.02H127.576C127.534 39.558 127.338 39.194 126.988 38.928C126.652 38.648 126.197 38.508 125.623 38.508C125.091 38.508 124.678 38.606 124.384 38.802C124.104 38.998 123.964 39.271 123.964 39.621C123.964 40.013 124.16 40.314 124.552 40.524C124.944 40.72 125.553 40.923 126.379 41.133C127.219 41.343 127.912 41.56 128.458 41.784C129.004 42.008 129.473 42.358 129.865 42.834C130.271 43.296 130.481 43.912 130.495 44.682C130.495 45.354 130.306 45.956 129.928 46.488C129.564 47.02 129.032 47.44 128.332 47.748C127.646 48.042 126.841 48.189 125.917 48.189ZM143.223 41.931C143.223 42.351 143.195 42.729 143.139 43.065H134.634C134.704 43.905 134.998 44.563 135.516 45.039C136.034 45.515 136.671 45.753 137.427 45.753C138.519 45.753 139.296 45.284 139.758 44.346H142.929C142.593 45.466 141.949 46.39 140.997 47.118C140.045 47.832 138.876 48.189 137.49 48.189C136.37 48.189 135.362 47.944 134.466 47.454C133.584 46.95 132.891 46.243 132.387 45.333C131.897 44.423 131.652 43.373 131.652 42.183C131.652 40.979 131.897 39.922 132.387 39.012C132.877 38.102 133.563 37.402 134.445 36.912C135.327 36.422 136.342 36.177 137.49 36.177C138.596 36.177 139.583 36.415 140.451 36.891C141.333 37.367 142.012 38.046 142.488 38.928C142.978 39.796 143.223 40.797 143.223 41.931ZM140.178 41.091C140.164 40.335 139.891 39.733 139.359 39.285C138.827 38.823 138.176 38.592 137.406 38.592C136.678 38.592 136.062 38.816 135.558 39.264C135.068 39.698 134.767 40.307 134.655 41.091H140.178ZM148.292 38.781V44.409C148.292 44.801 148.383 45.088 148.565 45.27C148.761 45.438 149.083 45.522 149.531 45.522H150.896V48H149.048C146.57 48 145.331 46.796 145.331 44.388V38.781H143.945V36.366H145.331V33.489H148.292V36.366H150.896V38.781H148.292Z" fill="#394656"/>
<rect x="0.75" y="0.75" width="12.5" height="12.5" rx="3.25" fill="white" stroke="#326BFF" stroke-width="1.5"/>
<rect x="171.75" y="0.75" width="12.5" height="12.5" rx="3.25" fill="white" stroke="#326BFF" stroke-width="1.5"/>
<rect x="0.75" y="67.75" width="12.5" height="12.5" rx="3.25" fill="white" stroke="#326BFF" stroke-width="1.5"/>
<rect x="171.75" y="67.75" width="12.5" height="12.5" rx="3.25" fill="white" stroke="#326BFF" stroke-width="1.5"/>
</svg>
