<svg width="17" height="16" viewBox="0 0 17 16" fill="none" xmlns="http://www.w3.org/2000/svg">
<path d="M6.866 15.708C5.558 15.708 4.412 15.456 3.428 14.952C2.456 14.448 1.694 13.734 1.142 12.81C0.602 11.898 0.332 10.818 0.332 9.57C0.332 8.262 0.56 7.05 1.016 5.934C1.472 4.818 2.114 3.84 2.942 3C3.77 2.16 4.742 1.512 5.858 1.056C6.974 0.588 8.198 0.354 9.53 0.354C10.898 0.354 12.08 0.612 13.076 1.128C14.072 1.644 14.84 2.364 15.38 3.288C15.932 4.212 16.208 5.274 16.208 6.474C16.208 7.182 16.118 7.872 15.938 8.544C15.758 9.216 15.494 9.822 15.146 10.362C14.81 10.89 14.39 11.316 13.886 11.64C13.394 11.952 12.824 12.108 12.176 12.108C11.564 12.108 11.084 11.964 10.736 11.676C10.4 11.376 10.196 10.974 10.124 10.47C9.764 10.986 9.302 11.388 8.738 11.676C8.186 11.964 7.592 12.108 6.956 12.108C6.056 12.108 5.348 11.838 4.832 11.298C4.328 10.746 4.076 10.002 4.076 9.066C4.076 8.406 4.178 7.776 4.382 7.176C4.586 6.564 4.88 6.024 5.264 5.556C5.648 5.076 6.098 4.698 6.614 4.422C7.142 4.146 7.724 4.008 8.36 4.008C9.524 4.008 10.286 4.47 10.646 5.394L10.862 4.206H12.446L11.582 9.174C11.498 9.666 11.516 10.068 11.636 10.38C11.756 10.68 12.026 10.83 12.446 10.83C12.818 10.83 13.142 10.698 13.418 10.434C13.706 10.17 13.94 9.828 14.12 9.408C14.312 8.988 14.456 8.532 14.552 8.04C14.648 7.536 14.696 7.044 14.696 6.564C14.696 5.04 14.222 3.846 13.274 2.982C12.326 2.106 11.006 1.668 9.314 1.668C8.246 1.668 7.256 1.872 6.344 2.28C5.432 2.676 4.64 3.228 3.968 3.936C3.296 4.632 2.774 5.448 2.402 6.384C2.03 7.32 1.844 8.328 1.844 9.408C1.844 10.98 2.318 12.198 3.266 13.062C4.214 13.938 5.51 14.376 7.154 14.376C7.682 14.376 8.204 14.322 8.72 14.214C9.248 14.106 9.74 13.95 10.196 13.746L10.502 15.006C9.398 15.474 8.186 15.708 6.866 15.708ZM7.55 10.686C8.018 10.686 8.45 10.56 8.846 10.308C9.242 10.044 9.566 9.69 9.818 9.246C10.07 8.79 10.22 8.274 10.268 7.698C10.328 7.074 10.208 6.54 9.908 6.096C9.608 5.652 9.134 5.43 8.486 5.43C7.934 5.43 7.454 5.592 7.046 5.916C6.638 6.24 6.326 6.654 6.11 7.158C5.894 7.662 5.786 8.196 5.786 8.76C5.786 9.336 5.93 9.804 6.218 10.164C6.518 10.512 6.962 10.686 7.55 10.686Z" fill="#959CA7"/>
</svg>
