<svg width="154" height="100" viewBox="0 0 154 100" fill="none" xmlns="http://www.w3.org/2000/svg">
<path d="M24.5075 72.9776L38.2833 64.6639C40.5183 63.3151 41.9142 60.8183 41.9262 58.1479L41.9999 41.6252C42.012 38.9666 40.6472 36.4958 38.4386 35.1774L24.7126 26.9827C22.4944 25.6583 19.7276 25.6736 17.4925 27.0225L3.71674 35.3362C1.48166 36.685 0.0858149 39.1818 0.0740652 41.852L7.50538e-05 58.3749C-0.0116583 61.0333 1.35308 63.5041 3.56144 64.8227L17.2874 73.0174C19.5059 74.3416 22.2724 74.3264 24.5075 72.9776Z" fill="#EAEFF3"/>
<path d="M9 55.4542L21.5714 49.9997V61.9997L9 55.4542Z" fill="#AB36C6"/>
<path d="M21.5714 38.0004L9 55.4549L21.5714 50.0004V38.0004Z" fill="#D873EA"/>
<path d="M21.577 37.9996L34.1484 55.4542L21.577 49.9996V37.9996Z" fill="#BE4BD8"/>
<path d="M34.1484 55.4542L21.577 49.9996V61.9996L34.1484 55.4542Z" fill="#9833A4"/>
<path d="M63.2117 40.06V53.02C63.2117 54.44 63.5817 55.53 64.3217 56.29C65.0617 57.03 66.1017 57.4 67.4417 57.4C68.8017 57.4 69.8517 57.03 70.5917 56.29C71.3317 55.53 71.7017 54.44 71.7017 53.02V40.06H75.9317V52.99C75.9317 54.77 75.5417 56.28 74.7617 57.52C74.0017 58.74 72.9717 59.66 71.6717 60.28C70.3917 60.9 68.9617 61.21 67.3817 61.21C65.8217 61.21 64.4017 60.9 63.1217 60.28C61.8617 59.66 60.8617 58.74 60.1217 57.52C59.3817 56.28 59.0117 54.77 59.0117 52.99V40.06H63.2117Z" fill="white"/>
<path d="M80.6197 42.4C79.8797 42.4 79.2597 42.17 78.7597 41.71C78.2797 41.23 78.0397 40.64 78.0397 39.94C78.0397 39.24 78.2797 38.66 78.7597 38.2C79.2597 37.72 79.8797 37.48 80.6197 37.48C81.3597 37.48 81.9697 37.72 82.4497 38.2C82.9497 38.66 83.1997 39.24 83.1997 39.94C83.1997 40.64 82.9497 41.23 82.4497 41.71C81.9697 42.17 81.3597 42.4 80.6197 42.4ZM82.6897 44.38V61H78.4897V44.38H82.6897Z" fill="white"/>
<path d="M92.9593 47.83H90.0493V61H85.7893V47.83H83.8993V44.38H85.7893V43.54C85.7893 41.5 86.3693 40 87.5293 39.04C88.6893 38.08 90.4393 37.63 92.7793 37.69V41.23C91.7593 41.21 91.0493 41.38 90.6493 41.74C90.2493 42.1 90.0493 42.75 90.0493 43.69V44.38H92.9593V47.83Z" fill="white"/>
<path d="M96.3111 42.4C95.5711 42.4 94.9511 42.17 94.4511 41.71C93.9711 41.23 93.7311 40.64 93.7311 39.94C93.7311 39.24 93.9711 38.66 94.4511 38.2C94.9511 37.72 95.5711 37.48 96.3111 37.48C97.0511 37.48 97.6611 37.72 98.1411 38.2C98.6411 38.66 98.8911 39.24 98.8911 39.94C98.8911 40.64 98.6411 41.23 98.1411 41.71C97.6611 42.17 97.0511 42.4 96.3111 42.4ZM98.3811 44.38V61H94.1811V44.38H98.3811Z" fill="white"/>
<path d="M107.961 57.13L112.161 44.38H116.631L110.481 61H105.381L99.2607 44.38H103.761L107.961 57.13Z" fill="white"/>
<path d="M132.94 52.33C132.94 52.93 132.9 53.47 132.82 53.95H120.67C120.77 55.15 121.19 56.09 121.93 56.77C122.67 57.45 123.58 57.79 124.66 57.79C126.22 57.79 127.33 57.12 127.99 55.78H132.52C132.04 57.38 131.12 58.7 129.76 59.74C128.4 60.76 126.73 61.27 124.75 61.27C123.15 61.27 121.71 60.92 120.43 60.22C119.17 59.5 118.18 58.49 117.46 57.19C116.76 55.89 116.41 54.39 116.41 52.69C116.41 50.97 116.76 49.46 117.46 48.16C118.16 46.86 119.14 45.86 120.4 45.16C121.66 44.46 123.11 44.11 124.75 44.11C126.33 44.11 127.74 44.45 128.98 45.13C130.24 45.81 131.21 46.78 131.89 48.04C132.59 49.28 132.94 50.71 132.94 52.33ZM128.59 51.13C128.57 50.05 128.18 49.19 127.42 48.55C126.66 47.89 125.73 47.56 124.63 47.56C123.59 47.56 122.71 47.88 121.99 48.52C121.29 49.14 120.86 50.01 120.7 51.13H128.59Z" fill="white"/>
</svg>
