<svg width="134" height="48" viewBox="0 0 134 48" fill="none" xmlns="http://www.w3.org/2000/svg">
<path d="M24.5075 46.9776L38.2833 38.6639C40.5183 37.3151 41.9142 34.8183 41.9262 32.1479L41.9999 15.6252C42.012 12.9666 40.6472 10.4958 38.4386 9.17737L24.7126 0.982706C22.4944 -0.341748 19.7276 -0.326368 17.4925 1.0225L3.71674 9.33616C1.48166 10.685 0.0858149 13.1818 0.0740652 15.852L7.50538e-05 32.3749C-0.0116583 35.0333 1.35308 37.5041 3.56144 38.8227L17.2874 47.0174C19.5059 48.3416 22.2724 48.3264 24.5075 46.9776Z" fill="#EAEFF3"/>
<path d="M9 29.4542L21.5714 23.9997V35.9997L9 29.4542Z" fill="#AB36C6"/>
<path d="M21.5714 12.0004L9 29.4549L21.5714 24.0004V12.0004Z" fill="#D873EA"/>
<path d="M21.577 11.9996L34.1484 29.4542L21.577 23.9996V11.9996Z" fill="#BE4BD8"/>
<path d="M34.1484 29.4542L21.577 23.9996V35.9996L34.1484 29.4542Z" fill="#9833A4"/>
<path d="M63.2117 14.06V27.02C63.2117 28.44 63.5817 29.53 64.3217 30.29C65.0617 31.03 66.1017 31.4 67.4417 31.4C68.8017 31.4 69.8517 31.03 70.5917 30.29C71.3317 29.53 71.7017 28.44 71.7017 27.02V14.06H75.9317V26.99C75.9317 28.77 75.5417 30.28 74.7617 31.52C74.0017 32.74 72.9717 33.66 71.6717 34.28C70.3917 34.9 68.9617 35.21 67.3817 35.21C65.8217 35.21 64.4017 34.9 63.1217 34.28C61.8617 33.66 60.8617 32.74 60.1217 31.52C59.3817 30.28 59.0117 28.77 59.0117 26.99V14.06H63.2117Z" fill="black"/>
<path d="M80.6197 16.4C79.8797 16.4 79.2597 16.17 78.7597 15.71C78.2797 15.23 78.0397 14.64 78.0397 13.94C78.0397 13.24 78.2797 12.66 78.7597 12.2C79.2597 11.72 79.8797 11.48 80.6197 11.48C81.3597 11.48 81.9697 11.72 82.4497 12.2C82.9497 12.66 83.1997 13.24 83.1997 13.94C83.1997 14.64 82.9497 15.23 82.4497 15.71C81.9697 16.17 81.3597 16.4 80.6197 16.4ZM82.6897 18.38V35H78.4897V18.38H82.6897Z" fill="black"/>
<path d="M92.9593 21.83H90.0493V35H85.7893V21.83H83.8993V18.38H85.7893V17.54C85.7893 15.5 86.3693 14 87.5293 13.04C88.6893 12.08 90.4393 11.63 92.7793 11.69V15.23C91.7593 15.21 91.0493 15.38 90.6493 15.74C90.2493 16.1 90.0493 16.75 90.0493 17.69V18.38H92.9593V21.83Z" fill="black"/>
<path d="M96.3111 16.4C95.5711 16.4 94.9511 16.17 94.4511 15.71C93.9711 15.23 93.7311 14.64 93.7311 13.94C93.7311 13.24 93.9711 12.66 94.4511 12.2C94.9511 11.72 95.5711 11.48 96.3111 11.48C97.0511 11.48 97.6611 11.72 98.1411 12.2C98.6411 12.66 98.8911 13.24 98.8911 13.94C98.8911 14.64 98.6411 15.23 98.1411 15.71C97.6611 16.17 97.0511 16.4 96.3111 16.4ZM98.3811 18.38V35H94.1811V18.38H98.3811Z" fill="black"/>
<path d="M107.961 31.13L112.161 18.38H116.631L110.481 35H105.381L99.2607 18.38H103.761L107.961 31.13Z" fill="black"/>
<path d="M132.94 26.33C132.94 26.93 132.9 27.47 132.82 27.95H120.67C120.77 29.15 121.19 30.09 121.93 30.77C122.67 31.45 123.58 31.79 124.66 31.79C126.22 31.79 127.33 31.12 127.99 29.78H132.52C132.04 31.38 131.12 32.7 129.76 33.74C128.4 34.76 126.73 35.27 124.75 35.27C123.15 35.27 121.71 34.92 120.43 34.22C119.17 33.5 118.18 32.49 117.46 31.19C116.76 29.89 116.41 28.39 116.41 26.69C116.41 24.97 116.76 23.46 117.46 22.16C118.16 20.86 119.14 19.86 120.4 19.16C121.66 18.46 123.11 18.11 124.75 18.11C126.33 18.11 127.74 18.45 128.98 19.13C130.24 19.81 131.21 20.78 131.89 22.04C132.59 23.28 132.94 24.71 132.94 26.33ZM128.59 25.13C128.57 24.05 128.18 23.19 127.42 22.55C126.66 21.89 125.73 21.56 124.63 21.56C123.59 21.56 122.71 21.88 121.99 22.52C121.29 23.14 120.86 24.01 120.7 25.13H128.59Z" fill="black"/>
</svg>
