<svg width="16" height="16" viewBox="0 0 16 16" fill="none" xmlns="http://www.w3.org/2000/svg">
<g opacity="0.9">
<path d="M3.45833 8.94792C2.7558 8.94792 2.06904 9.15624 1.4849 9.54655C0.900766 9.93686 0.445487 10.4916 0.176638 11.1407C-0.0922109 11.7897 -0.162554 12.5039 -0.0254961 13.193C0.111562 13.882 0.449865 14.5149 0.946633 15.0117C1.4434 15.5085 2.07632 15.8468 2.76536 15.9838C3.45439 16.1209 4.1686 16.0505 4.81766 15.7817C5.46672 15.5128 6.02148 15.0576 6.41178 14.4734C6.80209 13.8893 7.01042 13.2025 7.01042 12.5C7.01042 11.5579 6.63618 10.6544 5.97004 9.9883C5.30389 9.32215 4.40041 8.94792 3.45833 8.94792ZM3.45833 14.1146C3.139 14.1146 2.82684 14.0199 2.56132 13.8425C2.2958 13.6651 2.08886 13.4129 1.96665 13.1179C1.84445 12.8228 1.81248 12.4982 1.87478 12.185C1.93707 11.8718 2.09085 11.5841 2.31665 11.3583C2.54246 11.1325 2.83015 10.9787 3.14334 10.9164C3.45654 10.8541 3.78118 10.8861 4.07621 11.0083C4.37124 11.1305 4.6234 11.3375 4.80081 11.603C4.97822 11.8685 5.07292 12.1807 5.07292 12.5C5.07292 12.9282 4.90281 13.3389 4.60002 13.6417C4.29722 13.9445 3.88655 14.1146 3.45833 14.1146ZM12.5 8.94792C11.7975 8.94792 11.1107 9.15624 10.5266 9.54655C9.94243 9.93686 9.48715 10.4916 9.2183 11.1407C8.94946 11.7897 8.87911 12.5039 9.01617 13.193C9.15323 13.882 9.49153 14.5149 9.9883 15.0117C10.4851 15.5085 11.118 15.8468 11.807 15.9838C12.4961 16.1209 13.2103 16.0505 13.8593 15.7817C14.5084 15.5128 15.0631 15.0576 15.4534 14.4734C15.8438 13.8893 16.0521 13.2025 16.0521 12.5C16.0521 11.5579 15.6778 10.6544 15.0117 9.9883C14.3456 9.32215 13.4421 8.94792 12.5 8.94792ZM12.5 14.1146C12.1807 14.1146 11.8685 14.0199 11.603 13.8425C11.3375 13.6651 11.1305 13.4129 11.0083 13.1179C10.8861 12.8228 10.8541 12.4982 10.9164 12.185C10.9787 11.8718 11.1325 11.5841 11.3583 11.3583C11.5841 11.1325 11.8718 10.9787 12.185 10.9164C12.4982 10.8541 12.8228 10.8861 13.1179 11.0083C13.4129 11.1305 13.6651 11.3375 13.8425 11.603C14.0199 11.8685 14.1146 12.1807 14.1146 12.5C14.1146 12.9282 13.9445 13.3389 13.6417 13.6417C13.3389 13.9445 12.9282 14.1146 12.5 14.1146ZM3.45833 -0.0937484C2.7558 -0.0937484 2.06904 0.114578 1.4849 0.504886C0.900766 0.895193 0.445487 1.44995 0.176638 2.09901C-0.0922109 2.74807 -0.162554 3.46228 -0.0254961 4.15131C0.111562 4.84035 0.449865 5.47327 0.946633 5.97004C1.4434 6.46681 2.07632 6.80511 2.76536 6.94217C3.45439 7.07922 4.1686 7.00888 4.81766 6.74003C5.46672 6.47118 6.02148 6.0159 6.41178 5.43177C6.80209 4.84763 7.01042 4.16087 7.01042 3.45833C7.01042 2.51626 6.63618 1.61278 5.97004 0.946633C5.30389 0.280488 4.40041 -0.0937484 3.45833 -0.0937484ZM3.45833 5.07292C3.139 5.07292 2.82684 4.97822 2.56132 4.80081C2.2958 4.6234 2.08886 4.37124 1.96665 4.07621C1.84445 3.78118 1.81248 3.45654 1.87478 3.14334C1.93707 2.83015 2.09085 2.54246 2.31665 2.31665C2.54246 2.09085 2.83015 1.93707 3.14334 1.87478C3.45654 1.81248 3.78118 1.84445 4.07621 1.96665C4.37124 2.08886 4.6234 2.2958 4.80081 2.56132C4.97822 2.82684 5.07292 3.139 5.07292 3.45833C5.07292 3.88655 4.90281 4.29722 4.60002 4.60002C4.29722 4.90281 3.88655 5.07292 3.45833 5.07292ZM12.5 -0.0937484C11.7975 -0.0937484 11.1107 0.114578 10.5266 0.504886C9.94243 0.895193 9.48715 1.44995 9.2183 2.09901C8.94946 2.74807 8.87911 3.46228 9.01617 4.15131C9.15323 4.84035 9.49153 5.47327 9.9883 5.97004C10.4851 6.46681 11.118 6.80511 11.807 6.94217C12.4961 7.07922 13.2103 7.00888 13.8593 6.74003C14.5084 6.47118 15.0631 6.0159 15.4534 5.43177C15.8438 4.84763 16.0521 4.16087 16.0521 3.45833C16.0521 2.51626 15.6778 1.61278 15.0117 0.946633C14.3456 0.280488 13.4421 -0.0937484 12.5 -0.0937484ZM12.5 5.07292C12.1807 5.07292 11.8685 4.97822 11.603 4.80081C11.3375 4.6234 11.1305 4.37124 11.0083 4.07621C10.8861 3.78118 10.8541 3.45654 10.9164 3.14334C10.9787 2.83015 11.1325 2.54246 11.3583 2.31665C11.5841 2.09085 11.8718 1.93707 12.185 1.87478C12.4982 1.81248 12.8228 1.84445 13.1179 1.96665C13.4129 2.08886 13.6651 2.2958 13.8425 2.56132C14.0199 2.82684 14.1146 3.139 14.1146 3.45833C14.1146 3.88655 13.9445 4.29722 13.6417 4.60002C13.3389 4.90281 12.9282 5.07292 12.5 5.07292Z" fill="white"/>
</g>
</svg>
