<svg width="18" height="21" viewBox="0 0 18 21" fill="none" xmlns="http://www.w3.org/2000/svg">
<path d="M16.9565 8.6359L16.8841 8.61618L16.9565 8.63589C17.3012 7.3703 16.8794 6.01767 15.8804 5.19L12.0623 2.02651C12.0621 2.02639 12.062 2.02626 12.0618 2.02614C10.34 0.557981 7.6598 0.557915 5.93793 2.02617L2.11989 5.18958C0.536873 6.45492 0.53665 9.04288 2.11989 10.3084C2.12007 10.3086 2.12024 10.3087 2.12042 10.3088L5.93835 13.4722C6.801 14.1869 7.88814 14.5806 8.99991 14.5806C10.1117 14.5806 11.1989 14.1869 12.0615 13.4722L12.0616 13.4721L12.0757 13.4601L12.0758 13.46L12.7203 12.9003C13.0572 12.6078 13.0977 12.0926 12.8115 11.7491C12.5245 11.4046 12.0174 11.3626 11.6795 11.656L11.0423 12.2093C9.85517 13.1875 8.13574 13.1855 6.95067 12.2037L3.1317 9.03948L3.13171 9.03948L3.13066 9.03864C2.33461 8.40262 2.3345 7.09552 3.13066 6.45938L3.13067 6.45939L3.1317 6.45854L6.95067 3.29433C8.13804 2.31056 9.86177 2.31056 11.0491 3.29433L14.8681 6.45854L14.916 6.40079L14.8681 6.45854C15.3714 6.87551 15.5848 7.55847 15.4104 8.19861C15.2923 8.63215 15.5403 9.08331 15.9681 9.20473C16.3966 9.3264 16.8382 9.06995 16.9565 8.6359ZM5.39966 7.9713L5.39962 7.97125L5.3974 7.97326C5.00335 8.33086 5.04513 8.81212 5.29128 9.11835C5.4139 9.2709 5.58876 9.38258 5.78805 9.41445C5.98881 9.44655 6.2084 9.39666 6.41601 9.23634L6.41604 9.23639L6.41831 9.23448L6.95184 8.78778C6.9519 8.78773 6.95197 8.78768 6.95203 8.78762C8.13943 7.80505 9.86227 7.8054 11.0491 8.78876L14.8681 11.9529L14.8681 11.9529L14.8692 11.9538C15.6653 12.5899 15.6652 13.897 14.8692 14.533L14.8691 14.533L14.8681 14.5339L11.0491 17.698C9.86177 18.6818 8.13804 18.6818 6.95067 17.698L3.1317 14.5339C2.67066 14.1519 2.44953 13.5425 2.55584 12.9434C2.6344 12.5006 2.34672 12.0744 1.90967 11.9936L1.90966 11.9936C1.47242 11.9128 1.05559 12.2093 0.976916 12.6524L0.976915 12.6524C0.766749 13.8369 1.20405 15.044 2.11938 15.8024L5.93835 18.9666C6.80096 19.6813 7.88814 20.075 8.99991 20.075C10.1117 20.075 11.1989 19.6813 12.0615 18.9666L15.8794 15.8032C15.8796 15.8031 15.8798 15.8029 15.8799 15.8028C17.4632 14.5373 17.4629 11.9493 15.8799 10.684C15.8798 10.6838 15.8796 10.6837 15.8794 10.6835L12.0623 7.5209C12.0621 7.52077 12.062 7.52065 12.0618 7.52052C10.3399 6.05225 7.6596 6.05238 5.93778 7.52069C5.9377 7.52076 5.93762 7.52083 5.93754 7.5209L5.39966 7.9713Z" fill="#7635FF" stroke="white" stroke-width="0.15"/>
</svg>
