<svg width="18" height="19" viewBox="0 0 18 19" fill="none" xmlns="http://www.w3.org/2000/svg">
<path d="M13.0723 18.2476C12.523 18.2476 11.9777 18.0848 11.5039 17.7652L7.72807 15.219C7.40463 15.0009 7.31691 14.5583 7.53209 14.2305C7.74731 13.9027 8.18401 13.8138 8.50741 14.0319L12.2832 16.5781C12.6935 16.8548 13.1882 16.8998 13.6404 16.7017C14.0927 16.5036 14.3993 16.1077 14.4816 15.6155L16.5728 3.11472C16.6622 2.57976 16.463 2.06198 16.0398 1.72968C15.6165 1.39734 15.0719 1.33121 14.5831 1.55265L2.24455 7.14408C1.76276 7.36242 1.44892 7.81093 1.40502 8.34386C1.36109 8.87682 1.59717 9.37189 2.03654 9.66816L3.75924 10.8298C4.08268 11.048 4.1704 11.4905 3.95522 11.8183C3.74 12.1461 3.3033 12.235 2.97989 12.017L1.25719 10.8553C-0.595291 9.65258 -0.352884 6.71663 1.67029 5.84238L14.0088 0.25092C14.965 -0.182373 16.0733 -0.0477336 16.9013 0.602402C17.7293 1.25247 18.1349 2.30645 17.9599 3.35299L15.8687 15.8538C15.7077 16.8168 15.0832 17.6231 14.1985 18.0106C13.8362 18.1692 13.4533 18.2476 13.0723 18.2476ZM6.11296 17.5371V14.245C6.11296 13.6037 6.37077 12.9769 6.82031 12.5256L13.4314 5.88779C13.7074 5.61071 13.7095 5.15927 13.4361 4.87958C13.1627 4.59986 12.7172 4.59768 12.4413 4.87484L5.83018 11.5126C5.11579 12.2299 4.70607 13.2258 4.70607 14.245V17.5371C4.70607 17.9308 5.02101 18.25 5.40952 18.25C5.79803 18.25 6.11296 17.9308 6.11296 17.5371Z" fill="#7635FF"/>
</svg>
