<svg width="19" height="19" viewBox="0 0 19 19" fill="none" xmlns="http://www.w3.org/2000/svg">
<path d="M0.741959 19C0.646338 19 0.549938 18.9815 0.458103 18.9435C0.180814 18.8286 0 18.558 0 18.2578L0.000408159 9.58978C-0.0582554 1.1029 10.2687 -3.2121 16.2514 2.80296C22.1706 8.80938 17.897 19.0075 9.45493 19C7.95954 19 6.53199 18.6646 5.21197 18.003C3.95064 17.3708 2.42357 17.6258 1.41201 18.6374L1.26685 18.7826C1.12489 18.9246 0.935055 19 0.741959 19ZM3.75755 16.1742C4.47821 16.1742 5.20321 16.3383 5.87697 16.676C6.99072 17.2343 8.19791 17.5168 9.46331 17.5156C16.5572 17.5261 20.1925 8.85985 15.1967 3.84739C10.1293 -1.22426 1.44785 2.40835 1.48459 9.57905C1.48459 9.58143 1.48462 9.58384 1.48462 9.58622L1.48429 16.7507C2.18751 16.3704 2.96984 16.1742 3.75755 16.1742ZM7.27265 9.50016C7.27265 10.0125 6.85733 10.4279 6.34502 10.4279C5.11453 10.379 5.11486 8.62113 6.34502 8.57244C6.85733 8.57244 7.27265 8.9878 7.27265 9.50016ZM9.53608 8.57244C9.02376 8.57244 8.60844 8.9878 8.60844 9.50016C8.65731 10.7308 10.415 10.7304 10.4637 9.50016C10.4637 8.9878 10.0484 8.57244 9.53608 8.57244ZM12.7271 8.57244C12.2148 8.57244 11.7995 8.9878 11.7995 9.50016C11.8484 10.7308 13.6061 10.7304 13.6548 9.50016C13.6548 8.9878 13.2395 8.57244 12.7271 8.57244Z" fill="#5E6B7B"/>
</svg>
