<svg width="18" height="18" viewBox="0 0 18 18" fill="none" xmlns="http://www.w3.org/2000/svg">
<path d="M13.7812 18H4.21875C1.89253 18 0 16.1075 0 13.7812V4.21875C0 1.89253 1.89253 0 4.21875 0H13.7812C16.1075 0 18 1.89253 18 4.21875V13.7812C18 16.1075 16.1075 18 13.7812 18ZM4.21875 1.40625C2.66794 1.40625 1.40625 2.66794 1.40625 4.21875V13.7812C1.40625 15.3321 2.66794 16.5938 4.21875 16.5938H13.7812C15.3321 16.5938 16.5938 15.3321 16.5938 13.7812V4.21875C16.5938 2.66794 15.3321 1.40625 13.7812 1.40625H4.21875ZM11.4769 14.6598C11.1814 14.6598 10.8844 14.5891 10.6095 14.446L9.21621 13.721C9.08079 13.6505 8.91918 13.6504 8.78375 13.721L7.39055 14.446C6.7538 14.7774 5.99857 14.7203 5.41951 14.297C4.84692 13.8784 4.56616 13.1858 4.68679 12.4894L4.95285 10.9537C4.97767 10.8103 4.92919 10.6637 4.82316 10.5614L3.69601 9.47373C2.58395 8.41876 3.21258 6.51192 4.72827 6.30935L6.28594 6.08527C6.43616 6.06364 6.5655 5.97125 6.63188 5.83815L7.3285 4.4409C7.99422 3.07346 10.006 3.07396 10.6714 4.4409L11.368 5.83812C11.4344 5.97125 11.5637 6.06364 11.714 6.08527L13.2717 6.30935C14.7879 6.51206 15.4156 8.41922 14.3039 9.4737L13.1768 10.5614C13.0707 10.6637 13.0222 10.8103 13.0471 10.9537L13.3131 12.4894C13.4338 13.1858 13.153 13.8784 12.5804 14.297C12.2515 14.5375 11.8656 14.6598 11.4769 14.6598ZM9 12.262C9.29728 12.262 9.59446 12.3325 9.86544 12.4735L11.2586 13.1986C11.4913 13.3197 11.6801 13.2131 11.7506 13.1617C11.8178 13.1126 11.9696 12.972 11.9276 12.7295L11.6615 11.1937C11.557 10.5905 11.7584 9.9758 12.2003 9.54939L13.3275 8.46176C13.507 8.28851 13.4677 8.08794 13.4425 8.00979C13.4165 7.92935 13.3284 7.73821 13.0715 7.70129L11.5138 7.47721C10.9068 7.38991 10.3819 7.01174 10.1096 6.46559L9.41302 5.06841C9.24592 4.73087 8.75464 4.73027 8.58705 5.06841L7.89047 6.46562C7.61822 7.01174 7.09327 7.38991 6.48626 7.47721L4.92859 7.70129C4.6717 7.73824 4.5836 7.92935 4.55759 8.00979C4.53234 8.08798 4.493 8.28854 4.67258 8.46179L5.79973 9.54939C6.24164 9.97583 6.44309 10.5905 6.33853 11.1938L6.07247 12.7295C6.03046 12.972 6.1823 13.1125 6.24952 13.1617C6.3199 13.2132 6.50865 13.3196 6.74146 13.1986L8.13463 12.4735C8.40547 12.3325 8.70279 12.262 9 12.262Z" fill="#7635FF"/>
</svg>
