<svg width="56" height="56" viewBox="0 0 56 56" fill="none" xmlns="http://www.w3.org/2000/svg">
<rect width="56" height="56" rx="20" fill="#FF8B35"/>
<path d="M31.5003 41C21.8842 40.9277 10.6186 26.9162 18.8507 18.6774C19.1431 18.3801 19.4527 18.0941 19.7708 17.8273C20.4434 17.263 21.2956 16.972 22.1699 17.0078C23.0477 17.0437 23.8731 17.4061 24.4939 18.028C24.4979 18.032 24.502 18.0362 24.506 18.0403L26.0916 19.6881C27.8077 21.3672 27.1995 24.3952 24.9623 25.2714C24.2697 25.5539 23.8278 25.8048 23.7098 25.8897C22.8366 26.7794 22.2808 28.225 25.5468 31.4966C26.6066 32.5583 28.1763 33.9697 29.5661 33.9697C30.1299 33.9697 30.6474 33.7311 31.1469 33.2406C31.2119 33.1453 31.4365 32.7628 31.726 32.0413C32.5933 29.7887 35.6272 29.1625 37.3126 30.8905L38.9412 32.4665C38.9451 32.4703 38.9489 32.4741 38.9527 32.4779C39.5711 33.0973 39.9329 33.9204 39.9715 34.7955C40.0102 35.67 39.7226 36.5217 39.162 37.1938C38.9132 37.4919 38.6476 37.783 38.3722 38.0588C36.4328 40.0016 34.0849 40.9999 31.5003 41ZM22.0269 18.877C21.6564 18.877 21.2837 19.0049 20.9755 19.2634C20.703 19.492 20.4376 19.7372 20.1868 19.9921C15.7983 24.4495 18.2103 30.5381 22.4267 34.7066C26.6051 38.8639 32.6631 41.137 37.0457 36.7343C37.2817 36.4979 37.5094 36.2484 37.7226 35.9929C38.2636 35.3445 38.2239 34.4061 37.6312 33.8073L36.0036 32.2321C35.9997 32.2284 35.9958 32.2246 35.992 32.2208C35.619 31.8471 35.1086 31.6932 34.592 31.7988C34.0738 31.9045 33.6633 32.2475 33.4658 32.7396C33.3347 33.066 32.8779 34.1602 32.5012 34.5376C31.6357 35.4046 30.6482 35.8442 29.5661 35.8442C27.5027 35.8442 25.6253 34.2285 24.2201 32.821C22.0881 30.7755 19.6239 27.2875 22.4063 24.5419C22.8007 24.1467 23.9205 23.6718 24.2543 23.5357C24.7392 23.3379 25.0772 22.9287 25.1814 22.4129C25.2865 21.8932 25.1324 21.3804 24.7586 21.006C24.7546 21.002 24.7506 20.9978 24.7466 20.9937L23.1619 19.3469C22.8476 19.0349 22.4386 18.877 22.0269 18.877ZM39.0415 28.2053C38.5619 28.2053 38.153 27.8391 38.1091 27.3521C37.7028 22.8439 34.136 19.2771 29.6278 18.8708C29.1123 18.8244 28.732 18.3688 28.7785 17.8532C28.8249 17.3376 29.2808 16.9573 29.7961 17.0039C35.0672 17.398 39.5819 21.9128 39.9761 27.1838C40.0226 27.6994 39.6423 28.155 39.1267 28.2014C39.0981 28.2041 39.0697 28.2053 39.0415 28.2053ZM31.7392 28.2039C32.2302 28.0401 32.4955 27.5093 32.3317 27.0182C31.964 25.9162 31.1014 25.0311 30.0243 24.6503C29.5363 24.4777 29.0007 24.7336 28.8283 25.2217C28.6557 25.7097 28.9116 26.2452 29.3996 26.4177C29.936 26.6073 30.3674 27.0536 30.5535 27.6114C30.6845 28.004 31.0501 28.2523 31.4425 28.2523C31.5407 28.2524 31.6408 28.2368 31.7392 28.2039ZM35.4214 28.1958C35.9339 28.1225 36.2898 27.6477 36.2166 27.1352C35.747 23.8531 33.1268 21.2329 29.8447 20.7633C28.6077 20.6365 28.355 22.3936 29.5792 22.619C32.0422 22.9713 34.0085 24.9376 34.3608 27.4006C34.4277 27.8681 34.8286 28.2053 35.2875 28.2053C35.3317 28.2054 35.3764 28.2022 35.4214 28.1958Z" fill="white"/>
</svg>
