<svg width="56" height="56" viewBox="0 0 56 56" fill="none" xmlns="http://www.w3.org/2000/svg">
<rect width="56" height="56" rx="20" fill="#FF8B35"/>
<path d="M33.4298 40.3301C32.6973 40.3301 31.9703 40.113 31.3385 39.687L26.3041 36.292C25.8728 36.0012 25.7559 35.4111 26.0428 34.974C26.3297 34.537 26.912 34.4184 27.3432 34.7092L32.3776 38.1041C32.9246 38.4731 33.5842 38.5331 34.1872 38.2689C34.7902 38.0049 35.199 37.477 35.3088 36.8206L38.097 20.153C38.2163 19.4397 37.9506 18.7493 37.3863 18.3062C36.8219 17.8631 36.0959 17.7749 35.4441 18.0702L18.9927 25.5254C18.3503 25.8166 17.9319 26.4146 17.8734 27.1251C17.8148 27.8358 18.1296 28.4959 18.7154 28.8909L21.0123 30.4398C21.4436 30.7306 21.5605 31.3207 21.2736 31.7578C20.9867 32.1948 20.4044 32.3134 19.9732 32.0226L17.6763 30.4738C15.2063 28.8701 15.5295 24.9555 18.2271 23.7898L34.6784 16.3346C35.9534 15.7568 37.4311 15.9364 38.5351 16.8032C39.6391 17.67 40.1799 19.0753 39.9465 20.4706L37.1583 37.1383C36.9435 38.4224 36.111 39.4975 34.9314 40.0141C34.4482 40.2256 33.9377 40.3301 33.4298 40.3301ZM24.1506 39.3827V34.9933C24.1506 34.1382 24.4944 33.3026 25.0937 32.7008L33.9086 23.8504C34.2766 23.4809 34.2794 22.879 33.9148 22.5061C33.5503 22.1331 32.9563 22.1302 32.5884 22.4998L23.7736 31.3502C22.8211 32.3066 22.2748 33.6344 22.2748 34.9933V39.3827C22.2748 39.9078 22.6947 40.3333 23.2127 40.3333C23.7307 40.3333 24.1506 39.9078 24.1506 39.3827Z" fill="white"/>
</svg>
